{"glyphs":{"0":{"ha":798,"x_min":166,"x_max":842,"o":"m 421 -11 q 566 27 502 -11 q 680 127 631 65 q 762 265 728 190 q 814 417 795 340 q 837 557 833 493 q 831 708 842 632 q 789 849 819 785 q 708 951 759 913 q 583 990 657 990 q 446 956 508 990 q 335 864 384 922 q 252 733 286 806 q 197 581 217 661 q 172 427 177 502 q 178 267 166 345 q 221 126 191 189 q 302 26 252 63 q 421 -11 352 -11 m 421 -9 q 341 29 370 -9 q 302 149 312 68 q 299 357 292 230 q 320 538 304 448 q 361 710 336 629 q 421 854 387 791 q 496 953 455 917 q 583 989 537 989 q 665 945 636 989 q 704 817 694 902 q 706 608 713 732 q 683 411 700 504 q 641 241 667 318 q 582 108 616 164 q 508 21 549 52 q 421 -9 467 -9 z "},"1":{"ha":463,"x_min":68,"x_max":500,"o":"m 500 983 l 499 983 l 257 893 l 257 892 l 357 914 q 363 909 366 916 l 194 111 q 172 47 185 70 q 135 15 159 25 q 68 1 111 5 l 68 0 l 395 0 l 395 1 q 318 29 334 8 q 315 111 302 50 l 500 983 z "},"2":{"ha":703,"x_min":104,"x_max":764,"o":"m 621 0 l 643 104 l 153 104 l 153 103 l 425 326 q 567 448 504 391 q 673 556 629 504 q 741 661 718 608 q 764 772 764 713 q 735 886 764 838 q 656 962 707 935 q 536 989 605 989 q 355 937 437 989 q 234 783 274 886 l 235 783 q 325 896 272 857 q 456 936 378 936 q 586 882 538 936 q 634 735 634 829 q 594 573 634 652 q 474 407 553 493 q 280 218 395 321 l 120 77 l 104 0 l 621 0 z "},"3":{"ha":735,"x_min":127,"x_max":764,"o":"m 642 766 q 607 655 642 701 q 519 579 572 609 q 407 532 465 550 q 300 505 348 515 l 300 503 q 321 506 309 505 q 345 507 334 507 q 450 487 406 507 q 522 432 494 467 q 564 355 551 398 q 578 264 578 311 q 551 137 578 197 q 472 38 524 76 q 341 0 419 0 q 240 19 289 0 q 159 72 191 39 q 127 144 128 104 l 127 144 q 146 98 127 115 q 187 82 165 82 q 232 99 213 82 q 250 144 250 117 q 233 188 250 170 q 188 205 215 205 q 145 188 163 205 q 127 144 127 170 q 156 73 127 109 q 237 14 184 37 q 363 -9 290 -9 q 491 12 430 -9 q 601 73 553 33 q 676 169 648 113 q 704 292 704 224 q 674 413 704 355 q 588 509 644 471 q 458 549 533 547 l 458 549 q 550 573 498 556 q 651 620 602 590 q 732 693 700 649 q 764 800 764 738 q 733 901 764 859 q 653 966 703 943 q 547 989 604 989 q 436 968 492 989 q 333 903 380 947 q 258 785 286 858 l 259 785 q 354 900 296 865 q 479 936 411 936 q 564 915 527 936 q 621 856 600 894 q 642 766 642 818 z "},"4":{"ha":760,"x_min":73,"x_max":777,"o":"m 450 0 l 555 0 l 610 255 l 757 255 l 777 349 l 629 349 l 764 983 l 764 983 l 73 256 l 73 255 l 505 255 l 450 0 m 524 347 l 170 349 l 172 347 l 631 838 l 629 838 l 524 347 z "},"5":{"ha":656,"x_min":98,"x_max":736,"o":"m 317 -9 q 446 14 383 -9 q 561 79 509 37 q 642 182 612 122 q 673 318 673 243 q 641 462 673 402 q 552 554 608 522 q 423 586 496 586 q 311 567 360 586 q 228 519 262 549 q 170 456 193 489 l 170 456 l 313 871 l 722 871 l 736 979 l 334 979 l 166 449 l 169 449 q 239 517 195 488 q 343 546 283 546 q 454 513 410 546 q 520 422 498 479 q 543 294 542 365 q 515 146 545 213 q 430 40 486 79 q 296 0 374 0 q 194 22 238 0 q 124 77 149 43 q 99 146 99 111 l 98 146 q 117 100 98 117 q 158 83 136 83 q 202 100 184 83 q 221 146 221 117 q 203 190 221 172 q 159 209 186 209 q 116 191 135 209 q 98 146 98 172 q 124 75 98 111 q 200 15 151 39 q 317 -9 249 -9 z "},"6":{"ha":717,"x_min":118,"x_max":821,"o":"m 741 317 q 710 448 741 389 q 626 542 680 507 q 500 576 572 576 q 363 537 423 576 q 269 420 303 498 q 235 221 235 341 l 235 221 q 261 431 235 325 q 337 633 287 536 q 458 807 387 730 q 621 930 530 884 q 821 980 712 976 l 821 981 q 571 933 683 976 q 375 821 460 890 q 233 668 290 752 q 147 493 176 583 q 118 321 118 404 q 129 224 118 272 q 160 134 139 176 q 214 59 181 92 q 291 9 246 27 q 392 -9 335 -9 q 587 37 509 -9 q 702 157 664 83 q 741 317 741 232 m 610 321 q 586 164 610 239 q 513 41 562 89 q 392 -7 465 -7 q 301 26 336 -7 q 251 113 267 60 q 235 221 235 165 q 255 367 235 306 q 307 466 275 427 q 378 523 340 505 q 456 542 417 542 q 545 510 511 542 q 594 427 578 477 q 610 321 610 376 z "},"7":{"ha":619,"x_min":119,"x_max":784,"o":"m 241 0 l 762 873 l 784 979 l 260 979 l 237 871 l 760 871 l 760 871 l 119 1 l 119 0 l 241 0 z "},"8":{"ha":781,"x_min":143,"x_max":832,"o":"m 439 -11 q 607 28 535 -11 q 720 133 680 68 q 761 273 761 197 q 747 347 761 313 q 708 411 733 380 q 647 470 682 441 q 570 530 612 499 l 516 570 q 413 671 452 618 q 376 782 375 724 q 399 886 376 839 q 464 960 421 932 q 566 988 506 988 q 690 934 644 988 q 735 791 736 880 q 704 667 734 717 q 631 586 673 617 q 554 535 589 554 l 555 535 q 657 570 608 549 q 746 621 707 591 q 809 688 785 650 q 832 772 832 726 q 810 861 832 821 q 751 930 789 901 q 665 975 713 959 q 566 990 617 990 q 443 971 498 990 q 350 917 389 951 q 292 834 312 882 q 271 731 271 787 q 288 646 271 686 q 337 568 304 605 q 414 496 369 530 l 477 449 q 566 376 526 412 q 632 299 607 340 q 656 205 656 258 q 623 92 655 140 q 541 17 590 43 q 439 -9 492 -9 q 350 12 393 -9 q 278 81 306 34 q 250 205 250 128 q 279 340 250 284 q 352 433 308 397 q 441 490 396 470 l 441 490 q 338 454 391 475 q 242 401 286 433 q 171 327 198 370 q 144 225 144 283 q 171 118 143 163 q 245 45 199 73 q 342 3 290 16 q 439 -11 393 -11 z "},"9":{"ha":719,"x_min":109,"x_max":811,"o":"m 189 668 q 219 536 189 597 q 303 439 249 476 q 429 403 357 403 q 566 442 506 403 q 660 560 626 481 q 694 758 694 639 l 694 758 q 668 549 694 654 q 592 346 642 443 q 471 172 543 249 q 308 50 399 96 q 109 -1 217 3 l 109 -1 q 358 46 246 3 q 554 158 469 89 q 696 312 639 227 q 782 486 753 396 q 811 658 811 576 q 801 755 811 707 q 769 845 790 803 q 714 920 747 888 q 635 970 680 952 q 530 989 589 989 q 343 944 420 989 q 228 827 267 900 q 189 668 189 754 m 319 664 q 344 820 319 746 q 416 940 369 894 q 530 987 464 987 q 626 954 590 987 q 678 869 662 922 q 694 758 694 817 q 674 613 694 674 q 622 513 654 552 q 551 456 589 475 q 473 437 512 437 q 385 471 418 437 q 335 557 351 505 q 319 664 319 609 z "}," ":{"ha":279,"x_min":0,"x_max":0,"o":""},"A":{"ha":825,"x_min":-5,"x_max":830,"o":"m 746 144 l 634 979 l 611 979 l 158 176 q 92 69 118 105 q 44 20 66 33 q -5 1 22 6 l -5 0 l 210 0 l 210 1 q 149 23 168 7 q 138 74 131 39 q 180 176 145 110 l 522 818 l 521 818 l 608 144 q 608 67 614 97 q 581 21 601 37 q 526 1 561 5 l 526 0 l 830 0 l 830 1 q 793 17 809 5 q 765 58 777 28 q 746 144 753 88 m 274 360 l 637 360 l 637 368 l 277 368 l 274 360 z "},"Á":{"ha":825,"x_min":-5,"x_max":846,"o":"m 746 144 l 634 979 l 611 979 l 158 176 q 92 69 118 105 q 44 20 66 33 q -5 1 22 6 l -5 0 l 210 0 l 210 1 q 149 23 168 7 q 138 74 131 39 q 180 176 145 110 l 522 818 l 521 818 l 608 144 q 608 67 614 97 q 581 21 601 37 q 526 1 561 5 l 526 0 l 830 0 l 830 1 q 793 17 809 5 q 765 58 777 28 q 746 144 753 88 m 274 360 l 637 360 l 637 368 l 277 368 l 274 360 m 718 1200 l 593 1025 l 595 1025 l 846 1199 l 846 1200 l 718 1200 z "},"À":{"ha":825,"x_min":-5,"x_max":830,"o":"m 746 144 l 634 979 l 611 979 l 158 176 q 92 69 118 105 q 44 20 66 33 q -5 1 22 6 l -5 0 l 210 0 l 210 1 q 149 23 168 7 q 138 74 131 39 q 180 176 145 110 l 522 818 l 521 818 l 608 144 q 608 67 614 97 q 581 21 601 37 q 526 1 561 5 l 526 0 l 830 0 l 830 1 q 793 17 809 5 q 765 58 777 28 q 746 144 753 88 m 274 360 l 637 360 l 637 368 l 277 368 l 274 360 m 618 1199 l 504 1199 l 504 1198 l 680 1024 l 681 1024 l 618 1199 z "},"Ȁ":{"ha":825,"x_min":-5,"x_max":830,"o":"m 746 144 l 634 979 l 611 979 l 158 176 q 92 69 118 105 q 44 20 66 33 q -5 1 22 6 l -5 0 l 210 0 l 210 1 q 149 23 168 7 q 138 74 131 39 q 180 176 145 110 l 522 818 l 521 818 l 608 144 q 608 67 614 97 q 581 21 601 37 q 526 1 561 5 l 526 0 l 830 0 l 830 1 q 793 17 809 5 q 765 58 777 28 q 746 144 753 88 m 274 360 l 637 360 l 637 368 l 277 368 l 274 360 m 501 1199 l 393 1199 l 393 1198 l 574 1024 l 575 1024 l 501 1199 m 686 1199 l 582 1199 l 582 1198 l 733 1024 l 734 1024 l 686 1199 z "},"Â":{"ha":825,"x_min":-5,"x_max":830,"o":"m 746 144 l 634 979 l 611 979 l 158 176 q 92 69 118 105 q 44 20 66 33 q -5 1 22 6 l -5 0 l 210 0 l 210 1 q 149 23 168 7 q 138 74 131 39 q 180 176 145 110 l 522 818 l 521 818 l 608 144 q 608 67 614 97 q 581 21 601 37 q 526 1 561 5 l 526 0 l 830 0 l 830 1 q 793 17 809 5 q 765 58 777 28 q 746 144 753 88 m 274 360 l 637 360 l 637 368 l 277 368 l 274 360 m 495 1025 l 690 1152 l 640 1152 l 779 1025 l 781 1025 l 702 1200 l 643 1200 l 494 1025 l 495 1025 z "},"Ấ":{"ha":825,"x_min":-5,"x_max":843,"o":"m 746 144 l 634 979 l 611 979 l 158 176 q 92 69 118 105 q 44 20 66 33 q -5 1 22 6 l -5 0 l 210 0 l 210 1 q 149 23 168 7 q 138 74 131 39 q 180 176 145 110 l 522 818 l 521 818 l 608 144 q 608 67 614 97 q 581 21 601 37 q 526 1 561 5 l 526 0 l 830 0 l 830 1 q 793 17 809 5 q 765 58 777 28 q 746 144 753 88 m 274 360 l 637 360 l 637 368 l 277 368 l 274 360 m 480 1031 l 654 1093 l 638 1093 l 785 1031 l 785 1031 l 665 1158 l 654 1158 l 480 1031 l 480 1031 m 828 1225 l 843 1296 l 512 1177 l 512 1177 l 828 1225 z "},"Ầ":{"ha":825,"x_min":-5,"x_max":830,"o":"m 746 144 l 634 979 l 611 979 l 158 176 q 92 69 118 105 q 44 20 66 33 q -5 1 22 6 l -5 0 l 210 0 l 210 1 q 149 23 168 7 q 138 74 131 39 q 180 176 145 110 l 522 818 l 521 818 l 608 144 q 608 67 614 97 q 581 21 601 37 q 526 1 561 5 l 526 0 l 830 0 l 830 1 q 793 17 809 5 q 765 58 777 28 q 746 144 753 88 m 274 360 l 637 360 l 637 368 l 277 368 l 274 360 m 480 1031 l 654 1093 l 638 1093 l 785 1031 l 785 1031 l 665 1158 l 654 1158 l 480 1031 l 480 1031 m 522 1225 l 818 1177 l 818 1177 l 537 1296 l 522 1225 z "},"Ẫ":{"ha":825,"x_min":-5,"x_max":842,"o":"m 746 144 l 634 979 l 611 979 l 158 176 q 92 69 118 105 q 44 20 66 33 q -5 1 22 6 l -5 0 l 210 0 l 210 1 q 149 23 168 7 q 138 74 131 39 q 180 176 145 110 l 522 818 l 521 818 l 608 144 q 608 67 614 97 q 581 21 601 37 q 526 1 561 5 l 526 0 l 830 0 l 830 1 q 793 17 809 5 q 765 58 777 28 q 746 144 753 88 m 274 360 l 637 360 l 637 368 l 277 368 l 274 360 m 480 1031 l 654 1093 l 638 1093 l 785 1031 l 785 1031 l 665 1158 l 654 1158 l 480 1031 l 480 1031 m 739 1197 q 805 1221 779 1197 q 842 1290 831 1245 l 841 1290 q 817 1254 834 1264 q 776 1243 800 1243 q 747 1246 762 1243 q 713 1256 732 1250 l 694 1262 q 657 1272 677 1267 q 615 1276 637 1276 q 549 1252 575 1276 q 513 1183 522 1227 l 513 1183 q 537 1219 520 1208 q 578 1230 553 1230 q 607 1226 592 1230 q 642 1217 623 1223 l 659 1211 q 696 1201 677 1205 q 739 1197 716 1197 z "},"Ẩ":{"ha":825,"x_min":-5,"x_max":895,"o":"m 746 144 l 634 979 l 611 979 l 158 176 q 92 69 118 105 q 44 20 66 33 q -5 1 22 6 l -5 0 l 210 0 l 210 1 q 149 23 168 7 q 138 74 131 39 q 180 176 145 110 l 522 818 l 521 818 l 608 144 q 608 67 614 97 q 581 21 601 37 q 526 1 561 5 l 526 0 l 830 0 l 830 1 q 793 17 809 5 q 765 58 777 28 q 746 144 753 88 m 274 360 l 637 360 l 637 368 l 277 368 l 274 360 m 480 1031 l 654 1093 l 638 1093 l 785 1031 l 785 1031 l 665 1158 l 654 1158 l 480 1031 l 480 1031 m 818 1265 q 754 1248 779 1265 q 714 1214 729 1231 l 714 1213 q 736 1223 722 1219 q 767 1227 750 1227 q 807 1216 793 1227 q 817 1186 821 1205 q 798 1155 813 1168 q 757 1134 782 1141 l 757 1133 q 850 1159 819 1143 q 888 1203 882 1175 q 873 1248 895 1231 q 818 1265 852 1265 z "},"Ậ":{"ha":825,"x_min":-5,"x_max":830,"o":"m 746 144 l 634 979 l 611 979 l 158 176 q 92 69 118 105 q 44 20 66 33 q -5 1 22 6 l -5 0 l 210 0 l 210 1 q 149 23 168 7 q 138 74 131 39 q 180 176 145 110 l 522 818 l 521 818 l 608 144 q 608 67 614 97 q 581 21 601 37 q 526 1 561 5 l 526 0 l 830 0 l 830 1 q 793 17 809 5 q 765 58 777 28 q 746 144 753 88 m 274 360 l 637 360 l 637 368 l 277 368 l 274 360 m 495 1025 l 690 1152 l 640 1152 l 779 1025 l 781 1025 l 702 1200 l 643 1200 l 494 1025 l 495 1025 m 348 -130 q 307 -146 323 -130 q 291 -186 291 -163 q 307 -225 291 -209 q 346 -241 323 -241 q 386 -225 370 -241 q 403 -186 403 -209 q 387 -146 403 -163 q 348 -130 370 -130 z "},"Ǎ":{"ha":825,"x_min":-5,"x_max":830,"o":"m 746 144 l 634 979 l 611 979 l 158 176 q 92 69 118 105 q 44 20 66 33 q -5 1 22 6 l -5 0 l 210 0 l 210 1 q 149 23 168 7 q 138 74 131 39 q 180 176 145 110 l 522 818 l 521 818 l 608 144 q 608 67 614 97 q 581 21 601 37 q 526 1 561 5 l 526 0 l 830 0 l 830 1 q 793 17 809 5 q 765 58 777 28 q 746 144 753 88 m 274 360 l 637 360 l 637 368 l 277 368 l 274 360 m 808 1208 l 619 1080 l 668 1080 l 534 1208 l 533 1208 l 610 1036 l 664 1036 l 810 1208 l 808 1208 z "},"Ă":{"ha":825,"x_min":-5,"x_max":830,"o":"m 746 144 l 634 979 l 611 979 l 158 176 q 92 69 118 105 q 44 20 66 33 q -5 1 22 6 l -5 0 l 210 0 l 210 1 q 149 23 168 7 q 138 74 131 39 q 180 176 145 110 l 522 818 l 521 818 l 608 144 q 608 67 614 97 q 581 21 601 37 q 526 1 561 5 l 526 0 l 830 0 l 830 1 q 793 17 809 5 q 765 58 777 28 q 746 144 753 88 m 274 360 l 637 360 l 637 368 l 277 368 l 274 360 m 656 1072 q 735 1093 701 1072 q 789 1153 769 1114 q 812 1249 809 1193 l 811 1249 q 764 1171 800 1199 q 657 1143 728 1143 q 576 1167 608 1143 q 545 1230 545 1191 q 546 1240 545 1235 q 548 1249 547 1244 l 547 1249 q 538 1218 541 1234 q 535 1187 535 1202 q 550 1128 535 1154 q 593 1086 566 1101 q 656 1072 620 1072 z "},"Ắ":{"ha":825,"x_min":-5,"x_max":846,"o":"m 746 144 l 634 979 l 611 979 l 158 176 q 92 69 118 105 q 44 20 66 33 q -5 1 22 6 l -5 0 l 210 0 l 210 1 q 149 23 168 7 q 138 74 131 39 q 180 176 145 110 l 522 818 l 521 818 l 608 144 q 608 67 614 97 q 581 21 601 37 q 526 1 561 5 l 526 0 l 830 0 l 830 1 q 793 17 809 5 q 765 58 777 28 q 746 144 753 88 m 274 360 l 637 360 l 637 368 l 277 368 l 274 360 m 640 1061 q 759 1092 709 1061 q 817 1173 810 1122 l 816 1173 q 762 1135 807 1149 q 652 1120 717 1120 q 550 1135 589 1120 q 511 1173 511 1149 l 511 1173 q 534 1092 496 1122 q 640 1061 572 1061 m 831 1241 l 846 1312 l 515 1193 l 515 1192 l 831 1241 z "},"Ằ":{"ha":825,"x_min":-5,"x_max":830,"o":"m 746 144 l 634 979 l 611 979 l 158 176 q 92 69 118 105 q 44 20 66 33 q -5 1 22 6 l -5 0 l 210 0 l 210 1 q 149 23 168 7 q 138 74 131 39 q 180 176 145 110 l 522 818 l 521 818 l 608 144 q 608 67 614 97 q 581 21 601 37 q 526 1 561 5 l 526 0 l 830 0 l 830 1 q 793 17 809 5 q 765 58 777 28 q 746 144 753 88 m 274 360 l 637 360 l 637 368 l 277 368 l 274 360 m 640 1061 q 759 1092 709 1061 q 817 1173 810 1122 l 816 1173 q 762 1135 807 1149 q 652 1120 717 1120 q 550 1135 589 1120 q 511 1173 511 1149 l 511 1173 q 534 1092 496 1122 q 640 1061 572 1061 m 526 1241 l 821 1192 l 821 1193 l 541 1312 l 526 1241 z "},"Ẵ":{"ha":825,"x_min":-5,"x_max":845,"o":"m 746 144 l 634 979 l 611 979 l 158 176 q 92 69 118 105 q 44 20 66 33 q -5 1 22 6 l -5 0 l 210 0 l 210 1 q 149 23 168 7 q 138 74 131 39 q 180 176 145 110 l 522 818 l 521 818 l 608 144 q 608 67 614 97 q 581 21 601 37 q 526 1 561 5 l 526 0 l 830 0 l 830 1 q 793 17 809 5 q 765 58 777 28 q 746 144 753 88 m 274 360 l 637 360 l 637 368 l 277 368 l 274 360 m 640 1061 q 759 1092 709 1061 q 817 1173 810 1122 l 816 1173 q 762 1135 807 1149 q 652 1120 717 1120 q 550 1135 589 1120 q 511 1173 511 1149 l 511 1173 q 534 1092 496 1122 q 640 1061 572 1061 m 742 1213 q 808 1237 782 1213 q 845 1305 835 1261 l 844 1305 q 821 1269 838 1280 q 779 1259 804 1259 q 750 1262 765 1259 q 716 1272 735 1265 l 698 1278 q 661 1287 681 1283 q 618 1291 641 1291 q 552 1267 578 1291 q 516 1198 526 1243 l 517 1198 q 540 1235 524 1224 q 581 1245 557 1245 q 611 1242 595 1245 q 645 1232 626 1238 l 663 1226 q 700 1217 680 1221 q 742 1213 720 1213 z "},"Ẳ":{"ha":825,"x_min":-5,"x_max":830,"o":"m 746 144 l 634 979 l 611 979 l 158 176 q 92 69 118 105 q 44 20 66 33 q -5 1 22 6 l -5 0 l 210 0 l 210 1 q 149 23 168 7 q 138 74 131 39 q 180 176 145 110 l 522 818 l 521 818 l 608 144 q 608 67 614 97 q 581 21 601 37 q 526 1 561 5 l 526 0 l 830 0 l 830 1 q 793 17 809 5 q 765 58 777 28 q 746 144 753 88 m 274 360 l 637 360 l 637 368 l 277 368 l 274 360 m 640 1061 q 759 1092 709 1061 q 817 1173 810 1122 l 816 1173 q 762 1135 807 1149 q 652 1120 717 1120 q 550 1135 589 1120 q 511 1173 511 1149 l 511 1173 q 534 1092 496 1122 q 640 1061 572 1061 m 678 1303 q 611 1286 637 1303 q 570 1253 585 1270 l 570 1252 q 592 1262 578 1258 q 625 1265 606 1265 q 666 1255 651 1265 q 676 1225 681 1244 q 656 1194 673 1207 q 614 1173 640 1180 l 614 1172 q 712 1198 679 1181 q 751 1242 745 1214 q 735 1286 758 1270 q 678 1303 713 1303 z "},"Ặ":{"ha":825,"x_min":-5,"x_max":830,"o":"m 746 144 l 634 979 l 611 979 l 158 176 q 92 69 118 105 q 44 20 66 33 q -5 1 22 6 l -5 0 l 210 0 l 210 1 q 149 23 168 7 q 138 74 131 39 q 180 176 145 110 l 522 818 l 521 818 l 608 144 q 608 67 614 97 q 581 21 601 37 q 526 1 561 5 l 526 0 l 830 0 l 830 1 q 793 17 809 5 q 765 58 777 28 q 746 144 753 88 m 274 360 l 637 360 l 637 368 l 277 368 l 274 360 m 656 1072 q 735 1093 701 1072 q 789 1153 769 1114 q 812 1249 809 1193 l 811 1249 q 764 1171 800 1199 q 657 1143 728 1143 q 576 1167 608 1143 q 545 1230 545 1191 q 546 1240 545 1235 q 548 1249 547 1244 l 547 1249 q 538 1218 541 1234 q 535 1187 535 1202 q 550 1128 535 1154 q 593 1086 566 1101 q 656 1072 620 1072 m 348 -130 q 307 -146 323 -130 q 291 -186 291 -163 q 307 -225 291 -209 q 346 -241 323 -241 q 386 -225 370 -241 q 403 -186 403 -209 q 387 -146 403 -163 q 348 -130 370 -130 z "},"Ȃ":{"ha":825,"x_min":-5,"x_max":830,"o":"m 746 144 l 634 979 l 611 979 l 158 176 q 92 69 118 105 q 44 20 66 33 q -5 1 22 6 l -5 0 l 210 0 l 210 1 q 149 23 168 7 q 138 74 131 39 q 180 176 145 110 l 522 818 l 521 818 l 608 144 q 608 67 614 97 q 581 21 601 37 q 526 1 561 5 l 526 0 l 830 0 l 830 1 q 793 17 809 5 q 765 58 777 28 q 746 144 753 88 m 274 360 l 637 360 l 637 368 l 277 368 l 274 360 m 667 1249 q 588 1227 622 1249 q 533 1167 553 1206 q 511 1072 513 1128 l 511 1072 q 558 1149 522 1121 q 665 1177 595 1177 q 746 1154 715 1177 q 777 1090 777 1130 q 777 1080 777 1085 q 774 1072 776 1076 l 775 1072 q 785 1102 782 1087 q 787 1133 787 1118 q 772 1193 787 1166 q 730 1234 757 1219 q 667 1249 703 1249 z "},"Ä":{"ha":825,"x_min":-5,"x_max":830,"o":"m 746 144 l 634 979 l 611 979 l 158 176 q 92 69 118 105 q 44 20 66 33 q -5 1 22 6 l -5 0 l 210 0 l 210 1 q 149 23 168 7 q 138 74 131 39 q 180 176 145 110 l 522 818 l 521 818 l 608 144 q 608 67 614 97 q 581 21 601 37 q 526 1 561 5 l 526 0 l 830 0 l 830 1 q 793 17 809 5 q 765 58 777 28 q 746 144 753 88 m 274 360 l 637 360 l 637 368 l 277 368 l 274 360 z "},"Ǟ":{"ha":825,"x_min":-5,"x_max":838,"o":"m 746 144 l 634 979 l 611 979 l 158 176 q 92 69 118 105 q 44 20 66 33 q -5 1 22 6 l -5 0 l 210 0 l 210 1 q 149 23 168 7 q 138 74 131 39 q 180 176 145 110 l 522 818 l 521 818 l 608 144 q 608 67 614 97 q 581 21 601 37 q 526 1 561 5 l 526 0 l 830 0 l 830 1 q 793 17 809 5 q 765 58 777 28 q 746 144 753 88 m 274 360 l 637 360 l 637 368 l 277 368 l 274 360 m 556 1072 q 594 1085 577 1072 q 614 1116 610 1097 q 607 1148 618 1135 q 575 1160 596 1160 l 574 1160 q 536 1148 553 1160 q 515 1116 519 1135 q 522 1085 511 1097 q 555 1072 534 1072 l 556 1072 m 730 1072 q 767 1085 751 1072 q 788 1116 784 1097 q 781 1148 792 1135 q 749 1160 770 1160 l 747 1160 q 709 1148 726 1160 q 688 1116 692 1135 q 696 1085 684 1097 q 728 1072 707 1072 l 730 1072 m 522 1226 l 828 1226 l 838 1276 l 532 1276 l 522 1226 z "},"Ã":{"ha":825,"x_min":-5,"x_max":830,"o":"m 746 144 l 634 979 l 611 979 l 158 176 q 92 69 118 105 q 44 20 66 33 q -5 1 22 6 l -5 0 l 210 0 l 210 1 q 149 23 168 7 q 138 74 131 39 q 180 176 145 110 l 522 818 l 521 818 l 608 144 q 608 67 614 97 q 581 21 601 37 q 526 1 561 5 l 526 0 l 830 0 l 830 1 q 793 17 809 5 q 765 58 777 28 q 746 144 753 88 m 274 360 l 637 360 l 637 368 l 277 368 l 274 360 m 703 1069 q 744 1080 726 1069 q 774 1120 762 1092 q 793 1196 787 1147 l 792 1196 q 771 1143 784 1161 q 738 1125 759 1125 q 714 1131 725 1125 q 686 1149 703 1137 l 669 1161 q 639 1180 654 1173 q 605 1187 624 1187 q 565 1175 583 1187 q 534 1136 547 1163 q 515 1060 522 1108 l 516 1060 q 537 1112 524 1094 q 570 1131 549 1131 q 594 1124 583 1131 q 622 1107 606 1118 l 639 1095 q 669 1076 654 1083 q 703 1069 684 1069 z "},"Ā":{"ha":825,"x_min":-5,"x_max":830,"o":"m 746 144 l 634 979 l 611 979 l 158 176 q 92 69 118 105 q 44 20 66 33 q -5 1 22 6 l -5 0 l 210 0 l 210 1 q 149 23 168 7 q 138 74 131 39 q 180 176 145 110 l 522 818 l 521 818 l 608 144 q 608 67 614 97 q 581 21 601 37 q 526 1 561 5 l 526 0 l 830 0 l 830 1 q 793 17 809 5 q 765 58 777 28 q 746 144 753 88 m 274 360 l 637 360 l 637 368 l 277 368 l 274 360 m 510 1089 l 782 1089 l 794 1147 l 522 1147 l 510 1089 z "},"Ả":{"ha":825,"x_min":-5,"x_max":830,"o":"m 746 144 l 634 979 l 611 979 l 158 176 q 92 69 118 105 q 44 20 66 33 q -5 1 22 6 l -5 0 l 210 0 l 210 1 q 149 23 168 7 q 138 74 131 39 q 180 176 145 110 l 522 818 l 521 818 l 608 144 q 608 67 614 97 q 581 21 601 37 q 526 1 561 5 l 526 0 l 830 0 l 830 1 q 793 17 809 5 q 765 58 777 28 q 746 144 753 88 m 274 360 l 637 360 l 637 368 l 277 368 l 274 360 m 671 1226 q 607 1208 636 1226 q 563 1158 578 1190 l 563 1157 q 593 1178 577 1171 q 628 1185 609 1185 q 670 1171 653 1185 q 686 1133 686 1157 q 664 1083 686 1108 q 595 1035 642 1059 l 597 1035 q 713 1088 675 1056 q 750 1158 750 1120 q 727 1208 750 1190 q 671 1226 704 1226 z "},"Å":{"ha":825,"x_min":-5,"x_max":830,"o":"m 746 144 l 634 979 l 611 979 l 158 176 q 92 69 118 105 q 44 20 66 33 q -5 1 22 6 l -5 0 l 210 0 l 210 1 q 149 23 168 7 q 138 74 131 39 q 180 176 145 110 l 522 818 l 521 818 l 608 144 q 608 67 614 97 q 581 21 601 37 q 526 1 561 5 l 526 0 l 830 0 l 830 1 q 793 17 809 5 q 765 58 777 28 q 746 144 753 88 m 274 360 l 637 360 l 637 368 l 277 368 l 274 360 m 536 1140 q 572 1078 536 1098 q 644 1057 609 1057 q 742 1085 703 1057 q 781 1155 781 1112 q 744 1217 781 1197 q 672 1238 708 1238 q 574 1210 613 1238 q 536 1140 536 1183 m 608 1113 q 616 1171 608 1143 q 640 1218 625 1200 q 672 1236 654 1236 q 700 1223 691 1236 q 709 1183 709 1209 q 700 1125 709 1154 q 677 1078 692 1097 q 644 1060 663 1060 q 616 1073 625 1060 q 608 1113 608 1086 z "},"Ǻ":{"ha":825,"x_min":-5,"x_max":844,"o":"m 746 144 l 634 979 l 611 979 l 158 176 q 92 69 118 105 q 44 20 66 33 q -5 1 22 6 l -5 0 l 210 0 l 210 1 q 149 23 168 7 q 138 74 131 39 q 180 176 145 110 l 522 818 l 521 818 l 608 144 q 608 67 614 97 q 581 21 601 37 q 526 1 561 5 l 526 0 l 830 0 l 830 1 q 793 17 809 5 q 765 58 777 28 q 746 144 753 88 m 274 360 l 637 360 l 637 368 l 277 368 l 274 360 m 641 1059 q 738 1072 699 1059 q 781 1105 777 1084 q 752 1139 785 1126 q 661 1152 719 1152 l 657 1152 q 561 1139 600 1152 q 517 1105 522 1126 q 546 1072 513 1084 q 637 1059 580 1059 l 641 1059 m 642 1061 l 638 1061 q 606 1074 616 1061 q 600 1105 596 1086 q 619 1138 604 1125 q 657 1150 635 1150 l 661 1150 q 693 1138 684 1150 q 699 1105 703 1125 q 680 1074 695 1086 q 642 1061 665 1061 m 829 1230 l 844 1300 l 513 1181 l 513 1181 l 829 1230 z "},"Ḁ":{"ha":825,"x_min":-5,"x_max":830,"o":"m 746 144 l 634 979 l 611 979 l 158 176 q 92 69 118 105 q 44 20 66 33 q -5 1 22 6 l -5 0 l 210 0 l 210 1 q 149 23 168 7 q 138 74 131 39 q 180 176 145 110 l 522 818 l 521 818 l 608 144 q 608 67 614 97 q 581 21 601 37 q 526 1 561 5 l 526 0 l 830 0 l 830 1 q 793 17 809 5 q 765 58 777 28 q 746 144 753 88 m 274 360 l 637 360 l 637 368 l 277 368 l 274 360 m 212 -193 q 232 -240 212 -222 q 280 -268 252 -259 q 334 -277 309 -277 q 443 -249 400 -277 q 484 -178 486 -221 q 464 -130 484 -149 q 416 -103 444 -112 q 361 -94 388 -94 q 253 -121 296 -94 q 212 -193 211 -149 m 292 -221 q 300 -162 291 -191 q 325 -114 309 -133 q 361 -96 341 -96 q 392 -110 382 -96 q 403 -150 403 -123 q 394 -209 404 -180 q 370 -257 385 -238 q 334 -275 354 -275 q 302 -261 313 -275 q 292 -221 292 -248 z "},"Ȧ":{"ha":825,"x_min":-5,"x_max":830,"o":"m 746 144 l 634 979 l 611 979 l 158 176 q 92 69 118 105 q 44 20 66 33 q -5 1 22 6 l -5 0 l 210 0 l 210 1 q 149 23 168 7 q 138 74 131 39 q 180 176 145 110 l 522 818 l 521 818 l 608 144 q 608 67 614 97 q 581 21 601 37 q 526 1 561 5 l 526 0 l 830 0 l 830 1 q 793 17 809 5 q 765 58 777 28 q 746 144 753 88 m 274 360 l 637 360 l 637 368 l 277 368 l 274 360 m 650 1057 q 691 1074 675 1057 q 707 1113 707 1090 q 691 1152 707 1136 q 652 1168 675 1168 q 612 1152 629 1168 q 595 1113 595 1136 q 612 1074 595 1090 q 650 1057 628 1057 z "},"Ǡ":{"ha":825,"x_min":-5,"x_max":836,"o":"m 746 144 l 634 979 l 611 979 l 158 176 q 92 69 118 105 q 44 20 66 33 q -5 1 22 6 l -5 0 l 210 0 l 210 1 q 149 23 168 7 q 138 74 131 39 q 180 176 145 110 l 522 818 l 521 818 l 608 144 q 608 67 614 97 q 581 21 601 37 q 526 1 561 5 l 526 0 l 830 0 l 830 1 q 793 17 809 5 q 765 58 777 28 q 746 144 753 88 m 274 360 l 637 360 l 637 368 l 277 368 l 274 360 m 653 1074 q 688 1086 674 1074 q 702 1117 702 1099 q 687 1147 702 1135 q 650 1160 671 1160 q 616 1147 629 1160 q 602 1117 602 1135 q 617 1086 602 1099 q 653 1074 632 1074 m 519 1213 l 825 1213 l 836 1263 l 530 1263 l 519 1213 z "},"Ạ":{"ha":825,"x_min":-5,"x_max":830,"o":"m 746 144 l 634 979 l 611 979 l 158 176 q 92 69 118 105 q 44 20 66 33 q -5 1 22 6 l -5 0 l 210 0 l 210 1 q 149 23 168 7 q 138 74 131 39 q 180 176 145 110 l 522 818 l 521 818 l 608 144 q 608 67 614 97 q 581 21 601 37 q 526 1 561 5 l 526 0 l 830 0 l 830 1 q 793 17 809 5 q 765 58 777 28 q 746 144 753 88 m 274 360 l 637 360 l 637 368 l 277 368 l 274 360 m 348 -130 q 307 -146 323 -130 q 291 -186 291 -163 q 307 -225 291 -209 q 346 -241 323 -241 q 386 -225 370 -241 q 403 -186 403 -209 q 387 -146 403 -163 q 348 -130 370 -130 z "},"Ą":{"ha":825,"x_min":-5,"x_max":830,"o":"m 746 144 l 625 987 l 623 987 l 158 176 q 92 70 118 105 q 43 20 65 34 q -5 1 22 6 l -5 0 l 210 0 l 210 1 q 149 23 168 7 q 137 74 130 39 q 180 176 144 110 l 521 805 l 521 805 l 608 144 q 608 67 615 97 q 581 21 602 37 q 526 1 561 5 l 526 0 l 830 0 l 830 1 q 793 17 809 5 q 766 58 777 28 q 746 144 754 88 m 274 360 l 637 360 l 637 368 l 277 368 l 274 360 m 646 -317 q 710 -296 684 -317 q 747 -242 736 -275 l 747 -241 q 702 -262 728 -262 q 666 -249 681 -262 q 642 -210 650 -235 q 634 -149 634 -184 q 645 -70 634 -109 q 676 0 656 -31 l 675 0 q 581 -109 616 -54 q 545 -219 545 -165 q 574 -290 545 -262 q 646 -317 602 -317 z "},"B":{"ha":791,"x_min":36,"x_max":850,"o":"m 794 294 q 759 407 794 356 q 656 490 724 458 q 488 523 589 521 q 603 536 541 525 q 722 574 665 548 q 814 646 778 600 q 850 762 850 691 q 763 918 850 857 q 519 979 676 979 l 243 979 l 243 979 q 286 966 272 975 q 301 940 299 958 q 296 888 303 922 l 126 91 q 110 40 119 58 q 83 13 100 22 q 36 1 66 5 l 36 0 l 311 0 q 583 41 475 0 q 742 150 690 83 q 794 294 794 217 m 654 298 q 618 163 654 230 q 504 52 582 97 q 300 3 426 7 l 238 1 l 349 523 l 463 521 q 565 489 522 520 q 631 408 608 458 q 654 298 654 358 m 715 768 q 687 650 715 705 q 603 561 659 595 q 463 525 547 526 l 349 524 l 446 979 l 508 977 q 664 915 613 973 q 715 768 715 856 z "},"Ḇ":{"ha":791,"x_min":36,"x_max":850,"o":"m 794 294 q 759 407 794 356 q 656 490 724 458 q 488 523 589 521 q 603 536 541 525 q 722 574 665 548 q 814 646 778 600 q 850 762 850 691 q 763 918 850 857 q 519 979 676 979 l 243 979 l 243 979 q 286 966 272 975 q 301 940 299 958 q 296 888 303 922 l 126 91 q 110 40 119 58 q 83 13 100 22 q 36 1 66 5 l 36 0 l 311 0 q 583 41 475 0 q 742 150 690 83 q 794 294 794 217 m 654 298 q 618 163 654 230 q 504 52 582 97 q 300 3 426 7 l 238 1 l 349 523 l 463 521 q 565 489 522 520 q 631 408 608 458 q 654 298 654 358 m 715 768 q 687 650 715 705 q 603 561 659 595 q 463 525 547 526 l 349 524 l 446 979 l 508 977 q 664 915 613 973 q 715 768 715 856 z "},"Ḃ":{"ha":791,"x_min":36,"x_max":850,"o":"m 794 294 q 759 407 794 356 q 656 490 724 458 q 488 523 589 521 q 603 536 541 525 q 722 574 665 548 q 814 646 778 600 q 850 762 850 691 q 763 918 850 857 q 519 979 676 979 l 243 979 l 243 979 q 286 966 272 975 q 301 940 299 958 q 296 888 303 922 l 126 91 q 110 40 119 58 q 83 13 100 22 q 36 1 66 5 l 36 0 l 311 0 q 583 41 475 0 q 742 150 690 83 q 794 294 794 217 m 654 298 q 618 163 654 230 q 504 52 582 97 q 300 3 426 7 l 238 1 l 349 523 l 463 521 q 565 489 522 520 q 631 408 608 458 q 654 298 654 358 m 715 768 q 687 650 715 705 q 603 561 659 595 q 463 525 547 526 l 349 524 l 446 979 l 508 977 q 664 915 613 973 q 715 768 715 856 m 564 1057 q 605 1074 589 1057 q 621 1113 621 1090 q 605 1152 621 1136 q 566 1168 589 1168 q 526 1152 543 1168 q 509 1113 509 1136 q 526 1074 509 1090 q 564 1057 542 1057 z "},"Ḅ":{"ha":791,"x_min":36,"x_max":850,"o":"m 794 294 q 759 407 794 356 q 656 490 724 458 q 488 523 589 521 q 603 536 541 525 q 722 574 665 548 q 814 646 778 600 q 850 762 850 691 q 763 918 850 857 q 519 979 676 979 l 243 979 l 243 979 q 286 966 272 975 q 301 940 299 958 q 296 888 303 922 l 126 91 q 110 40 119 58 q 83 13 100 22 q 36 1 66 5 l 36 0 l 311 0 q 583 41 475 0 q 742 150 690 83 q 794 294 794 217 m 654 298 q 618 163 654 230 q 504 52 582 97 q 300 3 426 7 l 238 1 l 349 523 l 463 521 q 565 489 522 520 q 631 408 608 458 q 654 298 654 358 m 715 768 q 687 650 715 705 q 603 561 659 595 q 463 525 547 526 l 349 524 l 446 979 l 508 977 q 664 915 613 973 q 715 768 715 856 m 342 -130 q 301 -146 317 -130 q 285 -186 285 -163 q 301 -225 285 -209 q 340 -241 317 -241 q 380 -225 363 -241 q 397 -186 397 -209 q 380 -146 397 -163 q 342 -130 364 -130 z "},"C":{"ha":895,"x_min":168,"x_max":1000,"o":"m 573 -6 q 438 48 497 -6 q 345 193 378 103 q 311 389 311 283 q 329 575 311 486 q 379 738 346 663 q 462 868 413 813 q 573 954 511 924 q 712 985 636 985 q 836 958 781 985 q 922 866 890 931 q 956 684 954 800 l 956 684 l 1000 903 q 920 945 967 926 q 813 976 872 964 q 685 988 753 988 q 485 951 578 988 q 321 844 391 914 q 211 672 251 773 q 169 441 170 570 q 202 240 168 325 q 294 99 236 155 q 425 17 353 44 q 571 -9 496 -9 q 727 6 659 -9 q 848 56 794 22 l 891 275 l 890 275 q 840 168 871 218 q 767 78 808 117 q 677 16 726 39 q 573 -6 629 -6 z "},"Ć":{"ha":895,"x_min":168,"x_max":1000,"o":"m 573 -6 q 438 48 497 -6 q 345 193 378 103 q 311 389 311 283 q 329 575 311 486 q 379 738 346 663 q 462 868 413 813 q 573 954 511 924 q 712 985 636 985 q 836 958 781 985 q 922 866 890 931 q 956 684 954 800 l 956 684 l 1000 903 q 920 945 967 926 q 813 976 872 964 q 685 988 753 988 q 485 951 578 988 q 321 844 391 914 q 211 672 251 773 q 169 441 170 570 q 202 240 168 325 q 294 99 236 155 q 425 17 353 44 q 571 -9 496 -9 q 727 6 659 -9 q 848 56 794 22 l 891 275 l 890 275 q 840 168 871 218 q 767 78 808 117 q 677 16 726 39 q 573 -6 629 -6 m 833 1200 l 709 1025 l 711 1025 l 962 1199 l 962 1200 l 833 1200 z "},"Ĉ":{"ha":895,"x_min":168,"x_max":1000,"o":"m 573 -6 q 438 48 497 -6 q 345 193 378 103 q 311 389 311 283 q 329 575 311 486 q 379 738 346 663 q 462 868 413 813 q 573 954 511 924 q 712 985 636 985 q 836 958 781 985 q 922 866 890 931 q 956 684 954 800 l 956 684 l 1000 903 q 920 945 967 926 q 813 976 872 964 q 685 988 753 988 q 485 951 578 988 q 321 844 391 914 q 211 672 251 773 q 169 441 170 570 q 202 240 168 325 q 294 99 236 155 q 425 17 353 44 q 571 -9 496 -9 q 727 6 659 -9 q 848 56 794 22 l 891 275 l 890 275 q 840 168 871 218 q 767 78 808 117 q 677 16 726 39 q 573 -6 629 -6 m 611 1025 l 806 1152 l 756 1152 l 895 1025 l 897 1025 l 818 1200 l 759 1200 l 610 1025 l 611 1025 z "},"Č":{"ha":895,"x_min":168,"x_max":1000,"o":"m 573 -6 q 438 48 497 -6 q 345 193 378 103 q 311 389 311 283 q 329 575 311 486 q 379 738 346 663 q 462 868 413 813 q 573 954 511 924 q 712 985 636 985 q 836 958 781 985 q 922 866 890 931 q 956 684 954 800 l 956 684 l 1000 903 q 920 945 967 926 q 813 976 872 964 q 685 988 753 988 q 485 951 578 988 q 321 844 391 914 q 211 672 251 773 q 169 441 170 570 q 202 240 168 325 q 294 99 236 155 q 425 17 353 44 q 571 -9 496 -9 q 727 6 659 -9 q 848 56 794 22 l 891 275 l 890 275 q 840 168 871 218 q 767 78 808 117 q 677 16 726 39 q 573 -6 629 -6 m 924 1208 l 735 1080 l 784 1080 l 650 1208 l 649 1208 l 726 1036 l 780 1036 l 926 1208 l 924 1208 z "},"Ċ":{"ha":895,"x_min":168,"x_max":1000,"o":"m 573 -6 q 438 48 497 -6 q 345 193 378 103 q 311 389 311 283 q 329 575 311 486 q 379 738 346 663 q 462 868 413 813 q 573 954 511 924 q 712 985 636 985 q 836 958 781 985 q 922 866 890 931 q 956 684 954 800 l 956 684 l 1000 903 q 920 945 967 926 q 813 976 872 964 q 685 988 753 988 q 485 951 578 988 q 321 844 391 914 q 211 672 251 773 q 169 441 170 570 q 202 240 168 325 q 294 99 236 155 q 425 17 353 44 q 571 -9 496 -9 q 727 6 659 -9 q 848 56 794 22 l 891 275 l 890 275 q 840 168 871 218 q 767 78 808 117 q 677 16 726 39 q 573 -6 629 -6 m 766 1057 q 807 1074 791 1057 q 823 1113 823 1090 q 807 1152 823 1136 q 768 1168 791 1168 q 728 1152 745 1168 q 711 1113 711 1136 q 728 1074 711 1090 q 766 1057 744 1057 z "},"Ç":{"ha":895,"x_min":168,"x_max":1000,"o":"m 573 -6 q 438 48 497 -6 q 345 193 378 103 q 311 389 311 283 q 329 575 311 486 q 379 738 346 663 q 462 868 413 813 q 573 954 511 924 q 712 985 636 985 q 836 958 781 985 q 922 866 890 931 q 956 684 954 800 l 956 684 l 1000 903 q 920 945 967 926 q 813 976 872 964 q 685 988 753 988 q 485 951 578 988 q 321 844 391 914 q 211 672 251 773 q 169 441 170 570 q 202 240 168 325 q 294 99 236 155 q 425 17 353 44 q 571 -9 496 -9 q 727 6 659 -9 q 848 56 794 22 l 891 275 l 890 275 q 840 168 871 218 q 767 78 808 117 q 677 16 726 39 q 573 -6 629 -6 m 509 -277 q 595 -249 562 -277 q 627 -177 627 -220 q 599 -108 627 -135 q 530 -81 571 -81 q 499 -85 514 -81 q 477 -95 484 -89 l 475 -98 l 552 -9 l 552 -7 l 551 -7 l 451 -124 l 451 -125 q 461 -122 455 -123 q 477 -121 468 -121 q 517 -136 500 -121 q 534 -177 534 -151 q 517 -217 534 -202 q 473 -233 500 -233 q 427 -222 450 -233 q 391 -195 404 -212 l 391 -195 q 433 -253 404 -229 q 509 -277 462 -277 z "},"Ḉ":{"ha":895,"x_min":168,"x_max":1000,"o":"m 573 -6 q 438 48 497 -6 q 345 193 378 103 q 311 389 311 283 q 329 575 311 486 q 379 738 346 663 q 462 868 413 813 q 573 954 511 924 q 712 985 636 985 q 836 958 781 985 q 922 866 890 931 q 956 684 954 800 l 956 684 l 1000 903 q 920 945 967 926 q 813 976 872 964 q 685 988 753 988 q 485 951 578 988 q 321 844 391 914 q 211 672 251 773 q 169 441 170 570 q 202 240 168 325 q 294 99 236 155 q 425 17 353 44 q 571 -9 496 -9 q 727 6 659 -9 q 848 56 794 22 l 891 275 l 890 275 q 840 168 871 218 q 767 78 808 117 q 677 16 726 39 q 573 -6 629 -6 m 509 -277 q 595 -249 562 -277 q 627 -177 627 -220 q 599 -108 627 -135 q 530 -81 571 -81 q 499 -85 514 -81 q 477 -95 484 -89 l 475 -98 l 552 -9 l 552 -7 l 551 -7 l 451 -124 l 451 -125 q 461 -122 455 -123 q 477 -121 468 -121 q 517 -136 500 -121 q 534 -177 534 -151 q 517 -217 534 -202 q 473 -233 500 -233 q 427 -222 450 -233 q 391 -195 404 -212 l 391 -195 q 433 -253 404 -229 q 509 -277 462 -277 m 833 1200 l 709 1025 l 711 1025 l 962 1199 l 962 1200 l 833 1200 z "},"D":{"ha":939,"x_min":36,"x_max":989,"o":"m 989 564 q 930 784 989 691 q 764 928 871 878 q 509 979 656 979 l 243 979 l 243 979 q 286 966 272 975 q 301 940 299 958 q 296 888 303 922 l 126 91 q 110 40 119 58 q 83 13 100 22 q 36 1 66 5 l 36 0 l 302 0 q 562 38 438 0 q 782 150 686 77 q 933 328 878 223 q 989 564 989 432 m 846 583 q 828 430 846 509 q 771 277 810 351 q 669 143 732 203 q 515 46 606 83 q 302 3 424 9 l 237 1 l 446 979 l 509 976 q 702 917 627 971 q 811 775 777 863 q 846 583 846 688 z "},"Ḓ":{"ha":939,"x_min":36,"x_max":989,"o":"m 989 564 q 930 784 989 691 q 764 928 871 878 q 509 979 656 979 l 243 979 l 243 979 q 286 966 272 975 q 301 940 299 958 q 296 888 303 922 l 126 91 q 110 40 119 58 q 83 13 100 22 q 36 1 66 5 l 36 0 l 302 0 q 562 38 438 0 q 782 150 686 77 q 933 328 878 223 q 989 564 989 432 m 846 583 q 828 430 846 509 q 771 277 810 351 q 669 143 732 203 q 515 46 606 83 q 302 3 424 9 l 237 1 l 446 979 l 509 976 q 702 917 627 971 q 811 775 777 863 q 846 583 846 688 z "},"Ď":{"ha":939,"x_min":36,"x_max":989,"o":"m 989 564 q 930 784 989 691 q 764 928 871 878 q 509 979 656 979 l 243 979 l 243 979 q 286 966 272 975 q 301 940 299 958 q 296 888 303 922 l 126 91 q 110 40 119 58 q 83 13 100 22 q 36 1 66 5 l 36 0 l 302 0 q 562 38 438 0 q 782 150 686 77 q 933 328 878 223 q 989 564 989 432 m 846 583 q 828 430 846 509 q 771 277 810 351 q 669 143 732 203 q 515 46 606 83 q 302 3 424 9 l 237 1 l 446 979 l 509 976 q 702 917 627 971 q 811 775 777 863 q 846 583 846 688 m 843 1208 l 654 1080 l 703 1080 l 569 1208 l 568 1208 l 645 1036 l 699 1036 l 844 1208 l 843 1208 z "},"Ḏ":{"ha":939,"x_min":36,"x_max":989,"o":"m 989 564 q 930 784 989 691 q 764 928 871 878 q 509 979 656 979 l 243 979 l 243 979 q 286 966 272 975 q 301 940 299 958 q 296 888 303 922 l 126 91 q 110 40 119 58 q 83 13 100 22 q 36 1 66 5 l 36 0 l 302 0 q 562 38 438 0 q 782 150 686 77 q 933 328 878 223 q 989 564 989 432 m 846 583 q 828 430 846 509 q 771 277 810 351 q 669 143 732 203 q 515 46 606 83 q 302 3 424 9 l 237 1 l 446 979 l 509 976 q 702 917 627 971 q 811 775 777 863 q 846 583 846 688 z "},"Ḋ":{"ha":939,"x_min":36,"x_max":989,"o":"m 989 564 q 930 784 989 691 q 764 928 871 878 q 509 979 656 979 l 243 979 l 243 979 q 286 966 272 975 q 301 940 299 958 q 296 888 303 922 l 126 91 q 110 40 119 58 q 83 13 100 22 q 36 1 66 5 l 36 0 l 302 0 q 562 38 438 0 q 782 150 686 77 q 933 328 878 223 q 989 564 989 432 m 846 583 q 828 430 846 509 q 771 277 810 351 q 669 143 732 203 q 515 46 606 83 q 302 3 424 9 l 237 1 l 446 979 l 509 976 q 702 917 627 971 q 811 775 777 863 q 846 583 846 688 m 685 1057 q 726 1074 709 1057 q 742 1113 742 1090 q 726 1152 742 1136 q 687 1168 710 1168 q 647 1152 663 1168 q 630 1113 630 1136 q 646 1074 630 1090 q 685 1057 663 1057 z "},"Ḍ":{"ha":939,"x_min":36,"x_max":989,"o":"m 989 564 q 930 784 989 691 q 764 928 871 878 q 509 979 656 979 l 243 979 l 243 979 q 286 966 272 975 q 301 940 299 958 q 296 888 303 922 l 126 91 q 110 40 119 58 q 83 13 100 22 q 36 1 66 5 l 36 0 l 302 0 q 562 38 438 0 q 782 150 686 77 q 933 328 878 223 q 989 564 989 432 m 846 583 q 828 430 846 509 q 771 277 810 351 q 669 143 732 203 q 515 46 606 83 q 302 3 424 9 l 237 1 l 446 979 l 509 976 q 702 917 627 971 q 811 775 777 863 q 846 583 846 688 m 399 -130 q 359 -146 375 -130 q 342 -186 342 -163 q 358 -225 342 -209 q 397 -241 374 -241 q 438 -225 421 -241 q 454 -186 454 -209 q 438 -146 454 -163 q 399 -130 422 -130 z "},"Ḑ":{"ha":939,"x_min":36,"x_max":989,"o":"m 989 564 q 930 784 989 691 q 764 928 871 878 q 509 979 656 979 l 243 979 l 243 979 q 286 966 272 975 q 301 940 299 958 q 296 888 303 922 l 126 91 q 110 40 119 58 q 83 13 100 22 q 36 1 66 5 l 36 0 l 302 0 q 562 38 438 0 q 782 150 686 77 q 933 328 878 223 q 989 564 989 432 m 846 583 q 828 430 846 509 q 771 277 810 351 q 669 143 732 203 q 515 46 606 83 q 302 3 424 9 l 237 1 l 446 979 l 509 976 q 702 917 627 971 q 811 775 777 863 q 846 583 846 688 m 391 -277 q 479 -250 444 -277 q 514 -183 514 -223 q 485 -112 514 -136 q 425 -88 456 -88 q 367 -101 393 -88 q 326 -136 342 -114 l 326 -137 q 343 -133 334 -134 q 363 -131 353 -131 q 405 -143 387 -131 q 422 -184 422 -156 q 405 -224 422 -211 q 357 -238 387 -238 q 311 -226 330 -238 q 283 -200 292 -214 l 283 -201 q 321 -255 294 -232 q 391 -277 347 -277 z "},"Ð":{"ha":939,"x_min":36,"x_max":993,"o":"m 993 564 q 933 784 993 691 q 765 928 873 878 q 509 979 656 979 l 243 979 l 243 979 q 286 966 272 975 q 301 940 299 958 q 296 888 303 922 l 126 91 q 110 40 119 58 q 83 13 100 22 q 36 1 66 5 l 36 0 l 302 0 q 562 38 438 0 q 784 150 686 77 q 937 328 881 223 q 993 564 993 432 m 846 583 q 828 430 846 509 q 771 277 810 351 q 669 143 732 203 q 515 46 606 83 q 302 3 424 9 l 237 1 l 446 979 l 509 976 q 702 917 627 971 q 811 775 777 863 q 846 583 846 688 m 142 500 l 532 500 l 533 504 l 142 504 l 142 500 z "},"E":{"ha":745,"x_min":58,"x_max":872,"o":"m 872 979 l 265 979 l 265 979 q 307 966 294 975 q 323 940 321 958 q 317 888 325 922 l 148 91 q 131 40 141 58 q 104 13 121 22 q 58 1 87 5 l 58 0 l 705 0 l 769 240 l 768 240 q 709 134 740 177 q 639 63 679 90 q 544 23 600 37 q 411 7 489 10 l 260 1 l 366 501 l 522 496 q 608 478 581 494 q 645 433 636 463 q 653 355 653 402 l 654 355 l 712 630 l 711 630 q 674 562 695 588 q 618 523 654 536 q 524 508 583 510 l 366 503 l 467 979 l 594 972 q 742 950 692 968 q 813 890 793 933 q 839 763 833 846 l 840 763 l 872 979 z "},"É":{"ha":745,"x_min":58,"x_max":872,"o":"m 872 979 l 265 979 l 265 979 q 307 966 294 975 q 323 940 321 958 q 317 888 325 922 l 148 91 q 131 40 141 58 q 104 13 121 22 q 58 1 87 5 l 58 0 l 705 0 l 769 240 l 768 240 q 709 134 740 177 q 639 63 679 90 q 544 23 600 37 q 411 7 489 10 l 260 1 l 366 501 l 522 496 q 608 478 581 494 q 645 433 636 463 q 653 355 653 402 l 654 355 l 712 630 l 711 630 q 674 562 695 588 q 618 523 654 536 q 524 508 583 510 l 366 503 l 467 979 l 594 972 q 742 950 692 968 q 813 890 793 933 q 839 763 833 846 l 840 763 l 872 979 m 696 1200 l 572 1025 l 573 1025 l 824 1199 l 824 1200 l 696 1200 z "},"È":{"ha":745,"x_min":58,"x_max":872,"o":"m 872 979 l 265 979 l 265 979 q 307 966 294 975 q 323 940 321 958 q 317 888 325 922 l 148 91 q 131 40 141 58 q 104 13 121 22 q 58 1 87 5 l 58 0 l 705 0 l 769 240 l 768 240 q 709 134 740 177 q 639 63 679 90 q 544 23 600 37 q 411 7 489 10 l 260 1 l 366 501 l 522 496 q 608 478 581 494 q 645 433 636 463 q 653 355 653 402 l 654 355 l 712 630 l 711 630 q 674 562 695 588 q 618 523 654 536 q 524 508 583 510 l 366 503 l 467 979 l 594 972 q 742 950 692 968 q 813 890 793 933 q 839 763 833 846 l 840 763 l 872 979 m 597 1199 l 482 1199 l 482 1198 l 658 1024 l 659 1024 l 597 1199 z "},"Ȅ":{"ha":745,"x_min":58,"x_max":872,"o":"m 872 979 l 265 979 l 265 979 q 307 966 294 975 q 323 940 321 958 q 317 888 325 922 l 148 91 q 131 40 141 58 q 104 13 121 22 q 58 1 87 5 l 58 0 l 705 0 l 769 240 l 768 240 q 709 134 740 177 q 639 63 679 90 q 544 23 600 37 q 411 7 489 10 l 260 1 l 366 501 l 522 496 q 608 478 581 494 q 645 433 636 463 q 653 355 653 402 l 654 355 l 712 630 l 711 630 q 674 562 695 588 q 618 523 654 536 q 524 508 583 510 l 366 503 l 467 979 l 594 972 q 742 950 692 968 q 813 890 793 933 q 839 763 833 846 l 840 763 l 872 979 m 479 1199 l 372 1199 l 372 1198 l 552 1024 l 553 1024 l 479 1199 m 664 1199 l 560 1199 l 560 1198 l 711 1024 l 713 1024 l 664 1199 z "},"Ê":{"ha":745,"x_min":58,"x_max":872,"o":"m 872 979 l 265 979 l 265 979 q 307 966 294 975 q 323 940 321 958 q 317 888 325 922 l 148 91 q 131 40 141 58 q 104 13 121 22 q 58 1 87 5 l 58 0 l 705 0 l 769 240 l 768 240 q 709 134 740 177 q 639 63 679 90 q 544 23 600 37 q 411 7 489 10 l 260 1 l 366 501 l 522 496 q 608 478 581 494 q 645 433 636 463 q 653 355 653 402 l 654 355 l 712 630 l 711 630 q 674 562 695 588 q 618 523 654 536 q 524 508 583 510 l 366 503 l 467 979 l 594 972 q 742 950 692 968 q 813 890 793 933 q 839 763 833 846 l 840 763 l 872 979 m 473 1025 l 669 1152 l 618 1152 l 758 1025 l 759 1025 l 680 1200 l 621 1200 l 473 1025 l 473 1025 z "},"Ế":{"ha":745,"x_min":58,"x_max":872,"o":"m 872 979 l 265 979 l 265 979 q 307 966 294 975 q 323 940 321 958 q 317 888 325 922 l 148 91 q 131 40 141 58 q 104 13 121 22 q 58 1 87 5 l 58 0 l 705 0 l 769 240 l 768 240 q 709 134 740 177 q 639 63 679 90 q 544 23 600 37 q 411 7 489 10 l 260 1 l 366 501 l 522 496 q 608 478 581 494 q 645 433 636 463 q 653 355 653 402 l 654 355 l 712 630 l 711 630 q 674 562 695 588 q 618 523 654 536 q 524 508 583 510 l 366 503 l 467 979 l 594 972 q 742 950 692 968 q 813 890 793 933 q 839 763 833 846 l 840 763 l 872 979 m 458 1031 l 632 1093 l 616 1093 l 764 1031 l 764 1031 l 643 1158 l 632 1158 l 458 1031 l 458 1031 m 806 1225 l 821 1296 l 490 1177 l 490 1177 l 806 1225 z "},"Ề":{"ha":745,"x_min":58,"x_max":872,"o":"m 872 979 l 265 979 l 265 979 q 307 966 294 975 q 323 940 321 958 q 317 888 325 922 l 148 91 q 131 40 141 58 q 104 13 121 22 q 58 1 87 5 l 58 0 l 705 0 l 769 240 l 768 240 q 709 134 740 177 q 639 63 679 90 q 544 23 600 37 q 411 7 489 10 l 260 1 l 366 501 l 522 496 q 608 478 581 494 q 645 433 636 463 q 653 355 653 402 l 654 355 l 712 630 l 711 630 q 674 562 695 588 q 618 523 654 536 q 524 508 583 510 l 366 503 l 467 979 l 594 972 q 742 950 692 968 q 813 890 793 933 q 839 763 833 846 l 840 763 l 872 979 m 458 1031 l 632 1093 l 616 1093 l 764 1031 l 764 1031 l 643 1158 l 632 1158 l 458 1031 l 458 1031 m 500 1225 l 796 1177 l 796 1177 l 515 1296 l 500 1225 z "},"Ễ":{"ha":745,"x_min":58,"x_max":872,"o":"m 872 979 l 265 979 l 265 979 q 307 966 294 975 q 323 940 321 958 q 317 888 325 922 l 148 91 q 131 40 141 58 q 104 13 121 22 q 58 1 87 5 l 58 0 l 705 0 l 769 240 l 768 240 q 709 134 740 177 q 639 63 679 90 q 544 23 600 37 q 411 7 489 10 l 260 1 l 366 501 l 522 496 q 608 478 581 494 q 645 433 636 463 q 653 355 653 402 l 654 355 l 712 630 l 711 630 q 674 562 695 588 q 618 523 654 536 q 524 508 583 510 l 366 503 l 467 979 l 594 972 q 742 950 692 968 q 813 890 793 933 q 839 763 833 846 l 840 763 l 872 979 m 458 1031 l 632 1093 l 616 1093 l 764 1031 l 764 1031 l 643 1158 l 632 1158 l 458 1031 l 458 1031 m 717 1197 q 783 1221 757 1197 q 820 1290 810 1245 l 819 1290 q 795 1254 812 1264 q 754 1243 779 1243 q 725 1246 740 1243 q 691 1256 710 1250 l 673 1262 q 636 1272 656 1267 q 593 1276 616 1276 q 527 1252 553 1276 q 491 1183 500 1227 l 492 1183 q 515 1219 498 1208 q 556 1230 532 1230 q 586 1226 570 1230 q 620 1217 601 1223 l 637 1211 q 675 1201 655 1205 q 717 1197 694 1197 z "},"Ể":{"ha":745,"x_min":58,"x_max":873,"o":"m 872 979 l 265 979 l 265 979 q 307 966 294 975 q 323 940 321 958 q 317 888 325 922 l 148 91 q 131 40 141 58 q 104 13 121 22 q 58 1 87 5 l 58 0 l 705 0 l 769 240 l 768 240 q 709 134 740 177 q 639 63 679 90 q 544 23 600 37 q 411 7 489 10 l 260 1 l 366 501 l 522 496 q 608 478 581 494 q 645 433 636 463 q 653 355 653 402 l 654 355 l 712 630 l 711 630 q 674 562 695 588 q 618 523 654 536 q 524 508 583 510 l 366 503 l 467 979 l 594 972 q 742 950 692 968 q 813 890 793 933 q 839 763 833 846 l 840 763 l 872 979 m 458 1031 l 632 1093 l 616 1093 l 764 1031 l 764 1031 l 643 1158 l 632 1158 l 458 1031 l 458 1031 m 796 1265 q 732 1248 758 1265 q 692 1214 707 1231 l 692 1213 q 714 1223 701 1219 q 745 1227 728 1227 q 785 1216 771 1227 q 795 1186 800 1205 q 776 1155 791 1168 q 735 1134 760 1141 l 735 1133 q 829 1159 797 1143 q 867 1203 861 1175 q 851 1248 873 1231 q 796 1265 830 1265 z "},"Ệ":{"ha":745,"x_min":58,"x_max":872,"o":"m 872 979 l 265 979 l 265 979 q 307 966 294 975 q 323 940 321 958 q 317 888 325 922 l 148 91 q 131 40 141 58 q 104 13 121 22 q 58 1 87 5 l 58 0 l 705 0 l 769 240 l 768 240 q 709 134 740 177 q 639 63 679 90 q 544 23 600 37 q 411 7 489 10 l 260 1 l 366 501 l 522 496 q 608 478 581 494 q 645 433 636 463 q 653 355 653 402 l 654 355 l 712 630 l 711 630 q 674 562 695 588 q 618 523 654 536 q 524 508 583 510 l 366 503 l 467 979 l 594 972 q 742 950 692 968 q 813 890 793 933 q 839 763 833 846 l 840 763 l 872 979 m 473 1025 l 669 1152 l 618 1152 l 758 1025 l 759 1025 l 680 1200 l 621 1200 l 473 1025 l 473 1025 m 342 -130 q 301 -146 317 -130 q 285 -186 285 -163 q 301 -225 285 -209 q 340 -241 317 -241 q 380 -225 363 -241 q 397 -186 397 -209 q 380 -146 397 -163 q 342 -130 364 -130 z "},"Ḙ":{"ha":745,"x_min":58,"x_max":872,"o":"m 872 979 l 265 979 l 265 979 q 307 966 294 975 q 323 940 321 958 q 317 888 325 922 l 148 91 q 131 40 141 58 q 104 13 121 22 q 58 1 87 5 l 58 0 l 705 0 l 769 240 l 768 240 q 709 134 740 177 q 639 63 679 90 q 544 23 600 37 q 411 7 489 10 l 260 1 l 366 501 l 522 496 q 608 478 581 494 q 645 433 636 463 q 653 355 653 402 l 654 355 l 712 630 l 711 630 q 674 562 695 588 q 618 523 654 536 q 524 508 583 510 l 366 503 l 467 979 l 594 972 q 742 950 692 968 q 813 890 793 933 q 839 763 833 846 l 840 763 l 872 979 z "},"Ě":{"ha":745,"x_min":58,"x_max":872,"o":"m 872 979 l 265 979 l 265 979 q 307 966 294 975 q 323 940 321 958 q 317 888 325 922 l 148 91 q 131 40 141 58 q 104 13 121 22 q 58 1 87 5 l 58 0 l 705 0 l 769 240 l 768 240 q 709 134 740 177 q 639 63 679 90 q 544 23 600 37 q 411 7 489 10 l 260 1 l 366 501 l 522 496 q 608 478 581 494 q 645 433 636 463 q 653 355 653 402 l 654 355 l 712 630 l 711 630 q 674 562 695 588 q 618 523 654 536 q 524 508 583 510 l 366 503 l 467 979 l 594 972 q 742 950 692 968 q 813 890 793 933 q 839 763 833 846 l 840 763 l 872 979 m 787 1208 l 597 1080 l 646 1080 l 513 1208 l 511 1208 l 589 1036 l 642 1036 l 788 1208 l 787 1208 z "},"Ĕ":{"ha":745,"x_min":58,"x_max":872,"o":"m 872 979 l 265 979 l 265 979 q 307 966 294 975 q 323 940 321 958 q 317 888 325 922 l 148 91 q 131 40 141 58 q 104 13 121 22 q 58 1 87 5 l 58 0 l 705 0 l 769 240 l 768 240 q 709 134 740 177 q 639 63 679 90 q 544 23 600 37 q 411 7 489 10 l 260 1 l 366 501 l 522 496 q 608 478 581 494 q 645 433 636 463 q 653 355 653 402 l 654 355 l 712 630 l 711 630 q 674 562 695 588 q 618 523 654 536 q 524 508 583 510 l 366 503 l 467 979 l 594 972 q 742 950 692 968 q 813 890 793 933 q 839 763 833 846 l 840 763 l 872 979 m 634 1072 q 713 1093 680 1072 q 767 1153 747 1114 q 790 1249 787 1193 l 789 1249 q 742 1171 779 1199 q 635 1143 706 1143 q 555 1167 586 1143 q 524 1230 524 1191 q 524 1240 524 1235 q 526 1249 525 1244 l 526 1249 q 516 1218 519 1234 q 513 1187 513 1202 q 529 1128 513 1154 q 571 1086 544 1101 q 634 1072 598 1072 z "},"Ȇ":{"ha":745,"x_min":58,"x_max":872,"o":"m 872 979 l 265 979 l 265 979 q 307 966 294 975 q 323 940 321 958 q 317 888 325 922 l 148 91 q 131 40 141 58 q 104 13 121 22 q 58 1 87 5 l 58 0 l 705 0 l 769 240 l 768 240 q 709 134 740 177 q 639 63 679 90 q 544 23 600 37 q 411 7 489 10 l 260 1 l 366 501 l 522 496 q 608 478 581 494 q 645 433 636 463 q 653 355 653 402 l 654 355 l 712 630 l 711 630 q 674 562 695 588 q 618 523 654 536 q 524 508 583 510 l 366 503 l 467 979 l 594 972 q 742 950 692 968 q 813 890 793 933 q 839 763 833 846 l 840 763 l 872 979 m 645 1249 q 566 1227 600 1249 q 512 1167 532 1206 q 489 1072 492 1128 l 490 1072 q 537 1149 500 1121 q 644 1177 573 1177 q 725 1154 694 1177 q 755 1090 755 1130 q 755 1080 755 1085 q 753 1072 754 1076 l 753 1072 q 763 1102 760 1087 q 766 1133 766 1118 q 750 1193 766 1166 q 708 1234 735 1219 q 645 1249 681 1249 z "},"Ë":{"ha":745,"x_min":58,"x_max":872,"o":"m 872 979 l 265 979 l 265 979 q 307 966 294 975 q 323 940 321 958 q 317 888 325 922 l 148 91 q 131 40 141 58 q 104 13 121 22 q 58 1 87 5 l 58 0 l 705 0 l 769 240 l 768 240 q 709 134 740 177 q 639 63 679 90 q 544 23 600 37 q 411 7 489 10 l 260 1 l 366 501 l 522 496 q 608 478 581 494 q 645 433 636 463 q 653 355 653 402 l 654 355 l 712 630 l 711 630 q 674 562 695 588 q 618 523 654 536 q 524 508 583 510 l 366 503 l 467 979 l 594 972 q 742 950 692 968 q 813 890 793 933 q 839 763 833 846 l 840 763 l 872 979 z "},"Ẽ":{"ha":745,"x_min":58,"x_max":872,"o":"m 872 979 l 265 979 l 265 979 q 307 966 294 975 q 323 940 321 958 q 317 888 325 922 l 148 91 q 131 40 141 58 q 104 13 121 22 q 58 1 87 5 l 58 0 l 705 0 l 769 240 l 768 240 q 709 134 740 177 q 639 63 679 90 q 544 23 600 37 q 411 7 489 10 l 260 1 l 366 501 l 522 496 q 608 478 581 494 q 645 433 636 463 q 653 355 653 402 l 654 355 l 712 630 l 711 630 q 674 562 695 588 q 618 523 654 536 q 524 508 583 510 l 366 503 l 467 979 l 594 972 q 742 950 692 968 q 813 890 793 933 q 839 763 833 846 l 840 763 l 872 979 m 682 1069 q 722 1080 704 1069 q 752 1120 740 1092 q 771 1196 765 1147 l 770 1196 q 750 1143 762 1161 q 716 1125 737 1125 q 692 1131 703 1125 q 665 1149 681 1137 l 648 1161 q 617 1180 632 1173 q 583 1187 602 1187 q 543 1175 561 1187 q 513 1136 525 1163 q 494 1060 500 1108 l 494 1060 q 515 1112 503 1094 q 549 1131 528 1131 q 573 1124 562 1131 q 600 1107 584 1118 l 617 1095 q 648 1076 633 1083 q 682 1069 663 1069 z "},"Ḛ":{"ha":745,"x_min":58,"x_max":872,"o":"m 872 979 l 265 979 l 265 979 q 307 966 294 975 q 323 940 321 958 q 317 888 325 922 l 148 91 q 131 40 141 58 q 104 13 121 22 q 58 1 87 5 l 58 0 l 705 0 l 769 240 l 768 240 q 709 134 740 177 q 639 63 679 90 q 544 23 600 37 q 411 7 489 10 l 260 1 l 366 501 l 522 496 q 608 478 581 494 q 645 433 636 463 q 653 355 653 402 l 654 355 l 712 630 l 711 630 q 674 562 695 588 q 618 523 654 536 q 524 508 583 510 l 366 503 l 467 979 l 594 972 q 742 950 692 968 q 813 890 793 933 q 839 763 833 846 l 840 763 l 872 979 z "},"Ē":{"ha":745,"x_min":58,"x_max":872,"o":"m 872 979 l 265 979 l 265 979 q 307 966 294 975 q 323 940 321 958 q 317 888 325 922 l 148 91 q 131 40 141 58 q 104 13 121 22 q 58 1 87 5 l 58 0 l 705 0 l 769 240 l 768 240 q 709 134 740 177 q 639 63 679 90 q 544 23 600 37 q 411 7 489 10 l 260 1 l 366 501 l 522 496 q 608 478 581 494 q 645 433 636 463 q 653 355 653 402 l 654 355 l 712 630 l 711 630 q 674 562 695 588 q 618 523 654 536 q 524 508 583 510 l 366 503 l 467 979 l 594 972 q 742 950 692 968 q 813 890 793 933 q 839 763 833 846 l 840 763 l 872 979 m 488 1089 l 760 1089 l 772 1147 l 500 1147 l 488 1089 z "},"Ḗ":{"ha":745,"x_min":58,"x_max":872,"o":"m 872 979 l 265 979 l 265 979 q 307 966 294 975 q 323 940 321 958 q 317 888 325 922 l 148 91 q 131 40 141 58 q 104 13 121 22 q 58 1 87 5 l 58 0 l 705 0 l 769 240 l 768 240 q 709 134 740 177 q 639 63 679 90 q 544 23 600 37 q 411 7 489 10 l 260 1 l 366 501 l 522 496 q 608 478 581 494 q 645 433 636 463 q 653 355 653 402 l 654 355 l 712 630 l 711 630 q 674 562 695 588 q 618 523 654 536 q 524 508 583 510 l 366 503 l 467 979 l 594 972 q 742 950 692 968 q 813 890 793 933 q 839 763 833 846 l 840 763 l 872 979 m 472 1092 l 778 1092 l 788 1141 l 482 1141 l 472 1092 m 810 1241 l 825 1312 l 494 1193 l 494 1192 l 810 1241 z "},"Ḕ":{"ha":745,"x_min":58,"x_max":872,"o":"m 872 979 l 265 979 l 265 979 q 307 966 294 975 q 323 940 321 958 q 317 888 325 922 l 148 91 q 131 40 141 58 q 104 13 121 22 q 58 1 87 5 l 58 0 l 705 0 l 769 240 l 768 240 q 709 134 740 177 q 639 63 679 90 q 544 23 600 37 q 411 7 489 10 l 260 1 l 366 501 l 522 496 q 608 478 581 494 q 645 433 636 463 q 653 355 653 402 l 654 355 l 712 630 l 711 630 q 674 562 695 588 q 618 523 654 536 q 524 508 583 510 l 366 503 l 467 979 l 594 972 q 742 950 692 968 q 813 890 793 933 q 839 763 833 846 l 840 763 l 872 979 m 472 1092 l 778 1092 l 788 1141 l 482 1141 l 472 1092 m 504 1241 l 800 1192 l 800 1193 l 519 1312 l 504 1241 z "},"Ẻ":{"ha":745,"x_min":58,"x_max":872,"o":"m 872 979 l 265 979 l 265 979 q 307 966 294 975 q 323 940 321 958 q 317 888 325 922 l 148 91 q 131 40 141 58 q 104 13 121 22 q 58 1 87 5 l 58 0 l 705 0 l 769 240 l 768 240 q 709 134 740 177 q 639 63 679 90 q 544 23 600 37 q 411 7 489 10 l 260 1 l 366 501 l 522 496 q 608 478 581 494 q 645 433 636 463 q 653 355 653 402 l 654 355 l 712 630 l 711 630 q 674 562 695 588 q 618 523 654 536 q 524 508 583 510 l 366 503 l 467 979 l 594 972 q 742 950 692 968 q 813 890 793 933 q 839 763 833 846 l 840 763 l 872 979 m 649 1226 q 586 1208 614 1226 q 541 1158 557 1190 l 541 1157 q 571 1178 555 1171 q 606 1185 587 1185 q 648 1171 631 1185 q 665 1133 665 1157 q 643 1083 665 1108 q 574 1035 621 1059 l 575 1035 q 691 1088 654 1056 q 728 1158 728 1120 q 705 1208 728 1190 q 649 1226 682 1226 z "},"Ė":{"ha":745,"x_min":58,"x_max":872,"o":"m 872 979 l 265 979 l 265 979 q 307 966 294 975 q 323 940 321 958 q 317 888 325 922 l 148 91 q 131 40 141 58 q 104 13 121 22 q 58 1 87 5 l 58 0 l 705 0 l 769 240 l 768 240 q 709 134 740 177 q 639 63 679 90 q 544 23 600 37 q 411 7 489 10 l 260 1 l 366 501 l 522 496 q 608 478 581 494 q 645 433 636 463 q 653 355 653 402 l 654 355 l 712 630 l 711 630 q 674 562 695 588 q 618 523 654 536 q 524 508 583 510 l 366 503 l 467 979 l 594 972 q 742 950 692 968 q 813 890 793 933 q 839 763 833 846 l 840 763 l 872 979 m 629 1057 q 669 1074 653 1057 q 686 1113 686 1090 q 670 1152 686 1136 q 631 1168 654 1168 q 590 1152 607 1168 q 574 1113 574 1136 q 590 1074 574 1090 q 629 1057 606 1057 z "},"Ẹ":{"ha":745,"x_min":58,"x_max":872,"o":"m 872 979 l 265 979 l 265 979 q 307 966 294 975 q 323 940 321 958 q 317 888 325 922 l 148 91 q 131 40 141 58 q 104 13 121 22 q 58 1 87 5 l 58 0 l 705 0 l 769 240 l 768 240 q 709 134 740 177 q 639 63 679 90 q 544 23 600 37 q 411 7 489 10 l 260 1 l 366 501 l 522 496 q 608 478 581 494 q 645 433 636 463 q 653 355 653 402 l 654 355 l 712 630 l 711 630 q 674 562 695 588 q 618 523 654 536 q 524 508 583 510 l 366 503 l 467 979 l 594 972 q 742 950 692 968 q 813 890 793 933 q 839 763 833 846 l 840 763 l 872 979 m 342 -130 q 301 -146 317 -130 q 285 -186 285 -163 q 301 -225 285 -209 q 340 -241 317 -241 q 380 -225 363 -241 q 397 -186 397 -209 q 380 -146 397 -163 q 342 -130 364 -130 z "},"Ȩ":{"ha":745,"x_min":58,"x_max":872,"o":"m 872 979 l 265 979 l 265 979 q 307 966 294 975 q 323 940 321 958 q 317 888 325 922 l 148 91 q 131 40 141 58 q 104 13 121 22 q 58 1 87 5 l 58 0 l 705 0 l 769 240 l 768 240 q 709 134 740 177 q 639 63 679 90 q 544 23 600 37 q 411 7 489 10 l 260 1 l 366 501 l 522 496 q 608 478 581 494 q 645 433 636 463 q 653 355 653 402 l 654 355 l 712 630 l 711 630 q 674 562 695 588 q 618 523 654 536 q 524 508 583 510 l 366 503 l 467 979 l 594 972 q 742 950 692 968 q 813 890 793 933 q 839 763 833 846 l 840 763 l 872 979 m 339 -277 q 425 -249 392 -277 q 457 -177 457 -220 q 429 -108 457 -135 q 360 -81 401 -81 q 329 -85 344 -81 q 307 -95 314 -89 l 305 -98 l 382 -9 l 382 -7 l 380 -7 l 281 -124 l 281 -125 q 291 -122 285 -123 q 307 -121 298 -121 q 347 -136 330 -121 q 363 -177 363 -151 q 347 -217 363 -202 q 302 -233 330 -233 q 257 -222 279 -233 q 221 -195 234 -212 l 221 -195 q 263 -253 234 -229 q 339 -277 292 -277 z "},"Ḝ":{"ha":745,"x_min":58,"x_max":872,"o":"m 872 979 l 265 979 l 265 979 q 307 966 294 975 q 323 940 321 958 q 317 888 325 922 l 148 91 q 131 40 141 58 q 104 13 121 22 q 58 1 87 5 l 58 0 l 705 0 l 769 240 l 768 240 q 709 134 740 177 q 639 63 679 90 q 544 23 600 37 q 411 7 489 10 l 260 1 l 366 501 l 522 496 q 608 478 581 494 q 645 433 636 463 q 653 355 653 402 l 654 355 l 712 630 l 711 630 q 674 562 695 588 q 618 523 654 536 q 524 508 583 510 l 366 503 l 467 979 l 594 972 q 742 950 692 968 q 813 890 793 933 q 839 763 833 846 l 840 763 l 872 979 m 339 -277 q 425 -249 392 -277 q 457 -177 457 -220 q 429 -108 457 -135 q 360 -81 401 -81 q 329 -85 344 -81 q 307 -95 314 -89 l 305 -98 l 382 -9 l 382 -7 l 380 -7 l 281 -124 l 281 -125 q 291 -122 285 -123 q 307 -121 298 -121 q 347 -136 330 -121 q 363 -177 363 -151 q 347 -217 363 -202 q 302 -233 330 -233 q 257 -222 279 -233 q 221 -195 234 -212 l 221 -195 q 263 -253 234 -229 q 339 -277 292 -277 m 634 1072 q 713 1093 680 1072 q 767 1153 747 1114 q 790 1249 787 1193 l 789 1249 q 742 1171 779 1199 q 635 1143 706 1143 q 555 1167 586 1143 q 524 1230 524 1191 q 524 1240 524 1235 q 526 1249 525 1244 l 526 1249 q 516 1218 519 1234 q 513 1187 513 1202 q 529 1128 513 1154 q 571 1086 544 1101 q 634 1072 598 1072 z "},"Ę":{"ha":745,"x_min":58,"x_max":872,"o":"m 872 979 l 265 979 l 265 979 q 307 966 294 975 q 323 940 321 958 q 317 888 325 922 l 148 91 q 131 40 141 58 q 104 13 121 22 q 58 1 87 5 l 58 0 l 705 0 l 769 240 l 768 240 q 709 134 740 177 q 639 63 679 90 q 544 23 600 37 q 411 7 489 10 l 260 1 l 366 501 l 522 496 q 608 478 581 494 q 645 433 636 463 q 653 355 653 402 l 654 355 l 712 630 l 711 630 q 674 562 695 588 q 618 523 654 536 q 524 508 583 510 l 366 503 l 467 979 l 594 972 q 742 950 692 968 q 813 890 793 933 q 839 763 833 846 l 840 763 l 872 979 m 565 -317 q 629 -296 603 -317 q 667 -242 655 -275 l 667 -241 q 621 -262 648 -262 q 585 -249 600 -262 q 562 -210 570 -235 q 553 -149 553 -184 q 564 -70 553 -109 q 595 0 575 -31 l 595 0 q 500 -109 535 -54 q 465 -219 465 -165 q 493 -290 465 -262 q 565 -317 522 -317 z "},"F":{"ha":705,"x_min":58,"x_max":848,"o":"m 848 979 l 265 979 l 265 979 q 307 966 294 975 q 323 940 321 958 q 317 888 325 922 l 148 91 q 131 40 141 58 q 104 13 121 22 q 58 1 87 5 l 58 0 l 353 0 l 353 1 q 297 15 315 6 q 275 41 279 24 q 278 87 272 58 l 365 496 l 510 490 q 589 473 564 488 q 622 427 614 458 q 629 349 629 397 l 630 349 l 688 625 l 688 625 q 653 556 673 583 q 600 517 633 530 q 511 503 567 505 l 365 497 l 467 979 l 585 972 q 720 950 672 968 q 788 887 768 931 q 814 763 809 844 l 816 763 l 848 979 z "},"Ḟ":{"ha":705,"x_min":58,"x_max":848,"o":"m 848 979 l 265 979 l 265 979 q 307 966 294 975 q 323 940 321 958 q 317 888 325 922 l 148 91 q 131 40 141 58 q 104 13 121 22 q 58 1 87 5 l 58 0 l 353 0 l 353 1 q 297 15 315 6 q 275 41 279 24 q 278 87 272 58 l 365 496 l 510 490 q 589 473 564 488 q 622 427 614 458 q 629 349 629 397 l 630 349 l 688 625 l 688 625 q 653 556 673 583 q 600 517 633 530 q 511 503 567 505 l 365 497 l 467 979 l 585 972 q 720 950 672 968 q 788 887 768 931 q 814 763 809 844 l 816 763 l 848 979 m 596 1057 q 637 1074 621 1057 q 653 1113 653 1090 q 637 1152 653 1136 q 598 1168 621 1168 q 558 1152 574 1168 q 541 1113 541 1136 q 557 1074 541 1090 q 596 1057 574 1057 z "},"G":{"ha":952,"x_min":168,"x_max":1027,"o":"m 169 441 q 205 245 168 330 q 304 105 242 161 q 441 19 366 48 q 589 -9 515 -9 q 676 -4 635 -9 q 752 12 717 1 q 819 38 788 22 q 878 75 850 54 l 939 353 q 955 398 945 381 q 982 426 964 416 q 1027 440 999 436 l 1027 441 l 760 441 l 760 440 q 806 425 792 435 q 822 398 821 415 q 817 353 823 380 l 748 24 l 754 35 q 686 2 728 10 q 602 -7 645 -7 q 452 41 517 -7 q 349 179 386 90 q 311 389 311 268 q 329 575 311 486 q 380 738 347 663 q 463 868 414 813 q 575 954 512 924 q 715 985 639 985 q 840 958 785 985 q 927 866 895 931 q 961 684 960 800 l 962 684 l 1005 903 q 924 945 972 926 q 817 976 876 964 q 688 988 757 988 q 486 951 580 988 q 322 844 393 914 q 211 672 251 773 q 169 441 170 570 z "},"Ǵ":{"ha":952,"x_min":168,"x_max":1027,"o":"m 169 441 q 205 245 168 330 q 304 105 242 161 q 441 19 366 48 q 589 -9 515 -9 q 676 -4 635 -9 q 752 12 717 1 q 819 38 788 22 q 878 75 850 54 l 939 353 q 955 398 945 381 q 982 426 964 416 q 1027 440 999 436 l 1027 441 l 760 441 l 760 440 q 806 425 792 435 q 822 398 821 415 q 817 353 823 380 l 748 24 l 754 35 q 686 2 728 10 q 602 -7 645 -7 q 452 41 517 -7 q 349 179 386 90 q 311 389 311 268 q 329 575 311 486 q 380 738 347 663 q 463 868 414 813 q 575 954 512 924 q 715 985 639 985 q 840 958 785 985 q 927 866 895 931 q 961 684 960 800 l 962 684 l 1005 903 q 924 945 972 926 q 817 976 876 964 q 688 988 757 988 q 486 951 580 988 q 322 844 393 914 q 211 672 251 773 q 169 441 170 570 m 827 1200 l 703 1025 l 704 1025 l 955 1199 l 955 1200 l 827 1200 z "},"Ĝ":{"ha":952,"x_min":168,"x_max":1027,"o":"m 169 441 q 205 245 168 330 q 304 105 242 161 q 441 19 366 48 q 589 -9 515 -9 q 676 -4 635 -9 q 752 12 717 1 q 819 38 788 22 q 878 75 850 54 l 939 353 q 955 398 945 381 q 982 426 964 416 q 1027 440 999 436 l 1027 441 l 760 441 l 760 440 q 806 425 792 435 q 822 398 821 415 q 817 353 823 380 l 748 24 l 754 35 q 686 2 728 10 q 602 -7 645 -7 q 452 41 517 -7 q 349 179 386 90 q 311 389 311 268 q 329 575 311 486 q 380 738 347 663 q 463 868 414 813 q 575 954 512 924 q 715 985 639 985 q 840 958 785 985 q 927 866 895 931 q 961 684 960 800 l 962 684 l 1005 903 q 924 945 972 926 q 817 976 876 964 q 688 988 757 988 q 486 951 580 988 q 322 844 393 914 q 211 672 251 773 q 169 441 170 570 m 604 1025 l 800 1152 l 749 1152 l 888 1025 l 890 1025 l 811 1200 l 752 1200 l 604 1025 l 604 1025 z "},"Ǧ":{"ha":952,"x_min":168,"x_max":1027,"o":"m 169 441 q 205 245 168 330 q 304 105 242 161 q 441 19 366 48 q 589 -9 515 -9 q 676 -4 635 -9 q 752 12 717 1 q 819 38 788 22 q 878 75 850 54 l 939 353 q 955 398 945 381 q 982 426 964 416 q 1027 440 999 436 l 1027 441 l 760 441 l 760 440 q 806 425 792 435 q 822 398 821 415 q 817 353 823 380 l 748 24 l 754 35 q 686 2 728 10 q 602 -7 645 -7 q 452 41 517 -7 q 349 179 386 90 q 311 389 311 268 q 329 575 311 486 q 380 738 347 663 q 463 868 414 813 q 575 954 512 924 q 715 985 639 985 q 840 958 785 985 q 927 866 895 931 q 961 684 960 800 l 962 684 l 1005 903 q 924 945 972 926 q 817 976 876 964 q 688 988 757 988 q 486 951 580 988 q 322 844 393 914 q 211 672 251 773 q 169 441 170 570 m 918 1208 l 728 1080 l 777 1080 l 644 1208 l 642 1208 l 720 1036 l 773 1036 l 919 1208 l 918 1208 z "},"Ğ":{"ha":952,"x_min":168,"x_max":1027,"o":"m 169 441 q 205 245 168 330 q 304 105 242 161 q 441 19 366 48 q 589 -9 515 -9 q 676 -4 635 -9 q 752 12 717 1 q 819 38 788 22 q 878 75 850 54 l 939 353 q 955 398 945 381 q 982 426 964 416 q 1027 440 999 436 l 1027 441 l 760 441 l 760 440 q 806 425 792 435 q 822 398 821 415 q 817 353 823 380 l 748 24 l 754 35 q 686 2 728 10 q 602 -7 645 -7 q 452 41 517 -7 q 349 179 386 90 q 311 389 311 268 q 329 575 311 486 q 380 738 347 663 q 463 868 414 813 q 575 954 512 924 q 715 985 639 985 q 840 958 785 985 q 927 866 895 931 q 961 684 960 800 l 962 684 l 1005 903 q 924 945 972 926 q 817 976 876 964 q 688 988 757 988 q 486 951 580 988 q 322 844 393 914 q 211 672 251 773 q 169 441 170 570 m 765 1072 q 844 1093 810 1072 q 898 1153 878 1114 q 921 1249 918 1193 l 920 1249 q 873 1171 909 1199 q 766 1143 837 1143 q 686 1167 717 1143 q 654 1230 654 1191 q 655 1240 654 1235 q 657 1249 656 1244 l 656 1249 q 647 1218 650 1234 q 644 1187 644 1202 q 660 1128 644 1154 q 702 1086 675 1101 q 765 1072 729 1072 z "},"Ḡ":{"ha":952,"x_min":168,"x_max":1027,"o":"m 169 441 q 205 245 168 330 q 304 105 242 161 q 441 19 366 48 q 589 -9 515 -9 q 676 -4 635 -9 q 752 12 717 1 q 819 38 788 22 q 878 75 850 54 l 939 353 q 955 398 945 381 q 982 426 964 416 q 1027 440 999 436 l 1027 441 l 760 441 l 760 440 q 806 425 792 435 q 822 398 821 415 q 817 353 823 380 l 748 24 l 754 35 q 686 2 728 10 q 602 -7 645 -7 q 452 41 517 -7 q 349 179 386 90 q 311 389 311 268 q 329 575 311 486 q 380 738 347 663 q 463 868 414 813 q 575 954 512 924 q 715 985 639 985 q 840 958 785 985 q 927 866 895 931 q 961 684 960 800 l 962 684 l 1005 903 q 924 945 972 926 q 817 976 876 964 q 688 988 757 988 q 486 951 580 988 q 322 844 393 914 q 211 672 251 773 q 169 441 170 570 m 619 1089 l 891 1089 l 903 1147 l 631 1147 l 619 1089 z "},"Ġ":{"ha":952,"x_min":168,"x_max":1027,"o":"m 169 441 q 205 245 168 330 q 304 105 242 161 q 441 19 366 48 q 589 -9 515 -9 q 676 -4 635 -9 q 752 12 717 1 q 819 38 788 22 q 878 75 850 54 l 939 353 q 955 398 945 381 q 982 426 964 416 q 1027 440 999 436 l 1027 441 l 760 441 l 760 440 q 806 425 792 435 q 822 398 821 415 q 817 353 823 380 l 748 24 l 754 35 q 686 2 728 10 q 602 -7 645 -7 q 452 41 517 -7 q 349 179 386 90 q 311 389 311 268 q 329 575 311 486 q 380 738 347 663 q 463 868 414 813 q 575 954 512 924 q 715 985 639 985 q 840 958 785 985 q 927 866 895 931 q 961 684 960 800 l 962 684 l 1005 903 q 924 945 972 926 q 817 976 876 964 q 688 988 757 988 q 486 951 580 988 q 322 844 393 914 q 211 672 251 773 q 169 441 170 570 m 760 1057 q 800 1074 784 1057 q 817 1113 817 1090 q 801 1152 817 1136 q 762 1168 785 1168 q 721 1152 738 1168 q 705 1113 705 1136 q 721 1074 705 1090 q 760 1057 737 1057 z "},"Ģ":{"ha":952,"x_min":168,"x_max":1027,"o":"m 169 441 q 205 245 168 330 q 304 105 242 161 q 441 19 366 48 q 589 -9 515 -9 q 676 -4 635 -9 q 752 12 717 1 q 819 38 788 22 q 878 75 850 54 l 939 353 q 955 398 945 381 q 982 426 964 416 q 1027 440 999 436 l 1027 441 l 760 441 l 760 440 q 806 425 792 435 q 822 398 821 415 q 817 353 823 380 l 748 24 l 754 35 q 686 2 728 10 q 602 -7 645 -7 q 452 41 517 -7 q 349 179 386 90 q 311 389 311 268 q 329 575 311 486 q 380 738 347 663 q 463 868 414 813 q 575 954 512 924 q 715 985 639 985 q 840 958 785 985 q 927 866 895 931 q 961 684 960 800 l 962 684 l 1005 903 q 924 945 972 926 q 817 976 876 964 q 688 988 757 988 q 486 951 580 988 q 322 844 393 914 q 211 672 251 773 q 169 441 170 570 m 503 -277 q 591 -250 556 -277 q 627 -183 627 -223 q 597 -112 627 -136 q 537 -88 568 -88 q 480 -101 505 -88 q 439 -136 454 -114 l 439 -137 q 456 -133 446 -134 q 475 -131 466 -131 q 517 -143 499 -131 q 535 -184 535 -156 q 517 -224 535 -211 q 469 -238 499 -238 q 423 -226 442 -238 q 396 -200 404 -214 l 396 -201 q 433 -255 407 -232 q 503 -277 460 -277 z "},"H":{"ha":945,"x_min":36,"x_max":1118,"o":"m 256 91 l 426 888 q 443 940 433 922 q 470 966 453 958 q 517 979 488 975 l 517 979 l 243 979 l 243 979 q 286 966 272 975 q 301 940 299 958 q 296 888 303 922 l 126 91 q 110 40 119 58 q 83 13 100 22 q 36 1 66 5 l 36 0 l 309 0 l 309 1 q 256 24 267 7 q 256 91 245 41 m 858 91 l 1027 888 q 1044 940 1035 922 q 1071 966 1054 958 q 1118 979 1088 975 l 1118 979 l 844 979 l 844 979 q 886 966 873 975 q 902 940 900 958 q 897 888 905 922 l 728 91 q 711 40 721 58 q 684 13 701 22 q 637 1 667 5 l 637 0 l 910 0 l 910 1 q 868 13 882 5 q 853 40 854 22 q 858 91 851 58 m 278 500 l 880 500 l 880 504 l 279 504 l 278 500 z "},"Ĥ":{"ha":945,"x_min":36,"x_max":1118,"o":"m 256 91 l 426 888 q 443 940 433 922 q 470 966 453 958 q 517 979 488 975 l 517 979 l 243 979 l 243 979 q 286 966 272 975 q 301 940 299 958 q 296 888 303 922 l 126 91 q 110 40 119 58 q 83 13 100 22 q 36 1 66 5 l 36 0 l 309 0 l 309 1 q 256 24 267 7 q 256 91 245 41 m 858 91 l 1027 888 q 1044 940 1035 922 q 1071 966 1054 958 q 1118 979 1088 975 l 1118 979 l 844 979 l 844 979 q 886 966 873 975 q 902 940 900 958 q 897 888 905 922 l 728 91 q 711 40 721 58 q 684 13 701 22 q 637 1 667 5 l 637 0 l 910 0 l 910 1 q 868 13 882 5 q 853 40 854 22 q 858 91 851 58 m 278 500 l 880 500 l 880 504 l 279 504 l 278 500 m 550 1025 l 745 1152 l 695 1152 l 834 1025 l 836 1025 l 757 1200 l 698 1200 l 549 1025 l 550 1025 z "},"Ȟ":{"ha":945,"x_min":36,"x_max":1118,"o":"m 256 91 l 426 888 q 443 940 433 922 q 470 966 453 958 q 517 979 488 975 l 517 979 l 243 979 l 243 979 q 286 966 272 975 q 301 940 299 958 q 296 888 303 922 l 126 91 q 110 40 119 58 q 83 13 100 22 q 36 1 66 5 l 36 0 l 309 0 l 309 1 q 256 24 267 7 q 256 91 245 41 m 858 91 l 1027 888 q 1044 940 1035 922 q 1071 966 1054 958 q 1118 979 1088 975 l 1118 979 l 844 979 l 844 979 q 886 966 873 975 q 902 940 900 958 q 897 888 905 922 l 728 91 q 711 40 721 58 q 684 13 701 22 q 637 1 667 5 l 637 0 l 910 0 l 910 1 q 868 13 882 5 q 853 40 854 22 q 858 91 851 58 m 278 500 l 880 500 l 880 504 l 279 504 l 278 500 m 863 1208 l 674 1080 l 723 1080 l 589 1208 l 588 1208 l 665 1036 l 719 1036 l 865 1208 l 863 1208 z "},"Ḫ":{"ha":945,"x_min":36,"x_max":1118,"o":"m 256 91 l 426 888 q 443 940 433 922 q 470 966 453 958 q 517 979 488 975 l 517 979 l 243 979 l 243 979 q 286 966 272 975 q 301 940 299 958 q 296 888 303 922 l 126 91 q 110 40 119 58 q 83 13 100 22 q 36 1 66 5 l 36 0 l 309 0 l 309 1 q 256 24 267 7 q 256 91 245 41 m 858 91 l 1027 888 q 1044 940 1035 922 q 1071 966 1054 958 q 1118 979 1088 975 l 1118 979 l 844 979 l 844 979 q 886 966 873 975 q 902 940 900 958 q 897 888 905 922 l 728 91 q 711 40 721 58 q 684 13 701 22 q 637 1 667 5 l 637 0 l 910 0 l 910 1 q 868 13 882 5 q 853 40 854 22 q 858 91 851 58 m 278 500 l 880 500 l 880 504 l 279 504 l 278 500 z "},"Ḧ":{"ha":945,"x_min":36,"x_max":1118,"o":"m 256 91 l 426 888 q 443 940 433 922 q 470 966 453 958 q 517 979 488 975 l 517 979 l 243 979 l 243 979 q 286 966 272 975 q 301 940 299 958 q 296 888 303 922 l 126 91 q 110 40 119 58 q 83 13 100 22 q 36 1 66 5 l 36 0 l 309 0 l 309 1 q 256 24 267 7 q 256 91 245 41 m 858 91 l 1027 888 q 1044 940 1035 922 q 1071 966 1054 958 q 1118 979 1088 975 l 1118 979 l 844 979 l 844 979 q 886 966 873 975 q 902 940 900 958 q 897 888 905 922 l 728 91 q 711 40 721 58 q 684 13 701 22 q 637 1 667 5 l 637 0 l 910 0 l 910 1 q 868 13 882 5 q 853 40 854 22 q 858 91 851 58 m 278 500 l 880 500 l 880 504 l 279 504 l 278 500 z "},"Ḣ":{"ha":945,"x_min":36,"x_max":1118,"o":"m 256 91 l 426 888 q 443 940 433 922 q 470 966 453 958 q 517 979 488 975 l 517 979 l 243 979 l 243 979 q 286 966 272 975 q 301 940 299 958 q 296 888 303 922 l 126 91 q 110 40 119 58 q 83 13 100 22 q 36 1 66 5 l 36 0 l 309 0 l 309 1 q 256 24 267 7 q 256 91 245 41 m 858 91 l 1027 888 q 1044 940 1035 922 q 1071 966 1054 958 q 1118 979 1088 975 l 1118 979 l 844 979 l 844 979 q 886 966 873 975 q 902 940 900 958 q 897 888 905 922 l 728 91 q 711 40 721 58 q 684 13 701 22 q 637 1 667 5 l 637 0 l 910 0 l 910 1 q 868 13 882 5 q 853 40 854 22 q 858 91 851 58 m 278 500 l 880 500 l 880 504 l 279 504 l 278 500 m 705 1057 q 746 1074 730 1057 q 762 1113 762 1090 q 746 1152 762 1136 q 707 1168 730 1168 q 667 1152 684 1168 q 650 1113 650 1136 q 667 1074 650 1090 q 705 1057 683 1057 z "},"Ḥ":{"ha":945,"x_min":36,"x_max":1118,"o":"m 256 91 l 426 888 q 443 940 433 922 q 470 966 453 958 q 517 979 488 975 l 517 979 l 243 979 l 243 979 q 286 966 272 975 q 301 940 299 958 q 296 888 303 922 l 126 91 q 110 40 119 58 q 83 13 100 22 q 36 1 66 5 l 36 0 l 309 0 l 309 1 q 256 24 267 7 q 256 91 245 41 m 858 91 l 1027 888 q 1044 940 1035 922 q 1071 966 1054 958 q 1118 979 1088 975 l 1118 979 l 844 979 l 844 979 q 886 966 873 975 q 902 940 900 958 q 897 888 905 922 l 728 91 q 711 40 721 58 q 684 13 701 22 q 637 1 667 5 l 637 0 l 910 0 l 910 1 q 868 13 882 5 q 853 40 854 22 q 858 91 851 58 m 278 500 l 880 500 l 880 504 l 279 504 l 278 500 m 431 -130 q 390 -146 406 -130 q 374 -186 374 -163 q 390 -225 374 -209 q 429 -241 406 -241 q 469 -225 452 -241 q 486 -186 486 -209 q 469 -146 486 -163 q 431 -130 453 -130 z "},"Ḩ":{"ha":945,"x_min":-3,"x_max":1118,"o":"m 115 -277 q 200 -249 168 -277 q 233 -177 233 -220 q 205 -108 233 -135 q 136 -81 177 -81 q 104 -85 119 -81 q 82 -95 90 -89 l 81 -98 l 157 1 l 157 2 l 156 2 l 56 -124 l 56 -125 q 67 -122 60 -123 q 82 -121 73 -121 q 122 -136 106 -121 q 139 -177 139 -151 q 122 -217 139 -202 q 78 -233 106 -233 q 32 -222 55 -233 q -3 -195 9 -212 l -3 -195 q 39 -253 10 -229 q 115 -277 67 -277 m 256 91 l 426 888 q 443 940 433 922 q 470 966 453 958 q 517 979 488 975 l 517 979 l 243 979 l 243 979 q 286 966 272 975 q 301 940 299 958 q 296 888 303 922 l 126 91 q 110 40 119 58 q 83 13 100 22 q 36 1 66 5 l 36 0 l 309 0 l 309 1 q 256 24 267 7 q 256 91 245 41 m 858 91 l 1027 888 q 1044 940 1035 922 q 1071 966 1054 958 q 1118 979 1088 975 l 1118 979 l 844 979 l 844 979 q 886 966 873 975 q 902 940 900 958 q 897 888 905 922 l 728 91 q 711 40 721 58 q 684 13 701 22 q 637 1 667 5 l 637 0 l 910 0 l 910 1 q 868 13 882 5 q 853 40 854 22 q 858 91 851 58 m 278 500 l 880 500 l 880 504 l 279 504 l 278 500 z "},"Ħ":{"ha":945,"x_min":36,"x_max":1118,"o":"m 256 91 l 426 888 q 443 940 433 922 q 470 966 453 958 q 517 979 488 975 l 517 979 l 243 979 l 243 979 q 286 966 272 975 q 301 940 299 958 q 296 888 303 922 l 126 91 q 110 40 119 58 q 83 13 100 22 q 36 1 66 5 l 36 0 l 309 0 l 309 1 q 268 13 281 5 q 252 40 254 22 q 256 91 250 58 m 858 91 l 1027 888 q 1044 940 1035 922 q 1071 966 1054 958 q 1118 979 1088 975 l 1118 979 l 844 979 l 844 979 q 886 966 873 975 q 902 940 900 958 q 897 888 905 922 l 728 91 q 711 40 721 58 q 684 13 701 22 q 637 1 667 5 l 637 0 l 910 0 l 910 1 q 868 13 882 5 q 853 40 854 22 q 858 91 851 58 m 278 500 l 880 500 l 880 504 l 279 504 l 278 500 m 192 736 l 1067 736 l 1067 740 l 193 740 l 192 736 z "},"I":{"ha":345,"x_min":36,"x_max":517,"o":"m 256 91 l 426 888 q 443 940 433 922 q 470 966 453 958 q 517 979 488 975 l 517 979 l 243 979 l 243 979 q 286 966 272 975 q 301 940 299 958 q 296 888 303 922 l 126 91 q 110 40 119 58 q 83 13 100 22 q 36 1 66 5 l 36 0 l 309 0 l 309 1 q 268 13 281 5 q 252 40 254 22 q 256 91 250 58 z "},"Í":{"ha":345,"x_min":36,"x_max":608,"o":"m 256 91 l 426 888 q 443 940 433 922 q 470 966 453 958 q 517 979 488 975 l 517 979 l 243 979 l 243 979 q 286 966 272 975 q 301 940 299 958 q 296 888 303 922 l 126 91 q 110 40 119 58 q 83 13 100 22 q 36 1 66 5 l 36 0 l 309 0 l 309 1 q 268 13 281 5 q 252 40 254 22 q 256 91 250 58 m 479 1200 l 355 1026 l 357 1026 l 608 1200 l 608 1201 l 479 1200 z "},"Ì":{"ha":345,"x_min":36,"x_max":517,"o":"m 256 91 l 426 888 q 443 940 433 922 q 470 966 453 958 q 517 979 488 975 l 517 979 l 243 979 l 243 979 q 286 966 272 975 q 301 940 299 958 q 296 888 303 922 l 126 91 q 110 40 119 58 q 83 13 100 22 q 36 1 66 5 l 36 0 l 309 0 l 309 1 q 268 13 281 5 q 252 40 254 22 q 256 91 250 58 m 380 1200 l 266 1200 l 266 1198 l 441 1025 l 443 1025 l 380 1200 z "},"Ȉ":{"ha":345,"x_min":36,"x_max":517,"o":"m 256 91 l 426 888 q 443 940 433 922 q 470 966 453 958 q 517 979 488 975 l 517 979 l 243 979 l 243 979 q 286 966 272 975 q 301 940 299 958 q 296 888 303 922 l 126 91 q 110 40 119 58 q 83 13 100 22 q 36 1 66 5 l 36 0 l 309 0 l 309 1 q 268 13 281 5 q 252 40 254 22 q 256 91 250 58 m 263 1200 l 155 1200 l 155 1198 l 336 1025 l 337 1025 l 263 1200 m 448 1200 l 344 1200 l 344 1198 l 495 1025 l 496 1025 l 448 1200 z "},"Î":{"ha":345,"x_min":36,"x_max":543,"o":"m 256 91 l 426 888 q 443 940 433 922 q 470 966 453 958 q 517 979 488 975 l 517 979 l 243 979 l 243 979 q 286 966 272 975 q 301 940 299 958 q 296 888 303 922 l 126 91 q 110 40 119 58 q 83 13 100 22 q 36 1 66 5 l 36 0 l 309 0 l 309 1 q 268 13 281 5 q 252 40 254 22 q 256 91 250 58 m 257 1026 l 452 1152 l 402 1152 l 541 1026 l 543 1026 l 464 1200 l 405 1200 l 256 1026 l 257 1026 z "},"Ǐ":{"ha":345,"x_min":36,"x_max":572,"o":"m 256 91 l 426 888 q 443 940 433 922 q 470 966 453 958 q 517 979 488 975 l 517 979 l 243 979 l 243 979 q 286 966 272 975 q 301 940 299 958 q 296 888 303 922 l 126 91 q 110 40 119 58 q 83 13 100 22 q 36 1 66 5 l 36 0 l 309 0 l 309 1 q 268 13 281 5 q 252 40 254 22 q 256 91 250 58 m 570 1209 l 381 1080 l 430 1080 l 296 1209 l 295 1209 l 372 1036 l 426 1036 l 572 1209 l 570 1209 z "},"Ĭ":{"ha":345,"x_min":36,"x_max":574,"o":"m 256 91 l 426 888 q 443 940 433 922 q 470 966 453 958 q 517 979 488 975 l 517 979 l 243 979 l 243 979 q 286 966 272 975 q 301 940 299 958 q 296 888 303 922 l 126 91 q 110 40 119 58 q 83 13 100 22 q 36 1 66 5 l 36 0 l 309 0 l 309 1 q 268 13 281 5 q 252 40 254 22 q 256 91 250 58 m 418 1072 q 497 1093 463 1072 q 551 1154 531 1114 q 574 1249 571 1194 l 573 1249 q 526 1172 562 1200 q 419 1143 490 1143 q 338 1167 370 1143 q 307 1231 307 1192 q 308 1240 307 1236 q 310 1249 309 1245 l 309 1249 q 300 1219 302 1234 q 297 1188 297 1203 q 312 1128 297 1155 q 355 1087 328 1102 q 418 1072 382 1072 z "},"Ȋ":{"ha":345,"x_min":36,"x_max":549,"o":"m 256 91 l 426 888 q 443 940 433 922 q 470 966 453 958 q 517 979 488 975 l 517 979 l 243 979 l 243 979 q 286 966 272 975 q 301 940 299 958 q 296 888 303 922 l 126 91 q 110 40 119 58 q 83 13 100 22 q 36 1 66 5 l 36 0 l 309 0 l 309 1 q 268 13 281 5 q 252 40 254 22 q 256 91 250 58 m 429 1249 q 350 1228 384 1249 q 295 1168 315 1207 q 273 1072 275 1128 l 273 1072 q 320 1150 284 1122 q 427 1178 357 1178 q 508 1154 477 1178 q 539 1090 539 1131 q 538 1081 539 1086 q 536 1072 538 1076 l 537 1072 q 547 1103 544 1088 q 549 1133 549 1118 q 534 1193 549 1167 q 492 1234 519 1219 q 429 1249 465 1249 z "},"Ï":{"ha":345,"x_min":36,"x_max":553,"o":"m 256 91 l 426 888 q 443 940 433 922 q 470 966 453 958 q 517 979 488 975 l 517 979 l 243 979 l 243 979 q 286 966 272 975 q 301 940 299 958 q 296 888 303 922 l 126 91 q 110 40 119 58 q 83 13 100 22 q 36 1 66 5 l 36 0 l 309 0 l 309 1 q 268 13 281 5 q 252 40 254 22 q 256 91 250 58 z "},"Ḯ":{"ha":345,"x_min":36,"x_max":608,"o":"m 256 91 l 426 888 q 443 940 433 922 q 470 966 453 958 q 517 979 488 975 l 517 979 l 243 979 l 243 979 q 286 966 272 975 q 301 940 299 958 q 296 888 303 922 l 126 91 q 110 40 119 58 q 83 13 100 22 q 36 1 66 5 l 36 0 l 309 0 l 309 1 q 268 13 281 5 q 252 40 254 22 q 256 91 250 58 m 318 1073 q 356 1085 339 1073 q 376 1117 372 1098 q 369 1148 380 1136 q 337 1161 358 1161 l 336 1161 q 298 1148 315 1161 q 277 1117 281 1136 q 284 1085 273 1098 q 317 1073 296 1073 l 318 1073 m 492 1073 q 529 1085 513 1073 q 550 1117 546 1098 q 543 1148 554 1136 q 511 1161 532 1161 l 509 1161 q 471 1148 488 1161 q 450 1117 454 1136 q 458 1085 446 1098 q 490 1073 469 1073 l 492 1073 m 593 1241 l 608 1312 l 277 1193 l 277 1192 l 593 1241 z "},"Ĩ":{"ha":345,"x_min":36,"x_max":555,"o":"m 256 91 l 426 888 q 443 940 433 922 q 470 966 453 958 q 517 979 488 975 l 517 979 l 243 979 l 243 979 q 286 966 272 975 q 301 940 299 958 q 296 888 303 922 l 126 91 q 110 40 119 58 q 83 13 100 22 q 36 1 66 5 l 36 0 l 309 0 l 309 1 q 268 13 281 5 q 252 40 254 22 q 256 91 250 58 m 465 1069 q 506 1081 488 1069 q 536 1120 524 1093 q 555 1196 549 1148 l 554 1196 q 533 1144 546 1162 q 500 1126 521 1126 q 476 1132 487 1126 q 448 1149 465 1138 l 431 1162 q 401 1180 416 1173 q 367 1187 386 1187 q 327 1176 345 1187 q 296 1136 309 1164 q 277 1061 284 1109 l 278 1061 q 299 1113 286 1095 q 332 1131 311 1131 q 356 1125 345 1131 q 384 1107 368 1119 l 401 1095 q 431 1077 416 1084 q 465 1069 446 1069 z "},"Ḭ":{"ha":345,"x_min":-17,"x_max":517,"o":"m 256 91 l 426 888 q 443 940 433 922 q 470 966 453 958 q 517 979 488 975 l 517 979 l 243 979 l 243 979 q 286 966 272 975 q 301 940 299 958 q 296 888 303 922 l 126 91 q 110 40 119 58 q 83 13 100 22 q 36 1 66 5 l 36 0 l 309 0 l 309 1 q 268 13 281 5 q 252 40 254 22 q 256 91 250 58 z "},"Ī":{"ha":345,"x_min":36,"x_max":556,"o":"m 256 91 l 426 888 q 443 940 433 922 q 470 966 453 958 q 517 979 488 975 l 517 979 l 243 979 l 243 979 q 286 966 272 975 q 301 940 299 958 q 296 888 303 922 l 126 91 q 110 40 119 58 q 83 13 100 22 q 36 1 66 5 l 36 0 l 309 0 l 309 1 q 268 13 281 5 q 252 40 254 22 q 256 91 250 58 m 272 1090 l 544 1090 l 556 1147 l 284 1147 l 272 1090 z "},"Ỉ":{"ha":345,"x_min":36,"x_max":517,"o":"m 256 91 l 426 888 q 443 940 433 922 q 470 966 453 958 q 517 979 488 975 l 517 979 l 243 979 l 243 979 q 286 966 272 975 q 301 940 299 958 q 296 888 303 922 l 126 91 q 110 40 119 58 q 83 13 100 22 q 36 1 66 5 l 36 0 l 309 0 l 309 1 q 268 13 281 5 q 252 40 254 22 q 256 91 250 58 m 433 1227 q 369 1208 398 1227 q 325 1158 340 1190 l 325 1158 q 355 1178 339 1171 q 390 1185 371 1185 q 432 1172 415 1185 q 448 1134 448 1158 q 426 1084 448 1109 q 357 1036 404 1059 l 359 1036 q 475 1089 437 1057 q 512 1158 512 1121 q 489 1208 512 1190 q 433 1227 466 1227 z "},"İ":{"ha":345,"x_min":36,"x_max":517,"o":"m 256 91 l 426 888 q 443 940 433 922 q 470 966 453 958 q 517 979 488 975 l 517 979 l 243 979 l 243 979 q 286 966 272 975 q 301 940 299 958 q 296 888 303 922 l 126 91 q 110 40 119 58 q 83 13 100 22 q 36 1 66 5 l 36 0 l 309 0 l 309 1 q 268 13 281 5 q 252 40 254 22 q 256 91 250 58 m 412 1058 q 453 1074 437 1058 q 469 1114 469 1090 q 453 1153 469 1137 q 414 1169 437 1169 q 374 1153 391 1169 q 357 1114 357 1137 q 374 1074 357 1090 q 412 1058 390 1058 z "},"Ị":{"ha":345,"x_min":36,"x_max":517,"o":"m 256 91 l 426 888 q 443 940 433 922 q 470 966 453 958 q 517 979 488 975 l 517 979 l 243 979 l 243 979 q 286 966 272 975 q 301 940 299 958 q 296 888 303 922 l 126 91 q 110 40 119 58 q 83 13 100 22 q 36 1 66 5 l 36 0 l 309 0 l 309 1 q 268 13 281 5 q 252 40 254 22 q 256 91 250 58 m 138 -130 q 97 -146 113 -130 q 81 -186 81 -163 q 97 -225 81 -209 q 136 -241 113 -241 q 176 -225 159 -241 q 193 -186 193 -209 q 176 -146 193 -163 q 138 -130 160 -130 z "},"Į":{"ha":345,"x_min":36,"x_max":517,"o":"m 256 91 l 426 888 q 443 940 433 922 q 470 966 453 958 q 517 979 488 975 l 517 979 l 243 979 l 243 979 q 286 966 272 975 q 301 940 299 958 q 296 888 303 922 l 126 91 q 110 40 119 58 q 83 13 100 22 q 36 1 66 5 l 36 0 l 309 0 l 309 1 q 268 13 281 5 q 252 40 254 22 q 256 91 250 58 m 146 -317 q 211 -296 184 -317 q 248 -242 237 -275 l 248 -241 q 203 -262 229 -262 q 166 -249 182 -262 q 143 -210 151 -235 q 135 -149 135 -184 q 146 -70 135 -109 q 177 0 157 -31 l 176 0 q 81 -109 117 -54 q 46 -219 46 -165 q 75 -290 46 -262 q 146 -317 103 -317 z "},"J":{"ha":345,"x_min":-115,"x_max":517,"o":"m 271 157 l 427 888 q 444 941 434 922 q 470 967 453 959 q 517 979 488 975 l 517 979 l 244 979 l 243 979 q 286 967 272 975 q 302 941 300 959 q 296 888 304 922 l 145 178 q 104 26 127 91 q 52 -89 82 -39 q -18 -180 22 -138 q -115 -261 -59 -221 l -115 -262 q 31 -181 -33 -224 q 144 -89 96 -139 q 223 21 192 -39 q 271 157 255 82 z "},"Ĵ":{"ha":345,"x_min":-115,"x_max":534,"o":"m 271 157 l 427 888 q 444 941 434 922 q 470 967 453 959 q 517 979 488 975 l 517 979 l 244 979 l 243 979 q 286 967 272 975 q 302 941 300 959 q 296 888 304 922 l 145 178 q 104 26 127 91 q 52 -89 82 -39 q -18 -180 22 -138 q -115 -261 -59 -221 l -115 -262 q 31 -181 -33 -224 q 144 -89 96 -139 q 223 21 192 -39 q 271 157 255 82 m 248 1025 l 444 1152 l 393 1152 l 532 1025 l 534 1025 l 455 1200 l 396 1200 l 248 1025 l 248 1025 z "},"K":{"ha":823,"x_min":40,"x_max":1006,"o":"m 260 91 l 430 888 q 447 940 437 922 q 474 966 457 958 q 521 979 492 975 l 521 979 l 248 979 l 248 979 q 290 966 276 975 q 305 940 303 958 q 300 888 307 922 l 130 91 q 114 40 123 58 q 87 13 104 22 q 40 1 70 5 l 40 0 l 313 0 l 313 1 q 272 13 286 5 q 256 40 258 22 q 260 91 254 58 m 639 0 l 826 0 l 826 1 q 793 23 808 8 q 758 74 777 38 q 707 182 738 111 l 524 608 l 524 606 q 627 697 572 648 q 731 790 682 747 q 806 857 780 833 q 881 917 846 892 q 947 958 916 943 q 1006 979 978 974 l 1006 979 l 785 979 l 785 979 q 835 957 825 974 q 833 917 846 941 q 789 863 820 892 l 426 513 l 639 0 m 429 515 l 349 513 l 349 512 l 427 510 l 429 515 z "},"Ḱ":{"ha":823,"x_min":40,"x_max":1006,"o":"m 260 91 l 430 888 q 447 940 437 922 q 474 966 457 958 q 521 979 492 975 l 521 979 l 248 979 l 248 979 q 290 966 276 975 q 305 940 303 958 q 300 888 307 922 l 130 91 q 114 40 123 58 q 87 13 104 22 q 40 1 70 5 l 40 0 l 313 0 l 313 1 q 272 13 286 5 q 256 40 258 22 q 260 91 254 58 m 639 0 l 826 0 l 826 1 q 793 23 808 8 q 758 74 777 38 q 707 182 738 111 l 524 608 l 524 606 q 627 697 572 648 q 731 790 682 747 q 806 857 780 833 q 881 917 846 892 q 947 958 916 943 q 1006 979 978 974 l 1006 979 l 785 979 l 785 979 q 835 957 825 974 q 833 917 846 941 q 789 863 820 892 l 426 513 l 639 0 m 429 515 l 349 513 l 349 512 l 427 510 l 429 515 m 705 1199 l 581 1025 l 582 1025 l 833 1198 l 833 1200 l 705 1199 z "},"Ǩ":{"ha":823,"x_min":40,"x_max":1006,"o":"m 260 91 l 430 888 q 447 940 437 922 q 474 966 457 958 q 521 979 492 975 l 521 979 l 248 979 l 248 979 q 290 966 276 975 q 305 940 303 958 q 300 888 307 922 l 130 91 q 114 40 123 58 q 87 13 104 22 q 40 1 70 5 l 40 0 l 313 0 l 313 1 q 272 13 286 5 q 256 40 258 22 q 260 91 254 58 m 639 0 l 826 0 l 826 1 q 793 23 808 8 q 758 74 777 38 q 707 182 738 111 l 524 608 l 524 606 q 627 697 572 648 q 731 790 682 747 q 806 857 780 833 q 881 917 846 892 q 947 958 916 943 q 1006 979 978 974 l 1006 979 l 785 979 l 785 979 q 835 957 825 974 q 833 917 846 941 q 789 863 820 892 l 426 513 l 639 0 m 429 515 l 349 513 l 349 512 l 427 510 l 429 515 m 795 1208 l 606 1079 l 655 1079 l 522 1208 l 520 1208 l 597 1035 l 651 1035 l 797 1208 l 795 1208 z "},"Ḵ":{"ha":823,"x_min":40,"x_max":1006,"o":"m 260 91 l 430 888 q 447 940 437 922 q 474 966 457 958 q 521 979 492 975 l 521 979 l 248 979 l 248 979 q 290 966 276 975 q 305 940 303 958 q 300 888 307 922 l 130 91 q 114 40 123 58 q 87 13 104 22 q 40 1 70 5 l 40 0 l 313 0 l 313 1 q 272 13 286 5 q 256 40 258 22 q 260 91 254 58 m 639 0 l 826 0 l 826 1 q 793 23 808 8 q 758 74 777 38 q 707 182 738 111 l 524 608 l 524 606 q 627 697 572 648 q 731 790 682 747 q 806 857 780 833 q 881 917 846 892 q 947 958 916 943 q 1006 979 978 974 l 1006 979 l 785 979 l 785 979 q 835 957 825 974 q 833 917 846 941 q 789 863 820 892 l 426 513 l 639 0 m 429 515 l 349 513 l 349 512 l 427 510 l 429 515 z "},"Ḳ":{"ha":823,"x_min":40,"x_max":1006,"o":"m 260 91 l 430 888 q 447 940 437 922 q 474 966 457 958 q 521 979 492 975 l 521 979 l 248 979 l 248 979 q 290 966 276 975 q 305 940 303 958 q 300 888 307 922 l 130 91 q 114 40 123 58 q 87 13 104 22 q 40 1 70 5 l 40 0 l 313 0 l 313 1 q 272 13 286 5 q 256 40 258 22 q 260 91 254 58 m 639 0 l 826 0 l 826 1 q 793 23 808 8 q 758 74 777 38 q 707 182 738 111 l 524 608 l 524 606 q 627 697 572 648 q 731 790 682 747 q 806 857 780 833 q 881 917 846 892 q 947 958 916 943 q 1006 979 978 974 l 1006 979 l 785 979 l 785 979 q 835 957 825 974 q 833 917 846 941 q 789 863 820 892 l 426 513 l 639 0 m 429 515 l 349 513 l 349 512 l 427 510 l 429 515 m 376 -130 q 336 -146 352 -130 q 319 -186 319 -163 q 335 -225 319 -209 q 374 -241 351 -241 q 415 -225 398 -241 q 431 -186 431 -209 q 415 -146 431 -163 q 376 -130 399 -130 z "},"Ķ":{"ha":823,"x_min":40,"x_max":1006,"o":"m 260 91 l 430 888 q 447 940 437 922 q 474 966 457 958 q 521 979 492 975 l 521 979 l 248 979 l 248 979 q 290 966 276 975 q 305 940 303 958 q 300 888 307 922 l 130 91 q 114 40 123 58 q 87 13 104 22 q 40 1 70 5 l 40 0 l 313 0 l 313 1 q 272 13 286 5 q 256 40 258 22 q 260 91 254 58 m 639 0 l 826 0 l 826 1 q 793 23 808 8 q 758 74 777 38 q 707 182 738 111 l 524 608 l 524 606 q 627 697 572 648 q 731 790 682 747 q 806 857 780 833 q 881 917 846 892 q 947 958 916 943 q 1006 979 978 974 l 1006 979 l 785 979 l 785 979 q 835 957 825 974 q 833 917 846 941 q 789 863 820 892 l 426 513 l 639 0 m 429 515 l 349 513 l 349 512 l 427 510 l 429 515 m 368 -277 q 456 -250 420 -277 q 491 -183 491 -223 q 462 -112 491 -136 q 401 -88 433 -88 q 344 -101 370 -88 q 303 -136 319 -114 l 303 -137 q 320 -133 311 -134 q 340 -131 330 -131 q 381 -143 363 -131 q 399 -184 399 -156 q 381 -224 399 -211 q 334 -238 363 -238 q 288 -226 307 -238 q 260 -200 269 -214 l 260 -201 q 298 -255 271 -232 q 368 -277 324 -277 z "},"L":{"ha":711,"x_min":39,"x_max":715,"o":"m 648 0 l 715 240 l 713 240 q 660 142 689 184 q 592 71 631 100 q 503 26 554 41 q 382 7 451 10 l 241 1 l 430 888 q 447 940 437 922 q 474 966 457 958 q 521 979 492 975 l 521 979 l 248 979 l 248 979 q 290 966 276 975 q 306 940 304 958 q 300 888 307 922 l 130 91 q 114 40 123 58 q 87 13 104 22 q 40 1 70 5 l 39 0 l 648 0 z "},"Ĺ":{"ha":711,"x_min":39,"x_max":715,"o":"m 648 0 l 715 240 l 713 240 q 660 142 689 184 q 592 71 631 100 q 503 26 554 41 q 382 7 451 10 l 241 1 l 430 888 q 447 940 437 922 q 474 966 457 958 q 521 979 492 975 l 521 979 l 248 979 l 248 979 q 290 966 276 975 q 306 940 304 958 q 300 888 307 922 l 130 91 q 114 40 123 58 q 87 13 104 22 q 40 1 70 5 l 39 0 l 648 0 m 463 1200 l 338 1025 l 340 1025 l 591 1199 l 591 1200 l 463 1200 z "},"Ḽ":{"ha":711,"x_min":39,"x_max":715,"o":"m 648 0 l 715 240 l 713 240 q 660 142 689 184 q 592 71 631 100 q 503 26 554 41 q 382 7 451 10 l 241 1 l 430 888 q 447 940 437 922 q 474 966 457 958 q 521 979 492 975 l 521 979 l 248 979 l 248 979 q 290 966 276 975 q 306 940 304 958 q 300 888 307 922 l 130 91 q 114 40 123 58 q 87 13 104 22 q 40 1 70 5 l 39 0 l 648 0 z "},"Ľ":{"ha":711,"x_min":39,"x_max":751,"o":"m 648 0 l 715 240 l 713 240 q 660 142 689 184 q 592 71 631 100 q 503 26 554 41 q 382 7 451 10 l 241 1 l 430 888 q 447 940 437 922 q 474 966 457 958 q 521 979 492 975 l 521 979 l 248 979 l 248 979 q 290 966 276 975 q 306 940 304 958 q 300 888 307 922 l 130 91 q 114 40 123 58 q 87 13 104 22 q 40 1 70 5 l 39 0 l 648 0 m 572 716 l 751 964 l 648 964 l 572 716 l 572 716 z "},"Ḻ":{"ha":711,"x_min":39,"x_max":715,"o":"m 648 0 l 715 240 l 713 240 q 660 142 689 184 q 592 71 631 100 q 503 26 554 41 q 382 7 451 10 l 241 1 l 430 888 q 447 940 437 922 q 474 966 457 958 q 521 979 492 975 l 521 979 l 248 979 l 248 979 q 290 966 276 975 q 306 940 304 958 q 300 888 307 922 l 130 91 q 114 40 123 58 q 87 13 104 22 q 40 1 70 5 l 39 0 l 648 0 z "},"Ŀ":{"ha":711,"x_min":39,"x_max":715,"o":"m 648 0 l 715 240 l 713 240 q 660 142 689 184 q 592 71 631 100 q 503 26 554 41 q 382 7 451 10 l 241 1 l 430 888 q 447 940 437 922 q 474 966 457 958 q 521 979 492 975 l 521 979 l 248 979 l 248 979 q 290 966 276 975 q 306 940 304 958 q 300 888 307 922 l 130 91 q 114 40 123 58 q 87 13 104 22 q 40 1 70 5 l 39 0 l 648 0 m 538 464 q 573 473 558 464 q 597 496 588 481 q 606 529 606 511 q 587 575 606 556 q 541 594 568 594 q 493 575 513 594 q 474 529 474 556 q 493 483 474 503 q 538 464 512 464 z "},"Ḷ":{"ha":711,"x_min":39,"x_max":715,"o":"m 648 0 l 715 240 l 713 240 q 660 142 689 184 q 592 71 631 100 q 503 26 554 41 q 382 7 451 10 l 241 1 l 430 888 q 447 940 437 922 q 474 966 457 958 q 521 979 492 975 l 521 979 l 248 979 l 248 979 q 290 966 276 975 q 306 940 304 958 q 300 888 307 922 l 130 91 q 114 40 123 58 q 87 13 104 22 q 40 1 70 5 l 39 0 l 648 0 m 326 -130 q 285 -146 301 -130 q 269 -186 269 -163 q 284 -225 269 -209 q 323 -241 300 -241 q 364 -225 347 -241 q 380 -186 380 -209 q 364 -146 380 -163 q 326 -130 348 -130 z "},"Ḹ":{"ha":711,"x_min":39,"x_max":715,"o":"m 648 0 l 715 240 l 713 240 q 660 142 689 184 q 592 71 631 100 q 503 26 554 41 q 382 7 451 10 l 241 1 l 430 888 q 447 940 437 922 q 474 966 457 958 q 521 979 492 975 l 521 979 l 248 979 l 248 979 q 290 966 276 975 q 306 940 304 958 q 300 888 307 922 l 130 91 q 114 40 123 58 q 87 13 104 22 q 40 1 70 5 l 39 0 l 648 0 m 326 -130 q 285 -146 301 -130 q 269 -186 269 -163 q 284 -225 269 -209 q 323 -241 300 -241 q 364 -225 347 -241 q 380 -186 380 -209 q 364 -146 380 -163 q 326 -130 348 -130 m 255 1089 l 527 1089 l 539 1147 l 267 1147 l 255 1089 z "},"Ļ":{"ha":711,"x_min":39,"x_max":715,"o":"m 648 0 l 715 240 l 713 240 q 660 142 689 184 q 592 71 631 100 q 503 26 554 41 q 382 7 451 10 l 241 1 l 430 888 q 447 940 437 922 q 474 966 457 958 q 521 979 492 975 l 521 979 l 248 979 l 248 979 q 290 966 276 975 q 306 940 304 958 q 300 888 307 922 l 130 91 q 114 40 123 58 q 87 13 104 22 q 40 1 70 5 l 39 0 l 648 0 m 317 -277 q 405 -250 370 -277 q 440 -183 440 -223 q 411 -112 440 -136 q 351 -88 382 -88 q 293 -101 319 -88 q 252 -136 268 -114 l 252 -137 q 270 -133 260 -134 q 289 -131 279 -131 q 331 -143 313 -131 q 349 -184 349 -156 q 331 -224 349 -211 q 283 -238 313 -238 q 237 -226 256 -238 q 210 -200 218 -214 l 210 -201 q 247 -255 220 -232 q 317 -277 273 -277 z "},"Ł":{"ha":711,"x_min":39,"x_max":715,"o":"m 648 0 l 715 240 l 713 240 q 660 142 689 184 q 592 71 631 100 q 503 26 554 41 q 382 7 451 10 l 241 1 l 430 888 q 447 940 437 922 q 474 966 457 958 q 521 979 492 975 l 521 979 l 248 979 l 248 979 q 290 966 276 975 q 306 940 304 958 q 300 888 307 922 l 130 91 q 114 40 123 58 q 87 13 104 22 q 40 1 70 5 l 39 0 l 648 0 m 144 496 l 591 631 l 591 635 l 145 500 l 144 496 z "},"M":{"ha":1084,"x_min":7,"x_max":1229,"o":"m 503 0 l 583 140 l 1018 904 l 1017 904 l 876 87 q 861 40 870 57 q 833 15 851 23 q 785 1 816 6 l 785 0 l 1061 0 l 1061 1 q 1018 15 1031 7 q 1003 40 1004 24 q 1006 87 1001 57 l 1145 892 q 1159 937 1151 920 q 1184 963 1168 954 q 1229 979 1200 972 l 1229 979 l 1033 979 l 581 140 l 582 140 l 451 979 l 267 979 l 267 979 q 303 960 290 973 q 318 922 316 946 q 311 859 321 897 l 138 186 q 104 80 120 117 q 65 25 87 42 q 7 1 43 8 l 7 0 l 214 0 l 214 1 q 166 16 183 6 q 143 47 149 26 q 142 101 138 67 q 158 186 146 135 l 325 906 l 323 906 l 474 0 l 503 0 z "},"Ḿ":{"ha":1084,"x_min":7,"x_max":1229,"o":"m 503 0 l 583 140 l 1018 904 l 1017 904 l 876 87 q 861 40 870 57 q 833 15 851 23 q 785 1 816 6 l 785 0 l 1061 0 l 1061 1 q 1018 15 1031 7 q 1003 40 1004 24 q 1006 87 1001 57 l 1145 892 q 1159 937 1151 920 q 1184 963 1168 954 q 1229 979 1200 972 l 1229 979 l 1033 979 l 581 140 l 582 140 l 451 979 l 267 979 l 267 979 q 303 960 290 973 q 318 922 316 946 q 311 859 321 897 l 138 186 q 104 80 120 117 q 65 25 87 42 q 7 1 43 8 l 7 0 l 214 0 l 214 1 q 166 16 183 6 q 143 47 149 26 q 142 101 138 67 q 158 186 146 135 l 325 906 l 323 906 l 474 0 l 503 0 m 839 1199 l 715 1025 l 716 1025 l 967 1198 l 967 1200 l 839 1199 z "},"Ṁ":{"ha":1084,"x_min":7,"x_max":1229,"o":"m 503 0 l 583 140 l 1018 904 l 1017 904 l 876 87 q 861 40 870 57 q 833 15 851 23 q 785 1 816 6 l 785 0 l 1061 0 l 1061 1 q 1018 15 1031 7 q 1003 40 1004 24 q 1006 87 1001 57 l 1145 892 q 1159 937 1151 920 q 1184 963 1168 954 q 1229 979 1200 972 l 1229 979 l 1033 979 l 581 140 l 582 140 l 451 979 l 267 979 l 267 979 q 303 960 290 973 q 318 922 316 946 q 311 859 321 897 l 138 186 q 104 80 120 117 q 65 25 87 42 q 7 1 43 8 l 7 0 l 214 0 l 214 1 q 166 16 183 6 q 143 47 149 26 q 142 101 138 67 q 158 186 146 135 l 325 906 l 323 906 l 474 0 l 503 0 m 772 1057 q 812 1073 796 1057 q 829 1112 829 1089 q 813 1152 829 1135 q 774 1168 797 1168 q 733 1152 750 1168 q 717 1112 717 1135 q 733 1073 717 1089 q 772 1057 749 1057 z "},"Ṃ":{"ha":1084,"x_min":7,"x_max":1229,"o":"m 503 0 l 583 140 l 1018 904 l 1017 904 l 876 87 q 861 40 870 57 q 833 15 851 23 q 785 1 816 6 l 785 0 l 1061 0 l 1061 1 q 1018 15 1031 7 q 1003 40 1004 24 q 1006 87 1001 57 l 1145 892 q 1159 937 1151 920 q 1184 963 1168 954 q 1229 979 1200 972 l 1229 979 l 1033 979 l 581 140 l 582 140 l 451 979 l 267 979 l 267 979 q 303 960 290 973 q 318 922 316 946 q 311 859 321 897 l 138 186 q 104 80 120 117 q 65 25 87 42 q 7 1 43 8 l 7 0 l 214 0 l 214 1 q 166 16 183 6 q 143 47 149 26 q 142 101 138 67 q 158 186 146 135 l 325 906 l 323 906 l 474 0 l 503 0 m 451 -130 q 410 -146 427 -130 q 394 -186 394 -163 q 410 -225 394 -209 q 449 -241 426 -241 q 489 -225 473 -241 q 506 -186 506 -209 q 490 -146 506 -163 q 451 -130 473 -130 z "},"N":{"ha":882,"x_min":5,"x_max":1057,"o":"m 412 979 l 227 979 l 227 979 q 266 955 251 970 q 283 914 280 940 q 277 846 287 888 l 134 201 q 103 84 117 125 q 67 25 89 43 q 5 1 45 7 l 5 0 l 213 0 l 213 1 q 166 16 183 5 q 142 48 149 27 q 140 107 136 70 q 154 201 143 144 l 293 909 l 293 909 l 736 0 l 759 0 l 928 779 q 959 895 945 854 q 996 955 974 937 q 1057 979 1018 972 l 1057 979 l 850 979 l 850 979 q 907 955 890 972 q 924 896 924 937 q 909 779 923 854 l 796 181 l 796 181 l 412 979 z "},"Ń":{"ha":882,"x_min":5,"x_max":1057,"o":"m 412 979 l 227 979 l 227 979 q 266 955 251 970 q 283 914 280 940 q 277 846 287 888 l 134 201 q 103 84 117 125 q 67 25 89 43 q 5 1 45 7 l 5 0 l 213 0 l 213 1 q 166 16 183 5 q 142 48 149 27 q 140 107 136 70 q 154 201 143 144 l 293 909 l 293 909 l 736 0 l 759 0 l 928 779 q 959 895 945 854 q 996 955 974 937 q 1057 979 1018 972 l 1057 979 l 850 979 l 850 979 q 907 955 890 972 q 924 896 924 937 q 909 779 923 854 l 796 181 l 796 181 l 412 979 m 753 1200 l 629 1025 l 631 1025 l 882 1199 l 882 1200 l 753 1200 z "},"Ǹ":{"ha":882,"x_min":5,"x_max":1057,"o":"m 412 979 l 227 979 l 227 979 q 266 955 251 970 q 283 914 280 940 q 277 846 287 888 l 134 201 q 103 84 117 125 q 67 25 89 43 q 5 1 45 7 l 5 0 l 213 0 l 213 1 q 166 16 183 5 q 142 48 149 27 q 140 107 136 70 q 154 201 143 144 l 293 909 l 293 909 l 736 0 l 759 0 l 928 779 q 959 895 945 854 q 996 955 974 937 q 1057 979 1018 972 l 1057 979 l 850 979 l 850 979 q 907 955 890 972 q 924 896 924 937 q 909 779 923 854 l 796 181 l 796 181 l 412 979 m 654 1199 l 540 1199 l 540 1198 l 715 1024 l 717 1024 l 654 1199 z "},"Ṋ":{"ha":882,"x_min":5,"x_max":1057,"o":"m 412 979 l 227 979 l 227 979 q 266 955 251 970 q 283 914 280 940 q 277 846 287 888 l 134 201 q 103 84 117 125 q 67 25 89 43 q 5 1 45 7 l 5 0 l 213 0 l 213 1 q 166 16 183 5 q 142 48 149 27 q 140 107 136 70 q 154 201 143 144 l 293 909 l 293 909 l 736 0 l 759 0 l 928 779 q 959 895 945 854 q 996 955 974 937 q 1057 979 1018 972 l 1057 979 l 850 979 l 850 979 q 907 955 890 972 q 924 896 924 937 q 909 779 923 854 l 796 181 l 796 181 l 412 979 z "},"Ň":{"ha":882,"x_min":5,"x_max":1057,"o":"m 412 979 l 227 979 l 227 979 q 266 955 251 970 q 283 914 280 940 q 277 846 287 888 l 134 201 q 103 84 117 125 q 67 25 89 43 q 5 1 45 7 l 5 0 l 213 0 l 213 1 q 166 16 183 5 q 142 48 149 27 q 140 107 136 70 q 154 201 143 144 l 293 909 l 293 909 l 736 0 l 759 0 l 928 779 q 959 895 945 854 q 996 955 974 937 q 1057 979 1018 972 l 1057 979 l 850 979 l 850 979 q 907 955 890 972 q 924 896 924 937 q 909 779 923 854 l 796 181 l 796 181 l 412 979 m 844 1208 l 655 1080 l 704 1080 l 570 1208 l 569 1208 l 646 1036 l 700 1036 l 846 1208 l 844 1208 z "},"Ñ":{"ha":882,"x_min":5,"x_max":1057,"o":"m 412 979 l 227 979 l 227 979 q 266 955 251 970 q 283 914 280 940 q 277 846 287 888 l 134 201 q 103 84 117 125 q 67 25 89 43 q 5 1 45 7 l 5 0 l 213 0 l 213 1 q 166 16 183 5 q 142 48 149 27 q 140 107 136 70 q 154 201 143 144 l 293 909 l 293 909 l 736 0 l 759 0 l 928 779 q 959 895 945 854 q 996 955 974 937 q 1057 979 1018 972 l 1057 979 l 850 979 l 850 979 q 907 955 890 972 q 924 896 924 937 q 909 779 923 854 l 796 181 l 796 181 l 412 979 m 739 1069 q 780 1080 762 1069 q 810 1120 798 1092 q 829 1196 823 1147 l 828 1196 q 807 1143 820 1161 q 774 1125 795 1125 q 750 1131 761 1125 q 722 1149 739 1137 l 705 1161 q 675 1180 690 1173 q 641 1187 660 1187 q 601 1175 618 1187 q 570 1136 583 1163 q 551 1060 558 1108 l 552 1060 q 573 1112 560 1094 q 606 1131 585 1131 q 630 1124 619 1131 q 658 1107 642 1118 l 675 1095 q 705 1076 690 1083 q 739 1069 720 1069 z "},"Ṉ":{"ha":882,"x_min":5,"x_max":1057,"o":"m 412 979 l 227 979 l 227 979 q 266 955 251 970 q 283 914 280 940 q 277 846 287 888 l 134 201 q 103 84 117 125 q 67 25 89 43 q 5 1 45 7 l 5 0 l 213 0 l 213 1 q 166 16 183 5 q 142 48 149 27 q 140 107 136 70 q 154 201 143 144 l 293 909 l 293 909 l 736 0 l 759 0 l 928 779 q 959 895 945 854 q 996 955 974 937 q 1057 979 1018 972 l 1057 979 l 850 979 l 850 979 q 907 955 890 972 q 924 896 924 937 q 909 779 923 854 l 796 181 l 796 181 l 412 979 z "},"Ṅ":{"ha":882,"x_min":5,"x_max":1057,"o":"m 412 979 l 227 979 l 227 979 q 266 955 251 970 q 283 914 280 940 q 277 846 287 888 l 134 201 q 103 84 117 125 q 67 25 89 43 q 5 1 45 7 l 5 0 l 213 0 l 213 1 q 166 16 183 5 q 142 48 149 27 q 140 107 136 70 q 154 201 143 144 l 293 909 l 293 909 l 736 0 l 759 0 l 928 779 q 959 895 945 854 q 996 955 974 937 q 1057 979 1018 972 l 1057 979 l 850 979 l 850 979 q 907 955 890 972 q 924 896 924 937 q 909 779 923 854 l 796 181 l 796 181 l 412 979 m 686 1057 q 727 1074 711 1057 q 743 1113 743 1090 q 727 1152 743 1136 q 688 1168 711 1168 q 648 1152 665 1168 q 631 1113 631 1136 q 648 1074 631 1090 q 686 1057 664 1057 z "},"Ṇ":{"ha":882,"x_min":5,"x_max":1057,"o":"m 412 979 l 227 979 l 227 979 q 266 955 251 970 q 283 914 280 940 q 277 846 287 888 l 134 201 q 103 84 117 125 q 67 25 89 43 q 5 1 45 7 l 5 0 l 213 0 l 213 1 q 166 16 183 5 q 142 48 149 27 q 140 107 136 70 q 154 201 143 144 l 293 909 l 293 909 l 736 0 l 759 0 l 928 779 q 959 895 945 854 q 996 955 974 937 q 1057 979 1018 972 l 1057 979 l 850 979 l 850 979 q 907 955 890 972 q 924 896 924 937 q 909 779 923 854 l 796 181 l 796 181 l 412 979 m 395 -130 q 355 -146 371 -130 q 338 -186 338 -163 q 354 -225 338 -209 q 393 -241 370 -241 q 434 -225 417 -241 q 450 -186 450 -209 q 434 -146 450 -163 q 395 -130 418 -130 z "},"Ņ":{"ha":882,"x_min":5,"x_max":1057,"o":"m 412 979 l 227 979 l 227 979 q 266 955 251 970 q 283 914 280 940 q 277 846 287 888 l 134 201 q 103 84 117 125 q 67 25 89 43 q 5 1 45 7 l 5 0 l 213 0 l 213 1 q 166 16 183 5 q 142 48 149 27 q 140 107 136 70 q 154 201 143 144 l 293 909 l 293 909 l 736 0 l 759 0 l 928 779 q 959 895 945 854 q 996 955 974 937 q 1057 979 1018 972 l 1057 979 l 850 979 l 850 979 q 907 955 890 972 q 924 896 924 937 q 909 779 923 854 l 796 181 l 796 181 l 412 979 m 387 -277 q 475 -250 439 -277 q 510 -183 510 -223 q 481 -112 510 -136 q 420 -88 452 -88 q 363 -101 389 -88 q 322 -136 338 -114 l 322 -137 q 339 -133 330 -134 q 359 -131 349 -131 q 400 -143 382 -131 q 418 -184 418 -156 q 400 -224 418 -211 q 353 -238 382 -238 q 307 -226 326 -238 q 279 -200 288 -214 l 279 -201 q 317 -255 290 -232 q 387 -277 343 -277 z "},"O":{"ha":1039,"x_min":166,"x_max":1082,"o":"m 577 -9 q 772 34 681 -9 q 933 154 864 77 q 1042 336 1003 231 q 1082 564 1082 440 q 1050 746 1082 667 q 963 879 1019 825 q 832 961 907 933 q 671 988 758 988 q 475 945 567 988 q 314 825 384 903 q 205 643 245 747 q 166 415 166 538 q 197 233 166 312 q 285 100 229 154 q 416 18 341 45 q 577 -9 490 -9 m 561 -7 q 377 87 445 -7 q 309 358 309 182 q 335 581 309 469 q 412 783 362 692 q 532 930 463 875 q 687 985 602 985 q 871 891 802 985 q 939 621 939 797 q 909 373 939 487 q 826 173 879 258 q 706 40 774 87 q 561 -7 637 -7 z "},"Ó":{"ha":1039,"x_min":166,"x_max":1082,"o":"m 577 -9 q 772 34 681 -9 q 933 154 864 77 q 1042 336 1003 231 q 1082 564 1082 440 q 1050 746 1082 667 q 963 879 1019 825 q 832 961 907 933 q 671 988 758 988 q 475 945 567 988 q 314 825 384 903 q 205 643 245 747 q 166 415 166 538 q 197 233 166 312 q 285 100 229 154 q 416 18 341 45 q 577 -9 490 -9 m 561 -7 q 377 87 445 -7 q 309 358 309 182 q 335 581 309 469 q 412 783 362 692 q 532 930 463 875 q 687 985 602 985 q 871 891 802 985 q 939 621 939 797 q 909 373 939 487 q 826 173 879 258 q 706 40 774 87 q 561 -7 637 -7 m 785 1200 l 661 1025 l 662 1025 l 913 1199 l 913 1200 l 785 1200 z "},"Ò":{"ha":1039,"x_min":166,"x_max":1082,"o":"m 577 -9 q 772 34 681 -9 q 933 154 864 77 q 1042 336 1003 231 q 1082 564 1082 440 q 1050 746 1082 667 q 963 879 1019 825 q 832 961 907 933 q 671 988 758 988 q 475 945 567 988 q 314 825 384 903 q 205 643 245 747 q 166 415 166 538 q 197 233 166 312 q 285 100 229 154 q 416 18 341 45 q 577 -9 490 -9 m 561 -7 q 377 87 445 -7 q 309 358 309 182 q 335 581 309 469 q 412 783 362 692 q 532 930 463 875 q 687 985 602 985 q 871 891 802 985 q 939 621 939 797 q 909 373 939 487 q 826 173 879 258 q 706 40 774 87 q 561 -7 637 -7 m 686 1199 l 571 1199 l 571 1198 l 747 1024 l 748 1024 l 686 1199 z "},"Ő":{"ha":1039,"x_min":166,"x_max":1082,"o":"m 577 -9 q 772 34 681 -9 q 933 154 864 77 q 1042 336 1003 231 q 1082 564 1082 440 q 1050 746 1082 667 q 963 879 1019 825 q 832 961 907 933 q 671 988 758 988 q 475 945 567 988 q 314 825 384 903 q 205 643 245 747 q 166 415 166 538 q 197 233 166 312 q 285 100 229 154 q 416 18 341 45 q 577 -9 490 -9 m 561 -7 q 377 87 445 -7 q 309 358 309 182 q 335 581 309 469 q 412 783 362 692 q 532 930 463 875 q 687 985 602 985 q 871 891 802 985 q 939 621 939 797 q 909 373 939 487 q 826 173 879 258 q 706 40 774 87 q 561 -7 637 -7 m 688 1200 l 596 1025 l 597 1025 l 807 1199 l 807 1200 l 688 1200 m 887 1200 l 769 1025 l 770 1025 l 1010 1199 l 1010 1200 l 887 1200 z "},"Ȍ":{"ha":1039,"x_min":166,"x_max":1082,"o":"m 577 -9 q 772 34 681 -9 q 933 154 864 77 q 1042 336 1003 231 q 1082 564 1082 440 q 1050 746 1082 667 q 963 879 1019 825 q 832 961 907 933 q 671 988 758 988 q 475 945 567 988 q 314 825 384 903 q 205 643 245 747 q 166 415 166 538 q 197 233 166 312 q 285 100 229 154 q 416 18 341 45 q 577 -9 490 -9 m 561 -7 q 377 87 445 -7 q 309 358 309 182 q 335 581 309 469 q 412 783 362 692 q 532 930 463 875 q 687 985 602 985 q 871 891 802 985 q 939 621 939 797 q 909 373 939 487 q 826 173 879 258 q 706 40 774 87 q 561 -7 637 -7 m 568 1199 l 460 1199 l 460 1198 l 641 1024 l 642 1024 l 568 1199 m 753 1199 l 649 1199 l 649 1198 l 800 1024 l 802 1024 l 753 1199 z "},"Ô":{"ha":1039,"x_min":166,"x_max":1082,"o":"m 577 -9 q 772 34 681 -9 q 933 154 864 77 q 1042 336 1003 231 q 1082 564 1082 440 q 1050 746 1082 667 q 963 879 1019 825 q 832 961 907 933 q 671 988 758 988 q 475 945 567 988 q 314 825 384 903 q 205 643 245 747 q 166 415 166 538 q 197 233 166 312 q 285 100 229 154 q 416 18 341 45 q 577 -9 490 -9 m 561 -7 q 377 87 445 -7 q 309 358 309 182 q 335 581 309 469 q 412 783 362 692 q 532 930 463 875 q 687 985 602 985 q 871 891 802 985 q 939 621 939 797 q 909 373 939 487 q 826 173 879 258 q 706 40 774 87 q 561 -7 637 -7 m 562 1025 l 758 1152 l 707 1152 l 846 1025 l 848 1025 l 769 1200 l 710 1200 l 562 1025 l 562 1025 z "},"Ố":{"ha":1039,"x_min":166,"x_max":1082,"o":"m 577 -9 q 772 34 681 -9 q 933 154 864 77 q 1042 336 1003 231 q 1082 564 1082 440 q 1050 746 1082 667 q 963 879 1019 825 q 832 961 907 933 q 671 988 758 988 q 475 945 567 988 q 314 825 384 903 q 205 643 245 747 q 166 415 166 538 q 197 233 166 312 q 285 100 229 154 q 416 18 341 45 q 577 -9 490 -9 m 561 -7 q 377 87 445 -7 q 309 358 309 182 q 335 581 309 469 q 412 783 362 692 q 532 930 463 875 q 687 985 602 985 q 871 891 802 985 q 939 621 939 797 q 909 373 939 487 q 826 173 879 258 q 706 40 774 87 q 561 -7 637 -7 m 547 1031 l 721 1093 l 705 1093 l 852 1031 l 852 1031 l 732 1158 l 721 1158 l 547 1031 l 547 1031 m 895 1225 l 910 1296 l 579 1177 l 579 1177 l 895 1225 z "},"Ồ":{"ha":1039,"x_min":166,"x_max":1082,"o":"m 577 -9 q 772 34 681 -9 q 933 154 864 77 q 1042 336 1003 231 q 1082 564 1082 440 q 1050 746 1082 667 q 963 879 1019 825 q 832 961 907 933 q 671 988 758 988 q 475 945 567 988 q 314 825 384 903 q 205 643 245 747 q 166 415 166 538 q 197 233 166 312 q 285 100 229 154 q 416 18 341 45 q 577 -9 490 -9 m 561 -7 q 377 87 445 -7 q 309 358 309 182 q 335 581 309 469 q 412 783 362 692 q 532 930 463 875 q 687 985 602 985 q 871 891 802 985 q 939 621 939 797 q 909 373 939 487 q 826 173 879 258 q 706 40 774 87 q 561 -7 637 -7 m 547 1031 l 721 1093 l 705 1093 l 852 1031 l 852 1031 l 732 1158 l 721 1158 l 547 1031 l 547 1031 m 589 1225 l 885 1177 l 885 1177 l 604 1296 l 589 1225 z "},"Ỗ":{"ha":1039,"x_min":166,"x_max":1082,"o":"m 577 -9 q 772 34 681 -9 q 933 154 864 77 q 1042 336 1003 231 q 1082 564 1082 440 q 1050 746 1082 667 q 963 879 1019 825 q 832 961 907 933 q 671 988 758 988 q 475 945 567 988 q 314 825 384 903 q 205 643 245 747 q 166 415 166 538 q 197 233 166 312 q 285 100 229 154 q 416 18 341 45 q 577 -9 490 -9 m 561 -7 q 377 87 445 -7 q 309 358 309 182 q 335 581 309 469 q 412 783 362 692 q 532 930 463 875 q 687 985 602 985 q 871 891 802 985 q 939 621 939 797 q 909 373 939 487 q 826 173 879 258 q 706 40 774 87 q 561 -7 637 -7 m 547 1031 l 721 1093 l 705 1093 l 852 1031 l 852 1031 l 732 1158 l 721 1158 l 547 1031 l 547 1031 m 806 1197 q 872 1221 846 1197 q 909 1290 899 1245 l 908 1290 q 884 1254 901 1264 q 843 1243 867 1243 q 814 1246 829 1243 q 780 1256 799 1250 l 762 1262 q 725 1272 745 1267 q 682 1276 705 1276 q 616 1252 642 1276 q 580 1183 589 1227 l 581 1183 q 604 1219 587 1208 q 645 1230 621 1230 q 674 1226 659 1230 q 709 1217 690 1223 l 726 1211 q 764 1201 744 1205 q 806 1197 783 1197 z "},"Ổ":{"ha":1039,"x_min":166,"x_max":1082,"o":"m 577 -9 q 772 34 681 -9 q 933 154 864 77 q 1042 336 1003 231 q 1082 564 1082 440 q 1050 746 1082 667 q 963 879 1019 825 q 832 961 907 933 q 671 988 758 988 q 475 945 567 988 q 314 825 384 903 q 205 643 245 747 q 166 415 166 538 q 197 233 166 312 q 285 100 229 154 q 416 18 341 45 q 577 -9 490 -9 m 561 -7 q 377 87 445 -7 q 309 358 309 182 q 335 581 309 469 q 412 783 362 692 q 532 930 463 875 q 687 985 602 985 q 871 891 802 985 q 939 621 939 797 q 909 373 939 487 q 826 173 879 258 q 706 40 774 87 q 561 -7 637 -7 m 547 1031 l 721 1093 l 705 1093 l 852 1031 l 852 1031 l 732 1158 l 721 1158 l 547 1031 l 547 1031 m 885 1265 q 821 1248 846 1265 q 781 1214 796 1231 l 781 1213 q 803 1223 789 1219 q 834 1227 817 1227 q 874 1216 860 1227 q 884 1186 888 1205 q 865 1155 880 1168 q 824 1134 849 1141 l 824 1133 q 918 1159 886 1143 q 956 1203 949 1175 q 940 1248 962 1231 q 885 1265 919 1265 z "},"Ộ":{"ha":1039,"x_min":166,"x_max":1082,"o":"m 577 -9 q 772 34 681 -9 q 933 154 864 77 q 1042 336 1003 231 q 1082 564 1082 440 q 1050 746 1082 667 q 963 879 1019 825 q 832 961 907 933 q 671 988 758 988 q 475 945 567 988 q 314 825 384 903 q 205 643 245 747 q 166 415 166 538 q 197 233 166 312 q 285 100 229 154 q 416 18 341 45 q 577 -9 490 -9 m 561 -7 q 377 87 445 -7 q 309 358 309 182 q 335 581 309 469 q 412 783 362 692 q 532 930 463 875 q 687 985 602 985 q 871 891 802 985 q 939 621 939 797 q 909 373 939 487 q 826 173 879 258 q 706 40 774 87 q 561 -7 637 -7 m 562 1025 l 758 1152 l 707 1152 l 846 1025 l 848 1025 l 769 1200 l 710 1200 l 562 1025 l 562 1025 m 528 -130 q 488 -146 504 -130 q 471 -186 471 -163 q 487 -225 471 -209 q 526 -241 503 -241 q 567 -225 550 -241 q 583 -186 583 -209 q 567 -146 583 -163 q 528 -130 551 -130 z "},"Ǒ":{"ha":1039,"x_min":166,"x_max":1082,"o":"m 577 -9 q 772 34 681 -9 q 933 154 864 77 q 1042 336 1003 231 q 1082 564 1082 440 q 1050 746 1082 667 q 963 879 1019 825 q 832 961 907 933 q 671 988 758 988 q 475 945 567 988 q 314 825 384 903 q 205 643 245 747 q 166 415 166 538 q 197 233 166 312 q 285 100 229 154 q 416 18 341 45 q 577 -9 490 -9 m 561 -7 q 377 87 445 -7 q 309 358 309 182 q 335 581 309 469 q 412 783 362 692 q 532 930 463 875 q 687 985 602 985 q 871 891 802 985 q 939 621 939 797 q 909 373 939 487 q 826 173 879 258 q 706 40 774 87 q 561 -7 637 -7 m 876 1208 l 686 1080 l 735 1080 l 602 1208 l 600 1208 l 677 1036 l 731 1036 l 877 1208 l 876 1208 z "},"Ŏ":{"ha":1039,"x_min":166,"x_max":1082,"o":"m 577 -9 q 772 34 681 -9 q 933 154 864 77 q 1042 336 1003 231 q 1082 564 1082 440 q 1050 746 1082 667 q 963 879 1019 825 q 832 961 907 933 q 671 988 758 988 q 475 945 567 988 q 314 825 384 903 q 205 643 245 747 q 166 415 166 538 q 197 233 166 312 q 285 100 229 154 q 416 18 341 45 q 577 -9 490 -9 m 561 -7 q 377 87 445 -7 q 309 358 309 182 q 335 581 309 469 q 412 783 362 692 q 532 930 463 875 q 687 985 602 985 q 871 891 802 985 q 939 621 939 797 q 909 373 939 487 q 826 173 879 258 q 706 40 774 87 q 561 -7 637 -7 m 723 1072 q 802 1093 768 1072 q 856 1153 836 1114 q 879 1249 876 1193 l 878 1249 q 831 1171 867 1199 q 724 1143 795 1143 q 644 1167 675 1143 q 612 1230 612 1191 q 613 1240 612 1235 q 615 1249 614 1244 l 614 1249 q 605 1218 608 1234 q 602 1187 602 1202 q 617 1128 602 1154 q 660 1086 633 1101 q 723 1072 687 1072 z "},"Ȏ":{"ha":1039,"x_min":166,"x_max":1082,"o":"m 577 -9 q 772 34 681 -9 q 933 154 864 77 q 1042 336 1003 231 q 1082 564 1082 440 q 1050 746 1082 667 q 963 879 1019 825 q 832 961 907 933 q 671 988 758 988 q 475 945 567 988 q 314 825 384 903 q 205 643 245 747 q 166 415 166 538 q 197 233 166 312 q 285 100 229 154 q 416 18 341 45 q 577 -9 490 -9 m 561 -7 q 377 87 445 -7 q 309 358 309 182 q 335 581 309 469 q 412 783 362 692 q 532 930 463 875 q 687 985 602 985 q 871 891 802 985 q 939 621 939 797 q 909 373 939 487 q 826 173 879 258 q 706 40 774 87 q 561 -7 637 -7 m 734 1249 q 655 1227 689 1249 q 601 1167 621 1206 q 578 1072 581 1128 l 578 1072 q 626 1149 589 1121 q 732 1177 662 1177 q 813 1154 783 1177 q 844 1090 844 1130 q 844 1080 844 1085 q 842 1072 843 1076 l 842 1072 q 852 1102 849 1087 q 854 1133 854 1118 q 839 1193 854 1166 q 797 1234 824 1219 q 734 1249 770 1249 z "},"Ö":{"ha":1039,"x_min":166,"x_max":1082,"o":"m 577 -9 q 772 34 681 -9 q 933 154 864 77 q 1042 336 1003 231 q 1082 564 1082 440 q 1050 746 1082 667 q 963 879 1019 825 q 832 961 907 933 q 671 988 758 988 q 475 945 567 988 q 314 825 384 903 q 205 643 245 747 q 166 415 166 538 q 197 233 166 312 q 285 100 229 154 q 416 18 341 45 q 577 -9 490 -9 m 561 -7 q 377 87 445 -7 q 309 358 309 182 q 335 581 309 469 q 412 783 362 692 q 532 930 463 875 q 687 985 602 985 q 871 891 802 985 q 939 621 939 797 q 909 373 939 487 q 826 173 879 258 q 706 40 774 87 q 561 -7 637 -7 z "},"Ȫ":{"ha":1039,"x_min":166,"x_max":1082,"o":"m 577 -9 q 772 34 681 -9 q 933 154 864 77 q 1042 336 1003 231 q 1082 564 1082 440 q 1050 746 1082 667 q 963 879 1019 825 q 832 961 907 933 q 671 988 758 988 q 475 945 567 988 q 314 825 384 903 q 205 643 245 747 q 166 415 166 538 q 197 233 166 312 q 285 100 229 154 q 416 18 341 45 q 577 -9 490 -9 m 561 -7 q 377 87 445 -7 q 309 358 309 182 q 335 581 309 469 q 412 783 362 692 q 532 930 463 875 q 687 985 602 985 q 871 891 802 985 q 939 621 939 797 q 909 373 939 487 q 826 173 879 258 q 706 40 774 87 q 561 -7 637 -7 m 623 1072 q 661 1085 644 1072 q 682 1116 677 1097 q 674 1148 686 1135 q 642 1160 663 1160 l 641 1160 q 603 1148 620 1160 q 582 1116 586 1135 q 589 1085 578 1097 q 622 1072 601 1072 l 623 1072 m 797 1072 q 834 1085 818 1072 q 855 1116 851 1097 q 848 1148 859 1135 q 816 1160 837 1160 l 814 1160 q 777 1148 793 1160 q 755 1116 760 1135 q 763 1085 751 1097 q 795 1072 774 1072 l 797 1072 m 589 1226 l 895 1226 l 905 1276 l 600 1276 l 589 1226 z "},"Õ":{"ha":1039,"x_min":166,"x_max":1082,"o":"m 577 -9 q 772 34 681 -9 q 933 154 864 77 q 1042 336 1003 231 q 1082 564 1082 440 q 1050 746 1082 667 q 963 879 1019 825 q 832 961 907 933 q 671 988 758 988 q 475 945 567 988 q 314 825 384 903 q 205 643 245 747 q 166 415 166 538 q 197 233 166 312 q 285 100 229 154 q 416 18 341 45 q 577 -9 490 -9 m 561 -7 q 377 87 445 -7 q 309 358 309 182 q 335 581 309 469 q 412 783 362 692 q 532 930 463 875 q 687 985 602 985 q 871 891 802 985 q 939 621 939 797 q 909 373 939 487 q 826 173 879 258 q 706 40 774 87 q 561 -7 637 -7 m 770 1069 q 811 1080 793 1069 q 841 1120 829 1092 q 860 1196 854 1147 l 859 1196 q 839 1143 851 1161 q 805 1125 826 1125 q 781 1131 792 1125 q 753 1149 770 1137 l 736 1161 q 706 1180 721 1173 q 672 1187 691 1187 q 632 1175 650 1187 q 602 1136 614 1163 q 583 1060 589 1108 l 583 1060 q 604 1112 591 1094 q 637 1131 616 1131 q 662 1124 650 1131 q 689 1107 673 1118 l 706 1095 q 736 1076 722 1083 q 770 1069 751 1069 z "},"Ṍ":{"ha":1039,"x_min":166,"x_max":1082,"o":"m 577 -9 q 772 34 681 -9 q 933 154 864 77 q 1042 336 1003 231 q 1082 564 1082 440 q 1050 746 1082 667 q 963 879 1019 825 q 832 961 907 933 q 671 988 758 988 q 475 945 567 988 q 314 825 384 903 q 205 643 245 747 q 166 415 166 538 q 197 233 166 312 q 285 100 229 154 q 416 18 341 45 q 577 -9 490 -9 m 561 -7 q 377 87 445 -7 q 309 358 309 182 q 335 581 309 469 q 412 783 362 692 q 532 930 463 875 q 687 985 602 985 q 871 891 802 985 q 939 621 939 797 q 909 373 939 487 q 826 173 879 258 q 706 40 774 87 q 561 -7 637 -7 m 781 1078 q 847 1102 821 1078 q 884 1171 873 1126 l 883 1171 q 859 1134 876 1145 q 818 1124 842 1124 q 789 1127 804 1124 q 755 1137 774 1131 l 736 1143 q 700 1152 720 1148 q 657 1156 680 1156 q 591 1132 617 1156 q 555 1063 564 1108 l 555 1063 q 579 1100 562 1089 q 620 1110 595 1110 q 649 1107 634 1110 q 684 1097 665 1103 l 701 1091 q 739 1082 719 1086 q 781 1078 758 1078 m 898 1240 l 913 1311 l 582 1192 l 582 1192 l 898 1240 z "},"Ṏ":{"ha":1039,"x_min":166,"x_max":1082,"o":"m 577 -9 q 772 34 681 -9 q 933 154 864 77 q 1042 336 1003 231 q 1082 564 1082 440 q 1050 746 1082 667 q 963 879 1019 825 q 832 961 907 933 q 671 988 758 988 q 475 945 567 988 q 314 825 384 903 q 205 643 245 747 q 166 415 166 538 q 197 233 166 312 q 285 100 229 154 q 416 18 341 45 q 577 -9 490 -9 m 561 -7 q 377 87 445 -7 q 309 358 309 182 q 335 581 309 469 q 412 783 362 692 q 532 930 463 875 q 687 985 602 985 q 871 891 802 985 q 939 621 939 797 q 909 373 939 487 q 826 173 879 258 q 706 40 774 87 q 561 -7 637 -7 m 781 1078 q 847 1102 821 1078 q 884 1171 873 1126 l 883 1171 q 859 1134 876 1145 q 818 1124 842 1124 q 789 1127 804 1124 q 755 1137 774 1131 l 736 1143 q 700 1152 720 1148 q 657 1156 680 1156 q 591 1132 617 1156 q 555 1063 564 1108 l 555 1063 q 579 1100 562 1089 q 620 1110 595 1110 q 649 1107 634 1110 q 684 1097 665 1103 l 701 1091 q 739 1082 719 1086 q 781 1078 758 1078 m 652 1207 q 689 1220 673 1207 q 710 1251 706 1232 q 703 1283 714 1270 q 671 1295 692 1295 l 669 1295 q 631 1283 648 1295 q 610 1251 614 1270 q 618 1220 606 1232 q 650 1207 629 1207 l 652 1207 m 825 1207 q 863 1220 846 1207 q 884 1251 880 1232 q 877 1283 888 1270 q 844 1295 865 1295 l 843 1295 q 805 1283 822 1295 q 784 1251 788 1270 q 791 1220 780 1232 q 824 1207 803 1207 l 825 1207 z "},"Ȭ":{"ha":1039,"x_min":166,"x_max":1082,"o":"m 577 -9 q 772 34 681 -9 q 933 154 864 77 q 1042 336 1003 231 q 1082 564 1082 440 q 1050 746 1082 667 q 963 879 1019 825 q 832 961 907 933 q 671 988 758 988 q 475 945 567 988 q 314 825 384 903 q 205 643 245 747 q 166 415 166 538 q 197 233 166 312 q 285 100 229 154 q 416 18 341 45 q 577 -9 490 -9 m 561 -7 q 377 87 445 -7 q 309 358 309 182 q 335 581 309 469 q 412 783 362 692 q 532 930 463 875 q 687 985 602 985 q 871 891 802 985 q 939 621 939 797 q 909 373 939 487 q 826 173 879 258 q 706 40 774 87 q 561 -7 637 -7 m 781 1078 q 847 1102 821 1078 q 884 1171 873 1126 l 883 1171 q 859 1134 876 1145 q 818 1124 842 1124 q 789 1127 804 1124 q 755 1137 774 1131 l 736 1143 q 700 1152 720 1148 q 657 1156 680 1156 q 591 1132 617 1156 q 555 1063 564 1108 l 555 1063 q 579 1100 562 1089 q 620 1110 595 1110 q 649 1107 634 1110 q 684 1097 665 1103 l 701 1091 q 739 1082 719 1086 q 781 1078 758 1078 m 589 1226 l 895 1226 l 905 1276 l 600 1276 l 589 1226 z "},"Ō":{"ha":1039,"x_min":166,"x_max":1082,"o":"m 577 -9 q 772 34 681 -9 q 933 154 864 77 q 1042 336 1003 231 q 1082 564 1082 440 q 1050 746 1082 667 q 963 879 1019 825 q 832 961 907 933 q 671 988 758 988 q 475 945 567 988 q 314 825 384 903 q 205 643 245 747 q 166 415 166 538 q 197 233 166 312 q 285 100 229 154 q 416 18 341 45 q 577 -9 490 -9 m 561 -7 q 377 87 445 -7 q 309 358 309 182 q 335 581 309 469 q 412 783 362 692 q 532 930 463 875 q 687 985 602 985 q 871 891 802 985 q 939 621 939 797 q 909 373 939 487 q 826 173 879 258 q 706 40 774 87 q 561 -7 637 -7 m 577 1089 l 849 1089 l 861 1147 l 589 1147 l 577 1089 z "},"Ṓ":{"ha":1039,"x_min":166,"x_max":1082,"o":"m 577 -9 q 772 34 681 -9 q 933 154 864 77 q 1042 336 1003 231 q 1082 564 1082 440 q 1050 746 1082 667 q 963 879 1019 825 q 832 961 907 933 q 671 988 758 988 q 475 945 567 988 q 314 825 384 903 q 205 643 245 747 q 166 415 166 538 q 197 233 166 312 q 285 100 229 154 q 416 18 341 45 q 577 -9 490 -9 m 561 -7 q 377 87 445 -7 q 309 358 309 182 q 335 581 309 469 q 412 783 362 692 q 532 930 463 875 q 687 985 602 985 q 871 891 802 985 q 939 621 939 797 q 909 373 939 487 q 826 173 879 258 q 706 40 774 87 q 561 -7 637 -7 m 561 1092 l 867 1092 l 877 1141 l 571 1141 l 561 1092 m 899 1241 l 913 1312 l 583 1193 l 583 1192 l 899 1241 z "},"Ṑ":{"ha":1039,"x_min":166,"x_max":1082,"o":"m 577 -9 q 772 34 681 -9 q 933 154 864 77 q 1042 336 1003 231 q 1082 564 1082 440 q 1050 746 1082 667 q 963 879 1019 825 q 832 961 907 933 q 671 988 758 988 q 475 945 567 988 q 314 825 384 903 q 205 643 245 747 q 166 415 166 538 q 197 233 166 312 q 285 100 229 154 q 416 18 341 45 q 577 -9 490 -9 m 561 -7 q 377 87 445 -7 q 309 358 309 182 q 335 581 309 469 q 412 783 362 692 q 532 930 463 875 q 687 985 602 985 q 871 891 802 985 q 939 621 939 797 q 909 373 939 487 q 826 173 879 258 q 706 40 774 87 q 561 -7 637 -7 m 561 1092 l 867 1092 l 877 1141 l 571 1141 l 561 1092 m 593 1241 l 888 1192 l 888 1193 l 608 1312 l 593 1241 z "},"Ỏ":{"ha":1039,"x_min":166,"x_max":1082,"o":"m 577 -9 q 772 34 681 -9 q 933 154 864 77 q 1042 336 1003 231 q 1082 564 1082 440 q 1050 746 1082 667 q 963 879 1019 825 q 832 961 907 933 q 671 988 758 988 q 475 945 567 988 q 314 825 384 903 q 205 643 245 747 q 166 415 166 538 q 197 233 166 312 q 285 100 229 154 q 416 18 341 45 q 577 -9 490 -9 m 561 -7 q 377 87 445 -7 q 309 358 309 182 q 335 581 309 469 q 412 783 362 692 q 532 930 463 875 q 687 985 602 985 q 871 891 802 985 q 939 621 939 797 q 909 373 939 487 q 826 173 879 258 q 706 40 774 87 q 561 -7 637 -7 m 738 1226 q 674 1208 703 1226 q 630 1158 646 1190 l 630 1157 q 660 1178 644 1171 q 695 1185 676 1185 q 737 1171 720 1185 q 753 1133 753 1157 q 731 1083 753 1108 q 663 1035 709 1059 l 664 1035 q 780 1088 743 1056 q 817 1158 817 1120 q 794 1208 817 1190 q 738 1226 771 1226 z "},"Ȯ":{"ha":1039,"x_min":166,"x_max":1082,"o":"m 577 -9 q 772 34 681 -9 q 933 154 864 77 q 1042 336 1003 231 q 1082 564 1082 440 q 1050 746 1082 667 q 963 879 1019 825 q 832 961 907 933 q 671 988 758 988 q 475 945 567 988 q 314 825 384 903 q 205 643 245 747 q 166 415 166 538 q 197 233 166 312 q 285 100 229 154 q 416 18 341 45 q 577 -9 490 -9 m 561 -7 q 377 87 445 -7 q 309 358 309 182 q 335 581 309 469 q 412 783 362 692 q 532 930 463 875 q 687 985 602 985 q 871 891 802 985 q 939 621 939 797 q 909 373 939 487 q 826 173 879 258 q 706 40 774 87 q 561 -7 637 -7 m 718 1057 q 758 1074 742 1057 q 774 1113 774 1090 q 759 1152 774 1136 q 720 1168 743 1168 q 679 1152 696 1168 q 663 1113 663 1136 q 679 1074 663 1090 q 718 1057 695 1057 z "},"Ȱ":{"ha":1039,"x_min":166,"x_max":1082,"o":"m 577 -9 q 772 34 681 -9 q 933 154 864 77 q 1042 336 1003 231 q 1082 564 1082 440 q 1050 746 1082 667 q 963 879 1019 825 q 832 961 907 933 q 671 988 758 988 q 475 945 567 988 q 314 825 384 903 q 205 643 245 747 q 166 415 166 538 q 197 233 166 312 q 285 100 229 154 q 416 18 341 45 q 577 -9 490 -9 m 561 -7 q 377 87 445 -7 q 309 358 309 182 q 335 581 309 469 q 412 783 362 692 q 532 930 463 875 q 687 985 602 985 q 871 891 802 985 q 939 621 939 797 q 909 373 939 487 q 826 173 879 258 q 706 40 774 87 q 561 -7 637 -7 m 720 1074 q 755 1086 741 1074 q 769 1117 769 1099 q 754 1147 769 1135 q 718 1160 739 1160 q 683 1147 696 1160 q 669 1117 669 1135 q 684 1086 669 1099 q 720 1074 699 1074 m 587 1213 l 892 1213 l 903 1263 l 597 1263 l 587 1213 z "},"Ọ":{"ha":1039,"x_min":166,"x_max":1082,"o":"m 577 -9 q 772 34 681 -9 q 933 154 864 77 q 1042 336 1003 231 q 1082 564 1082 440 q 1050 746 1082 667 q 963 879 1019 825 q 832 961 907 933 q 671 988 758 988 q 475 945 567 988 q 314 825 384 903 q 205 643 245 747 q 166 415 166 538 q 197 233 166 312 q 285 100 229 154 q 416 18 341 45 q 577 -9 490 -9 m 561 -7 q 377 87 445 -7 q 309 358 309 182 q 335 581 309 469 q 412 783 362 692 q 532 930 463 875 q 687 985 602 985 q 871 891 802 985 q 939 621 939 797 q 909 373 939 487 q 826 173 879 258 q 706 40 774 87 q 561 -7 637 -7 m 528 -130 q 488 -146 504 -130 q 471 -186 471 -163 q 487 -225 471 -209 q 526 -241 503 -241 q 567 -225 550 -241 q 583 -186 583 -209 q 567 -146 583 -163 q 528 -130 551 -130 z "},"Ǫ":{"ha":1039,"x_min":165,"x_max":1082,"o":"m 577 -9 q 772 33 681 -9 q 933 154 864 76 q 1042 336 1003 231 q 1082 564 1082 440 q 1050 746 1082 667 q 963 879 1019 825 q 832 960 907 932 q 671 988 758 988 q 475 945 566 988 q 314 825 383 903 q 205 643 244 747 q 165 415 165 538 q 197 233 165 312 q 284 100 229 154 q 415 18 340 46 q 577 -9 490 -9 m 561 -7 q 377 87 446 -7 q 309 358 309 182 q 321 508 309 433 q 356 653 333 583 q 412 783 379 723 q 488 889 446 844 q 580 960 530 935 q 687 985 630 985 q 871 891 802 985 q 939 621 939 797 q 926 450 939 531 q 887 299 912 369 q 827 173 861 229 q 750 76 792 117 q 660 15 707 36 q 561 -7 612 -7 m 537 -317 q 601 -296 575 -317 q 639 -242 627 -275 l 639 -241 q 593 -262 620 -262 q 557 -249 572 -262 q 534 -210 542 -235 q 526 -151 526 -185 q 536 -75 526 -112 q 567 -7 547 -38 l 566 -7 q 472 -113 507 -60 q 437 -219 437 -166 q 465 -290 437 -262 q 537 -317 494 -317 z "},"Ǭ":{"ha":1039,"x_min":165,"x_max":1082,"o":"m 577 -9 q 772 33 681 -9 q 933 154 864 76 q 1042 336 1003 231 q 1082 564 1082 440 q 1050 746 1082 667 q 963 879 1019 825 q 832 960 907 932 q 671 988 758 988 q 475 945 566 988 q 314 825 383 903 q 205 643 244 747 q 165 415 165 538 q 197 233 165 312 q 284 100 229 154 q 415 18 340 46 q 577 -9 490 -9 m 561 -7 q 377 87 446 -7 q 309 358 309 182 q 321 508 309 433 q 356 653 333 583 q 412 783 379 723 q 488 889 446 844 q 580 960 530 935 q 687 985 630 985 q 871 891 802 985 q 939 621 939 797 q 926 450 939 531 q 887 299 912 369 q 827 173 861 229 q 750 76 792 117 q 660 15 707 36 q 561 -7 612 -7 m 537 -317 q 601 -296 575 -317 q 639 -242 627 -275 l 639 -241 q 593 -262 620 -262 q 557 -249 572 -262 q 534 -210 542 -235 q 526 -151 526 -185 q 536 -75 526 -112 q 567 -7 547 -38 l 566 -7 q 472 -113 507 -60 q 437 -219 437 -166 q 465 -290 437 -262 q 537 -317 494 -317 m 577 1089 l 849 1089 l 861 1147 l 589 1147 l 577 1089 z "},"Ơ":{"ha":1045,"x_min":166,"x_max":1120,"o":"m 166 415 q 197 233 166 312 q 285 100 229 154 q 416 18 341 46 q 577 -9 490 -9 q 772 33 681 -9 q 933 154 864 76 q 1042 336 1003 231 q 1082 564 1082 440 q 1040 766 1082 681 q 927 904 998 851 q 767 978 856 958 l 767 978 q 830 965 799 969 q 905 961 862 961 q 1014 976 966 961 q 1092 1018 1063 990 q 1120 1085 1120 1046 q 1095 1156 1120 1126 q 1025 1197 1069 1187 l 1024 1197 q 1035 1170 1031 1187 q 1039 1133 1039 1153 q 1013 1048 1039 1084 q 938 992 986 1012 q 825 972 890 972 q 774 977 797 972 q 728 984 752 981 q 671 988 704 988 q 475 945 567 988 q 314 825 384 903 q 205 643 245 747 q 166 415 166 538 m 309 358 q 321 508 309 433 q 356 653 333 583 q 412 783 379 723 q 488 889 446 844 q 580 960 530 935 q 687 985 630 985 q 871 891 802 985 q 939 621 939 797 q 926 450 939 531 q 887 299 912 369 q 827 173 861 229 q 750 76 792 117 q 660 15 707 36 q 561 -7 612 -7 q 377 87 445 -7 q 309 358 309 182 z "},"Ớ":{"ha":1045,"x_min":166,"x_max":1120,"o":"m 166 415 q 197 233 166 312 q 285 100 229 154 q 416 18 341 46 q 577 -9 490 -9 q 772 33 681 -9 q 933 154 864 76 q 1042 336 1003 231 q 1082 564 1082 440 q 1040 766 1082 681 q 927 904 998 851 q 767 978 856 958 l 767 978 q 830 965 799 969 q 905 961 862 961 q 1014 976 966 961 q 1092 1018 1063 990 q 1120 1085 1120 1046 q 1095 1156 1120 1126 q 1025 1197 1069 1187 l 1024 1197 q 1035 1170 1031 1187 q 1039 1133 1039 1153 q 1013 1048 1039 1084 q 938 992 986 1012 q 825 972 890 972 q 774 977 797 972 q 728 984 752 981 q 671 988 704 988 q 475 945 567 988 q 314 825 384 903 q 205 643 245 747 q 166 415 166 538 m 309 358 q 321 508 309 433 q 356 653 333 583 q 412 783 379 723 q 488 889 446 844 q 580 960 530 935 q 687 985 630 985 q 871 891 802 985 q 939 621 939 797 q 926 450 939 531 q 887 299 912 369 q 827 173 861 229 q 750 76 792 117 q 660 15 707 36 q 561 -7 612 -7 q 377 87 445 -7 q 309 358 309 182 m 785 1200 l 661 1025 l 662 1025 l 913 1199 l 913 1200 l 785 1200 z "},"Ờ":{"ha":1045,"x_min":166,"x_max":1120,"o":"m 166 415 q 197 233 166 312 q 285 100 229 154 q 416 18 341 46 q 577 -9 490 -9 q 772 33 681 -9 q 933 154 864 76 q 1042 336 1003 231 q 1082 564 1082 440 q 1040 766 1082 681 q 927 904 998 851 q 767 978 856 958 l 767 978 q 830 965 799 969 q 905 961 862 961 q 1014 976 966 961 q 1092 1018 1063 990 q 1120 1085 1120 1046 q 1095 1156 1120 1126 q 1025 1197 1069 1187 l 1024 1197 q 1035 1170 1031 1187 q 1039 1133 1039 1153 q 1013 1048 1039 1084 q 938 992 986 1012 q 825 972 890 972 q 774 977 797 972 q 728 984 752 981 q 671 988 704 988 q 475 945 567 988 q 314 825 384 903 q 205 643 245 747 q 166 415 166 538 m 309 358 q 321 508 309 433 q 356 653 333 583 q 412 783 379 723 q 488 889 446 844 q 580 960 530 935 q 687 985 630 985 q 871 891 802 985 q 939 621 939 797 q 926 450 939 531 q 887 299 912 369 q 827 173 861 229 q 750 76 792 117 q 660 15 707 36 q 561 -7 612 -7 q 377 87 445 -7 q 309 358 309 182 m 686 1199 l 571 1199 l 571 1198 l 747 1024 l 748 1024 l 686 1199 z "},"Ỡ":{"ha":1045,"x_min":166,"x_max":1120,"o":"m 166 415 q 197 233 166 312 q 285 100 229 154 q 416 18 341 46 q 577 -9 490 -9 q 772 33 681 -9 q 933 154 864 76 q 1042 336 1003 231 q 1082 564 1082 440 q 1040 766 1082 681 q 927 904 998 851 q 767 978 856 958 l 767 978 q 830 965 799 969 q 905 961 862 961 q 1014 976 966 961 q 1092 1018 1063 990 q 1120 1085 1120 1046 q 1095 1156 1120 1126 q 1025 1197 1069 1187 l 1024 1197 q 1035 1170 1031 1187 q 1039 1133 1039 1153 q 1013 1048 1039 1084 q 938 992 986 1012 q 825 972 890 972 q 774 977 797 972 q 728 984 752 981 q 671 988 704 988 q 475 945 567 988 q 314 825 384 903 q 205 643 245 747 q 166 415 166 538 m 309 358 q 321 508 309 433 q 356 653 333 583 q 412 783 379 723 q 488 889 446 844 q 580 960 530 935 q 687 985 630 985 q 871 891 802 985 q 939 621 939 797 q 926 450 939 531 q 887 299 912 369 q 827 173 861 229 q 750 76 792 117 q 660 15 707 36 q 561 -7 612 -7 q 377 87 445 -7 q 309 358 309 182 m 770 1069 q 811 1080 793 1069 q 841 1120 829 1092 q 860 1196 854 1147 l 859 1196 q 839 1143 851 1161 q 805 1125 826 1125 q 781 1131 792 1125 q 753 1149 770 1137 l 736 1161 q 706 1180 721 1173 q 672 1187 691 1187 q 632 1175 650 1187 q 602 1136 614 1163 q 583 1060 589 1108 l 583 1060 q 604 1112 591 1094 q 637 1131 616 1131 q 662 1124 650 1131 q 689 1107 673 1118 l 706 1095 q 736 1076 722 1083 q 770 1069 751 1069 z "},"Ở":{"ha":1045,"x_min":166,"x_max":1120,"o":"m 166 415 q 197 233 166 312 q 285 100 229 154 q 416 18 341 46 q 577 -9 490 -9 q 772 33 681 -9 q 933 154 864 76 q 1042 336 1003 231 q 1082 564 1082 440 q 1040 766 1082 681 q 927 904 998 851 q 767 978 856 958 l 767 978 q 830 965 799 969 q 905 961 862 961 q 1014 976 966 961 q 1092 1018 1063 990 q 1120 1085 1120 1046 q 1095 1156 1120 1126 q 1025 1197 1069 1187 l 1024 1197 q 1035 1170 1031 1187 q 1039 1133 1039 1153 q 1013 1048 1039 1084 q 938 992 986 1012 q 825 972 890 972 q 774 977 797 972 q 728 984 752 981 q 671 988 704 988 q 475 945 567 988 q 314 825 384 903 q 205 643 245 747 q 166 415 166 538 m 309 358 q 321 508 309 433 q 356 653 333 583 q 412 783 379 723 q 488 889 446 844 q 580 960 530 935 q 687 985 630 985 q 871 891 802 985 q 939 621 939 797 q 926 450 939 531 q 887 299 912 369 q 827 173 861 229 q 750 76 792 117 q 660 15 707 36 q 561 -7 612 -7 q 377 87 445 -7 q 309 358 309 182 m 738 1226 q 674 1208 703 1226 q 630 1158 646 1190 l 630 1157 q 660 1178 644 1171 q 695 1185 676 1185 q 737 1171 720 1185 q 753 1133 753 1157 q 731 1083 753 1108 q 663 1035 709 1059 l 664 1035 q 780 1088 743 1056 q 817 1158 817 1120 q 794 1208 817 1190 q 738 1226 771 1226 z "},"Ợ":{"ha":1045,"x_min":166,"x_max":1120,"o":"m 166 415 q 197 233 166 312 q 285 100 229 154 q 416 18 341 46 q 577 -9 490 -9 q 772 33 681 -9 q 933 154 864 76 q 1042 336 1003 231 q 1082 564 1082 440 q 1040 766 1082 681 q 927 904 998 851 q 767 978 856 958 l 767 978 q 830 965 799 969 q 905 961 862 961 q 1014 976 966 961 q 1092 1018 1063 990 q 1120 1085 1120 1046 q 1095 1156 1120 1126 q 1025 1197 1069 1187 l 1024 1197 q 1035 1170 1031 1187 q 1039 1133 1039 1153 q 1013 1048 1039 1084 q 938 992 986 1012 q 825 972 890 972 q 774 977 797 972 q 728 984 752 981 q 671 988 704 988 q 475 945 567 988 q 314 825 384 903 q 205 643 245 747 q 166 415 166 538 m 309 358 q 321 508 309 433 q 356 653 333 583 q 412 783 379 723 q 488 889 446 844 q 580 960 530 935 q 687 985 630 985 q 871 891 802 985 q 939 621 939 797 q 926 450 939 531 q 887 299 912 369 q 827 173 861 229 q 750 76 792 117 q 660 15 707 36 q 561 -7 612 -7 q 377 87 445 -7 q 309 358 309 182 m 528 -130 q 488 -146 504 -130 q 471 -186 471 -163 q 487 -225 471 -209 q 526 -241 503 -241 q 567 -225 550 -241 q 583 -186 583 -209 q 567 -146 583 -163 q 528 -130 551 -130 z "},"Ø":{"ha":1039,"x_min":162,"x_max":1086,"o":"m 577 -9 q 772 33 681 -9 q 933 154 864 76 q 1042 336 1003 231 q 1082 564 1082 440 q 1050 746 1082 667 q 963 879 1019 825 q 832 960 907 932 q 671 988 758 988 q 475 945 566 988 q 314 825 383 903 q 205 643 244 747 q 165 415 165 538 q 197 233 165 312 q 284 100 229 154 q 415 18 340 46 q 577 -9 490 -9 m 561 -7 q 377 87 446 -7 q 309 358 309 182 q 321 508 309 433 q 356 653 333 583 q 412 783 379 723 q 488 889 446 844 q 580 960 530 935 q 687 985 630 985 q 871 891 802 985 q 939 621 939 797 q 926 450 939 531 q 887 299 912 369 q 827 173 861 229 q 750 76 792 117 q 660 15 707 36 q 561 -7 612 -7 m 1082 968 l 162 14 l 165 11 l 1086 966 l 1082 968 z "},"Ǿ":{"ha":1039,"x_min":162,"x_max":1086,"o":"m 577 -9 q 772 33 681 -9 q 933 154 864 76 q 1042 336 1003 231 q 1082 564 1082 440 q 1050 746 1082 667 q 963 879 1019 825 q 832 960 907 932 q 671 988 758 988 q 475 945 566 988 q 314 825 383 903 q 205 643 244 747 q 165 415 165 538 q 197 233 165 312 q 284 100 229 154 q 415 18 340 46 q 577 -9 490 -9 m 561 -7 q 377 87 446 -7 q 309 358 309 182 q 321 508 309 433 q 356 653 333 583 q 412 783 379 723 q 488 889 446 844 q 580 960 530 935 q 687 985 630 985 q 871 891 802 985 q 939 621 939 797 q 926 450 939 531 q 887 299 912 369 q 827 173 861 229 q 750 76 792 117 q 660 15 707 36 q 561 -7 612 -7 m 1082 968 l 162 14 l 165 11 l 1086 966 l 1082 968 m 785 1200 l 661 1025 l 662 1025 l 913 1199 l 913 1200 l 785 1200 z "},"P":{"ha":766,"x_min":36,"x_max":858,"o":"m 328 0 l 328 1 q 275 14 293 5 q 253 40 257 22 q 256 87 250 58 l 326 419 l 399 419 q 565 435 483 419 q 712 487 646 452 q 818 579 779 522 q 858 718 858 636 q 838 816 858 769 q 777 900 819 863 q 671 958 736 937 q 518 979 607 979 l 243 979 l 243 979 q 286 966 272 975 q 301 940 299 958 q 296 888 303 922 l 126 91 q 110 40 119 58 q 83 13 100 22 q 36 1 66 5 l 36 0 l 328 0 m 445 979 l 507 977 q 632 939 585 975 q 702 848 680 904 q 724 728 724 793 q 688 579 724 648 q 577 468 652 511 q 389 422 503 425 l 326 420 l 445 979 z "},"Ṕ":{"ha":766,"x_min":36,"x_max":858,"o":"m 328 0 l 328 1 q 275 14 293 5 q 253 40 257 22 q 256 87 250 58 l 326 419 l 399 419 q 565 435 483 419 q 712 487 646 452 q 818 579 779 522 q 858 718 858 636 q 838 816 858 769 q 777 900 819 863 q 671 958 736 937 q 518 979 607 979 l 243 979 l 243 979 q 286 966 272 975 q 301 940 299 958 q 296 888 303 922 l 126 91 q 110 40 119 58 q 83 13 100 22 q 36 1 66 5 l 36 0 l 328 0 m 445 979 l 507 977 q 632 939 585 975 q 702 848 680 904 q 724 728 724 793 q 688 579 724 648 q 577 468 652 511 q 389 422 503 425 l 326 420 l 445 979 m 631 1200 l 507 1025 l 509 1025 l 760 1199 l 760 1200 l 631 1200 z "},"Ṗ":{"ha":766,"x_min":36,"x_max":858,"o":"m 328 0 l 328 1 q 275 14 293 5 q 253 40 257 22 q 256 87 250 58 l 326 419 l 399 419 q 565 435 483 419 q 712 487 646 452 q 818 579 779 522 q 858 718 858 636 q 838 816 858 769 q 777 900 819 863 q 671 958 736 937 q 518 979 607 979 l 243 979 l 243 979 q 286 966 272 975 q 301 940 299 958 q 296 888 303 922 l 126 91 q 110 40 119 58 q 83 13 100 22 q 36 1 66 5 l 36 0 l 328 0 m 445 979 l 507 977 q 632 939 585 975 q 702 848 680 904 q 724 728 724 793 q 688 579 724 648 q 577 468 652 511 q 389 422 503 425 l 326 420 l 445 979 m 564 1057 q 605 1074 589 1057 q 621 1113 621 1090 q 605 1152 621 1136 q 566 1168 589 1168 q 526 1152 543 1168 q 509 1113 509 1136 q 526 1074 509 1090 q 564 1057 542 1057 z "},"Q":{"ha":1039,"x_min":166,"x_max":1082,"o":"m 843 -235 q 922 -220 883 -235 q 996 -176 961 -205 l 996 -176 q 923 -175 960 -182 q 842 -143 886 -168 q 739 -75 798 -118 l 640 -2 q 601 -6 626 -5 q 560 -8 576 -8 q 511 -4 539 -8 q 468 5 484 1 l 607 -111 q 704 -185 663 -158 q 778 -223 745 -212 q 843 -235 810 -235 m 577 -9 q 772 34 681 -9 q 933 154 864 77 q 1042 336 1003 231 q 1082 564 1082 440 q 1050 746 1082 667 q 963 879 1019 825 q 832 961 907 933 q 671 988 758 988 q 475 945 567 988 q 314 825 384 903 q 205 643 245 747 q 166 415 166 538 q 197 233 166 312 q 285 100 229 154 q 416 18 341 45 q 577 -9 490 -9 m 561 -7 q 377 87 445 -7 q 309 358 309 182 q 335 581 309 469 q 412 783 362 692 q 532 930 463 875 q 687 985 602 985 q 871 891 802 985 q 939 621 939 797 q 909 373 939 487 q 826 173 879 258 q 706 40 774 87 q 561 -7 637 -7 z "},"R":{"ha":802,"x_min":36,"x_max":844,"o":"m 844 744 q 763 916 844 852 q 522 979 681 979 l 243 979 l 243 979 q 285 966 271 975 q 300 940 298 958 q 296 888 302 922 l 126 91 q 109 40 119 58 q 82 13 99 22 q 36 1 65 5 l 36 0 l 309 0 l 309 1 q 267 13 281 5 q 252 40 254 22 q 257 91 250 58 l 336 471 l 408 471 q 575 485 496 471 q 715 532 654 500 q 810 616 776 564 q 844 744 844 669 m 713 739 q 678 602 713 661 q 572 510 642 544 q 397 473 501 477 l 336 471 l 446 979 l 511 977 q 661 906 608 973 q 713 739 713 840 m 631 0 l 802 0 l 802 1 q 766 27 782 9 q 731 83 749 45 q 688 192 713 121 l 578 501 q 551 491 565 496 q 522 484 536 487 q 494 478 508 481 q 465 475 479 476 l 631 0 z "},"Ŕ":{"ha":802,"x_min":36,"x_max":844,"o":"m 844 744 q 763 916 844 852 q 522 979 681 979 l 243 979 l 243 979 q 285 966 271 975 q 300 940 298 958 q 296 888 302 922 l 126 91 q 109 40 119 58 q 82 13 99 22 q 36 1 65 5 l 36 0 l 309 0 l 309 1 q 267 13 281 5 q 252 40 254 22 q 257 91 250 58 l 336 471 l 408 471 q 575 485 496 471 q 715 532 654 500 q 810 616 776 564 q 844 744 844 669 m 713 739 q 678 602 713 661 q 572 510 642 544 q 397 473 501 477 l 336 471 l 446 979 l 511 977 q 661 906 608 973 q 713 739 713 840 m 631 0 l 802 0 l 802 1 q 766 27 782 9 q 731 83 749 45 q 688 192 713 121 l 578 501 q 551 491 565 496 q 522 484 536 487 q 494 478 508 481 q 465 475 479 476 l 631 0 m 663 1200 l 539 1025 l 541 1025 l 791 1199 l 791 1200 l 663 1200 z "},"Ȑ":{"ha":802,"x_min":36,"x_max":844,"o":"m 844 744 q 763 916 844 852 q 522 979 681 979 l 243 979 l 243 979 q 285 966 271 975 q 300 940 298 958 q 296 888 302 922 l 126 91 q 109 40 119 58 q 82 13 99 22 q 36 1 65 5 l 36 0 l 309 0 l 309 1 q 267 13 281 5 q 252 40 254 22 q 257 91 250 58 l 336 471 l 408 471 q 575 485 496 471 q 715 532 654 500 q 810 616 776 564 q 844 744 844 669 m 713 739 q 678 602 713 661 q 572 510 642 544 q 397 473 501 477 l 336 471 l 446 979 l 511 977 q 661 906 608 973 q 713 739 713 840 m 631 0 l 802 0 l 802 1 q 766 27 782 9 q 731 83 749 45 q 688 192 713 121 l 578 501 q 551 491 565 496 q 522 484 536 487 q 494 478 508 481 q 465 475 479 476 l 631 0 m 447 1199 l 339 1199 l 339 1198 l 519 1024 l 521 1024 l 447 1199 m 631 1199 l 528 1199 l 528 1198 l 679 1024 l 680 1024 l 631 1199 z "},"Ř":{"ha":802,"x_min":36,"x_max":844,"o":"m 844 744 q 763 916 844 852 q 522 979 681 979 l 243 979 l 243 979 q 285 966 271 975 q 300 940 298 958 q 296 888 302 922 l 126 91 q 109 40 119 58 q 82 13 99 22 q 36 1 65 5 l 36 0 l 309 0 l 309 1 q 267 13 281 5 q 252 40 254 22 q 257 91 250 58 l 336 471 l 408 471 q 575 485 496 471 q 715 532 654 500 q 810 616 776 564 q 844 744 844 669 m 713 739 q 678 602 713 661 q 572 510 642 544 q 397 473 501 477 l 336 471 l 446 979 l 511 977 q 661 906 608 973 q 713 739 713 840 m 631 0 l 802 0 l 802 1 q 766 27 782 9 q 731 83 749 45 q 688 192 713 121 l 578 501 q 551 491 565 496 q 522 484 536 487 q 494 478 508 481 q 465 475 479 476 l 631 0 m 754 1208 l 565 1080 l 614 1080 l 480 1208 l 479 1208 l 556 1036 l 610 1036 l 755 1208 l 754 1208 z "},"Ȓ":{"ha":802,"x_min":36,"x_max":844,"o":"m 844 744 q 763 916 844 852 q 522 979 681 979 l 243 979 l 243 979 q 285 966 271 975 q 300 940 298 958 q 296 888 302 922 l 126 91 q 109 40 119 58 q 82 13 99 22 q 36 1 65 5 l 36 0 l 309 0 l 309 1 q 267 13 281 5 q 252 40 254 22 q 257 91 250 58 l 336 471 l 408 471 q 575 485 496 471 q 715 532 654 500 q 810 616 776 564 q 844 744 844 669 m 713 739 q 678 602 713 661 q 572 510 642 544 q 397 473 501 477 l 336 471 l 446 979 l 511 977 q 661 906 608 973 q 713 739 713 840 m 631 0 l 802 0 l 802 1 q 766 27 782 9 q 731 83 749 45 q 688 192 713 121 l 578 501 q 551 491 565 496 q 522 484 536 487 q 494 478 508 481 q 465 475 479 476 l 631 0 m 612 1249 q 533 1227 568 1249 q 479 1167 499 1206 q 456 1072 459 1128 l 457 1072 q 504 1149 468 1121 q 611 1177 541 1177 q 692 1154 661 1177 q 723 1090 723 1130 q 722 1080 723 1085 q 720 1072 722 1076 l 721 1072 q 730 1102 728 1087 q 733 1133 733 1118 q 718 1193 733 1166 q 675 1234 703 1219 q 612 1249 648 1249 z "},"Ṟ":{"ha":802,"x_min":36,"x_max":844,"o":"m 844 744 q 763 916 844 852 q 522 979 681 979 l 243 979 l 243 979 q 285 966 271 975 q 300 940 298 958 q 296 888 302 922 l 126 91 q 109 40 119 58 q 82 13 99 22 q 36 1 65 5 l 36 0 l 309 0 l 309 1 q 267 13 281 5 q 252 40 254 22 q 257 91 250 58 l 336 471 l 408 471 q 575 485 496 471 q 715 532 654 500 q 810 616 776 564 q 844 744 844 669 m 713 739 q 678 602 713 661 q 572 510 642 544 q 397 473 501 477 l 336 471 l 446 979 l 511 977 q 661 906 608 973 q 713 739 713 840 m 631 0 l 802 0 l 802 1 q 766 27 782 9 q 731 83 749 45 q 688 192 713 121 l 578 501 q 551 491 565 496 q 522 484 536 487 q 494 478 508 481 q 465 475 479 476 l 631 0 z "},"Ṙ":{"ha":802,"x_min":36,"x_max":844,"o":"m 844 744 q 763 916 844 852 q 522 979 681 979 l 243 979 l 243 979 q 285 966 271 975 q 300 940 298 958 q 296 888 302 922 l 126 91 q 109 40 119 58 q 82 13 99 22 q 36 1 65 5 l 36 0 l 309 0 l 309 1 q 267 13 281 5 q 252 40 254 22 q 257 91 250 58 l 336 471 l 408 471 q 575 485 496 471 q 715 532 654 500 q 810 616 776 564 q 844 744 844 669 m 713 739 q 678 602 713 661 q 572 510 642 544 q 397 473 501 477 l 336 471 l 446 979 l 511 977 q 661 906 608 973 q 713 739 713 840 m 631 0 l 802 0 l 802 1 q 766 27 782 9 q 731 83 749 45 q 688 192 713 121 l 578 501 q 551 491 565 496 q 522 484 536 487 q 494 478 508 481 q 465 475 479 476 l 631 0 m 596 1057 q 637 1074 621 1057 q 653 1113 653 1090 q 637 1152 653 1136 q 598 1168 621 1168 q 558 1152 574 1168 q 541 1113 541 1136 q 557 1074 541 1090 q 596 1057 574 1057 z "},"Ṛ":{"ha":802,"x_min":36,"x_max":844,"o":"m 844 744 q 763 916 844 852 q 522 979 681 979 l 243 979 l 243 979 q 285 966 271 975 q 300 940 298 958 q 296 888 302 922 l 126 91 q 109 40 119 58 q 82 13 99 22 q 36 1 65 5 l 36 0 l 309 0 l 309 1 q 267 13 281 5 q 252 40 254 22 q 257 91 250 58 l 336 471 l 408 471 q 575 485 496 471 q 715 532 654 500 q 810 616 776 564 q 844 744 844 669 m 713 739 q 678 602 713 661 q 572 510 642 544 q 397 473 501 477 l 336 471 l 446 979 l 511 977 q 661 906 608 973 q 713 739 713 840 m 631 0 l 802 0 l 802 1 q 766 27 782 9 q 731 83 749 45 q 688 192 713 121 l 578 501 q 551 491 565 496 q 522 484 536 487 q 494 478 508 481 q 465 475 479 476 l 631 0 m 398 -130 q 357 -146 374 -130 q 341 -186 341 -163 q 357 -225 341 -209 q 396 -241 373 -241 q 436 -225 420 -241 q 453 -186 453 -209 q 437 -146 453 -163 q 398 -130 420 -130 z "},"Ṝ":{"ha":802,"x_min":36,"x_max":844,"o":"m 844 744 q 763 916 844 852 q 522 979 681 979 l 243 979 l 243 979 q 285 966 271 975 q 300 940 298 958 q 296 888 302 922 l 126 91 q 109 40 119 58 q 82 13 99 22 q 36 1 65 5 l 36 0 l 309 0 l 309 1 q 267 13 281 5 q 252 40 254 22 q 257 91 250 58 l 336 471 l 408 471 q 575 485 496 471 q 715 532 654 500 q 810 616 776 564 q 844 744 844 669 m 713 739 q 678 602 713 661 q 572 510 642 544 q 397 473 501 477 l 336 471 l 446 979 l 511 977 q 661 906 608 973 q 713 739 713 840 m 631 0 l 802 0 l 802 1 q 766 27 782 9 q 731 83 749 45 q 688 192 713 121 l 578 501 q 551 491 565 496 q 522 484 536 487 q 494 478 508 481 q 465 475 479 476 l 631 0 m 398 -130 q 357 -146 374 -130 q 341 -186 341 -163 q 357 -225 341 -209 q 396 -241 373 -241 q 436 -225 420 -241 q 453 -186 453 -209 q 437 -146 453 -163 q 398 -130 420 -130 m 456 1089 l 728 1089 l 740 1147 l 468 1147 l 456 1089 z "},"Ŗ":{"ha":802,"x_min":36,"x_max":844,"o":"m 844 744 q 763 916 844 852 q 522 979 681 979 l 243 979 l 243 979 q 285 966 271 975 q 300 940 298 958 q 296 888 302 922 l 126 91 q 109 40 119 58 q 82 13 99 22 q 36 1 65 5 l 36 0 l 309 0 l 309 1 q 267 13 281 5 q 252 40 254 22 q 257 91 250 58 l 336 471 l 408 471 q 575 485 496 471 q 715 532 654 500 q 810 616 776 564 q 844 744 844 669 m 713 739 q 678 602 713 661 q 572 510 642 544 q 397 473 501 477 l 336 471 l 446 979 l 511 977 q 661 906 608 973 q 713 739 713 840 m 631 0 l 802 0 l 802 1 q 766 27 782 9 q 731 83 749 45 q 688 192 713 121 l 578 501 q 551 491 565 496 q 522 484 536 487 q 494 478 508 481 q 465 475 479 476 l 631 0 m 389 -277 q 477 -250 442 -277 q 513 -183 513 -223 q 484 -112 513 -136 q 423 -88 454 -88 q 366 -101 391 -88 q 325 -136 340 -114 l 325 -137 q 342 -133 332 -134 q 361 -131 352 -131 q 403 -143 385 -131 q 421 -184 421 -156 q 403 -224 421 -211 q 355 -238 385 -238 q 309 -226 328 -238 q 282 -200 290 -214 l 282 -201 q 319 -255 293 -232 q 389 -277 346 -277 z "},"S":{"ha":707,"x_min":92,"x_max":785,"o":"m 372 -9 q 487 8 430 -9 q 590 60 544 25 q 665 147 637 95 q 693 269 693 199 q 658 404 693 341 q 544 529 623 467 l 446 606 q 365 695 389 650 q 340 794 340 741 q 392 934 340 882 q 543 986 445 986 q 693 910 638 986 q 751 684 749 834 l 751 684 l 785 903 q 691 964 749 939 q 530 989 633 989 q 374 957 443 989 q 264 866 304 925 q 224 724 224 806 q 262 595 224 655 q 370 481 300 535 l 468 404 q 552 306 527 357 q 576 192 576 254 q 547 83 576 128 q 468 16 517 39 q 359 -7 418 -7 q 240 20 294 -7 q 157 110 187 47 q 127 275 126 172 l 127 275 l 92 56 q 165 22 121 37 q 264 -1 210 7 q 372 -9 318 -9 z "},"Ś":{"ha":707,"x_min":92,"x_max":785,"o":"m 372 -9 q 487 8 430 -9 q 590 60 544 25 q 665 147 637 95 q 693 269 693 199 q 658 404 693 341 q 544 529 623 467 l 446 606 q 365 695 389 650 q 340 794 340 741 q 392 934 340 882 q 543 986 445 986 q 693 910 638 986 q 751 684 749 834 l 751 684 l 785 903 q 691 964 749 939 q 530 989 633 989 q 374 957 443 989 q 264 866 304 925 q 224 724 224 806 q 262 595 224 655 q 370 481 300 535 l 468 404 q 552 306 527 357 q 576 192 576 254 q 547 83 576 128 q 468 16 517 39 q 359 -7 418 -7 q 240 20 294 -7 q 157 110 187 47 q 127 275 126 172 l 127 275 l 92 56 q 165 22 121 37 q 264 -1 210 7 q 372 -9 318 -9 m 633 1200 l 509 1025 l 511 1025 l 762 1199 l 762 1200 l 633 1200 z "},"Ṥ":{"ha":707,"x_min":92,"x_max":785,"o":"m 372 -9 q 487 8 430 -9 q 590 60 544 25 q 665 147 637 95 q 693 269 693 199 q 658 404 693 341 q 544 529 623 467 l 446 606 q 365 695 389 650 q 340 794 340 741 q 392 934 340 882 q 543 986 445 986 q 693 910 638 986 q 751 684 749 834 l 751 684 l 785 903 q 691 964 749 939 q 530 989 633 989 q 374 957 443 989 q 264 866 304 925 q 224 724 224 806 q 262 595 224 655 q 370 481 300 535 l 468 404 q 552 306 527 357 q 576 192 576 254 q 547 83 576 128 q 468 16 517 39 q 359 -7 418 -7 q 240 20 294 -7 q 157 110 187 47 q 127 275 126 172 l 127 275 l 92 56 q 165 22 121 37 q 264 -1 210 7 q 372 -9 318 -9 m 720 1112 l 734 1182 l 404 1063 l 404 1063 l 720 1112 m 594 1194 q 629 1206 615 1194 q 643 1237 643 1219 q 628 1267 643 1255 q 591 1280 612 1280 q 557 1267 570 1280 q 543 1237 543 1255 q 558 1206 543 1219 q 594 1194 574 1194 z "},"Ŝ":{"ha":707,"x_min":92,"x_max":785,"o":"m 372 -9 q 487 8 430 -9 q 590 60 544 25 q 665 147 637 95 q 693 269 693 199 q 658 404 693 341 q 544 529 623 467 l 446 606 q 365 695 389 650 q 340 794 340 741 q 392 934 340 882 q 543 986 445 986 q 693 910 638 986 q 751 684 749 834 l 751 684 l 785 903 q 691 964 749 939 q 530 989 633 989 q 374 957 443 989 q 264 866 304 925 q 224 724 224 806 q 262 595 224 655 q 370 481 300 535 l 468 404 q 552 306 527 357 q 576 192 576 254 q 547 83 576 128 q 468 16 517 39 q 359 -7 418 -7 q 240 20 294 -7 q 157 110 187 47 q 127 275 126 172 l 127 275 l 92 56 q 165 22 121 37 q 264 -1 210 7 q 372 -9 318 -9 m 411 1025 l 606 1152 l 556 1152 l 695 1025 l 696 1025 l 618 1200 l 559 1200 l 410 1025 l 411 1025 z "},"Š":{"ha":707,"x_min":92,"x_max":785,"o":"m 372 -9 q 487 8 430 -9 q 590 60 544 25 q 665 147 637 95 q 693 269 693 199 q 658 404 693 341 q 544 529 623 467 l 446 606 q 365 695 389 650 q 340 794 340 741 q 392 934 340 882 q 543 986 445 986 q 693 910 638 986 q 751 684 749 834 l 751 684 l 785 903 q 691 964 749 939 q 530 989 633 989 q 374 957 443 989 q 264 866 304 925 q 224 724 224 806 q 262 595 224 655 q 370 481 300 535 l 468 404 q 552 306 527 357 q 576 192 576 254 q 547 83 576 128 q 468 16 517 39 q 359 -7 418 -7 q 240 20 294 -7 q 157 110 187 47 q 127 275 126 172 l 127 275 l 92 56 q 165 22 121 37 q 264 -1 210 7 q 372 -9 318 -9 m 724 1208 l 535 1080 l 584 1080 l 450 1208 l 449 1208 l 526 1036 l 580 1036 l 726 1208 l 724 1208 z "},"Ṧ":{"ha":707,"x_min":92,"x_max":785,"o":"m 372 -9 q 487 8 430 -9 q 590 60 544 25 q 665 147 637 95 q 693 269 693 199 q 658 404 693 341 q 544 529 623 467 l 446 606 q 365 695 389 650 q 340 794 340 741 q 392 934 340 882 q 543 986 445 986 q 693 910 638 986 q 751 684 749 834 l 751 684 l 785 903 q 691 964 749 939 q 530 989 633 989 q 374 957 443 989 q 264 866 304 925 q 224 724 224 806 q 262 595 224 655 q 370 481 300 535 l 468 404 q 552 306 527 357 q 576 192 576 254 q 547 83 576 128 q 468 16 517 39 q 359 -7 418 -7 q 240 20 294 -7 q 157 110 187 47 q 127 275 126 172 l 127 275 l 92 56 q 165 22 121 37 q 264 -1 210 7 q 372 -9 318 -9 m 740 1191 l 562 1129 l 578 1129 l 427 1191 l 427 1190 l 551 1064 l 563 1064 l 741 1190 l 740 1191 m 597 1206 q 632 1218 618 1206 q 646 1249 646 1231 q 630 1280 646 1267 q 594 1293 615 1293 q 559 1280 573 1293 q 546 1249 546 1267 q 561 1218 546 1231 q 597 1206 576 1206 z "},"Ṡ":{"ha":707,"x_min":92,"x_max":785,"o":"m 372 -9 q 487 8 430 -9 q 590 60 544 25 q 665 147 637 95 q 693 269 693 199 q 658 404 693 341 q 544 529 623 467 l 446 606 q 365 695 389 650 q 340 794 340 741 q 392 934 340 882 q 543 986 445 986 q 693 910 638 986 q 751 684 749 834 l 751 684 l 785 903 q 691 964 749 939 q 530 989 633 989 q 374 957 443 989 q 264 866 304 925 q 224 724 224 806 q 262 595 224 655 q 370 481 300 535 l 468 404 q 552 306 527 357 q 576 192 576 254 q 547 83 576 128 q 468 16 517 39 q 359 -7 418 -7 q 240 20 294 -7 q 157 110 187 47 q 127 275 126 172 l 127 275 l 92 56 q 165 22 121 37 q 264 -1 210 7 q 372 -9 318 -9 m 566 1057 q 607 1074 591 1057 q 623 1113 623 1090 q 607 1152 623 1136 q 568 1168 591 1168 q 528 1152 545 1168 q 511 1113 511 1136 q 528 1074 511 1090 q 566 1057 544 1057 z "},"Ṣ":{"ha":707,"x_min":92,"x_max":785,"o":"m 372 -9 q 487 8 430 -9 q 590 60 544 25 q 665 147 637 95 q 693 269 693 199 q 658 404 693 341 q 544 529 623 467 l 446 606 q 365 695 389 650 q 340 794 340 741 q 392 934 340 882 q 543 986 445 986 q 693 910 638 986 q 751 684 749 834 l 751 684 l 785 903 q 691 964 749 939 q 530 989 633 989 q 374 957 443 989 q 264 866 304 925 q 224 724 224 806 q 262 595 224 655 q 370 481 300 535 l 468 404 q 552 306 527 357 q 576 192 576 254 q 547 83 576 128 q 468 16 517 39 q 359 -7 418 -7 q 240 20 294 -7 q 157 110 187 47 q 127 275 126 172 l 127 275 l 92 56 q 165 22 121 37 q 264 -1 210 7 q 372 -9 318 -9 m 328 -130 q 288 -146 304 -130 q 271 -186 271 -163 q 287 -225 271 -209 q 326 -241 303 -241 q 367 -225 350 -241 q 383 -186 383 -209 q 367 -146 383 -163 q 328 -130 351 -130 z "},"Ṩ":{"ha":707,"x_min":92,"x_max":785,"o":"m 372 -9 q 487 8 430 -9 q 590 60 544 25 q 665 147 637 95 q 693 269 693 199 q 658 404 693 341 q 544 529 623 467 l 446 606 q 365 695 389 650 q 340 794 340 741 q 392 934 340 882 q 543 986 445 986 q 693 910 638 986 q 751 684 749 834 l 751 684 l 785 903 q 691 964 749 939 q 530 989 633 989 q 374 957 443 989 q 264 866 304 925 q 224 724 224 806 q 262 595 224 655 q 370 481 300 535 l 468 404 q 552 306 527 357 q 576 192 576 254 q 547 83 576 128 q 468 16 517 39 q 359 -7 418 -7 q 240 20 294 -7 q 157 110 187 47 q 127 275 126 172 l 127 275 l 92 56 q 165 22 121 37 q 264 -1 210 7 q 372 -9 318 -9 m 566 1057 q 607 1074 591 1057 q 623 1113 623 1090 q 607 1152 623 1136 q 568 1168 591 1168 q 528 1152 545 1168 q 511 1113 511 1136 q 528 1074 511 1090 q 566 1057 544 1057 m 328 -130 q 288 -146 304 -130 q 271 -186 271 -163 q 287 -225 271 -209 q 326 -241 303 -241 q 367 -225 350 -241 q 383 -186 383 -209 q 367 -146 383 -163 q 328 -130 351 -130 z "},"Ș":{"ha":707,"x_min":92,"x_max":785,"o":"m 372 -9 q 487 8 430 -9 q 590 60 544 25 q 665 147 637 95 q 693 269 693 199 q 658 404 693 341 q 544 529 623 467 l 446 606 q 365 695 389 650 q 340 794 340 741 q 392 934 340 882 q 543 986 445 986 q 693 910 638 986 q 751 684 749 834 l 751 684 l 785 903 q 691 964 749 939 q 530 989 633 989 q 374 957 443 989 q 264 866 304 925 q 224 724 224 806 q 262 595 224 655 q 370 481 300 535 l 468 404 q 552 306 527 357 q 576 192 576 254 q 547 83 576 128 q 468 16 517 39 q 359 -7 418 -7 q 240 20 294 -7 q 157 110 187 47 q 127 275 126 172 l 127 275 l 92 56 q 165 22 121 37 q 264 -1 210 7 q 372 -9 318 -9 m 319 -277 q 408 -250 372 -277 q 443 -183 443 -223 q 414 -112 443 -136 q 353 -88 385 -88 q 296 -101 321 -88 q 255 -136 271 -114 l 255 -137 q 272 -133 262 -134 q 292 -131 282 -131 q 333 -143 315 -131 q 351 -184 351 -156 q 333 -224 351 -211 q 286 -238 315 -238 q 239 -226 258 -238 q 212 -200 220 -214 l 212 -201 q 250 -255 223 -232 q 319 -277 276 -277 z "},"Ş":{"ha":707,"x_min":92,"x_max":785,"o":"m 372 -9 q 487 8 430 -9 q 590 60 544 25 q 665 147 637 95 q 693 269 693 199 q 658 404 693 341 q 544 529 623 467 l 446 606 q 365 695 389 650 q 340 794 340 741 q 392 934 340 882 q 543 986 445 986 q 693 910 638 986 q 751 684 749 834 l 751 684 l 785 903 q 691 964 749 939 q 530 989 633 989 q 374 957 443 989 q 264 866 304 925 q 224 724 224 806 q 262 595 224 655 q 370 481 300 535 l 468 404 q 552 306 527 357 q 576 192 576 254 q 547 83 576 128 q 468 16 517 39 q 359 -7 418 -7 q 240 20 294 -7 q 157 110 187 47 q 127 275 126 172 l 127 275 l 92 56 q 165 22 121 37 q 264 -1 210 7 q 372 -9 318 -9 m 326 -277 q 411 -249 378 -277 q 444 -177 444 -220 q 415 -108 444 -135 q 347 -81 387 -81 q 315 -85 330 -81 q 293 -95 300 -89 l 292 -98 l 368 -9 l 368 -7 l 367 -7 l 267 -124 l 267 -125 q 278 -122 271 -123 q 293 -121 284 -121 q 333 -136 317 -121 q 350 -177 350 -151 q 333 -217 350 -202 q 289 -233 317 -233 q 243 -222 266 -233 q 208 -195 220 -212 l 208 -195 q 249 -253 220 -229 q 326 -277 278 -277 z "},"T":{"ha":815,"x_min":204,"x_max":972,"o":"m 972 979 l 258 979 l 204 763 l 205 763 q 271 879 236 834 q 362 946 305 923 q 513 976 418 969 l 550 979 l 361 87 q 344 40 355 58 q 312 14 333 22 q 253 1 291 5 l 253 0 l 566 0 l 566 1 q 510 15 528 6 q 488 41 492 24 q 491 87 485 58 l 680 979 l 715 976 q 849 949 803 969 q 915 886 896 930 q 939 763 935 842 l 941 763 l 972 979 z "},"Ṱ":{"ha":815,"x_min":203,"x_max":972,"o":"m 972 979 l 258 979 l 204 763 l 205 763 q 271 879 236 834 q 362 946 305 923 q 513 976 418 969 l 550 979 l 361 87 q 344 40 355 58 q 312 14 333 22 q 253 1 291 5 l 253 0 l 566 0 l 566 1 q 510 15 528 6 q 488 41 492 24 q 491 87 485 58 l 680 979 l 715 976 q 849 949 803 969 q 915 886 896 930 q 939 763 935 842 l 941 763 l 972 979 z "},"Ť":{"ha":815,"x_min":204,"x_max":972,"o":"m 972 979 l 258 979 l 204 763 l 205 763 q 271 879 236 834 q 362 946 305 923 q 513 976 418 969 l 550 979 l 361 87 q 344 40 355 58 q 312 14 333 22 q 253 1 291 5 l 253 0 l 566 0 l 566 1 q 510 15 528 6 q 488 41 492 24 q 491 87 485 58 l 680 979 l 715 976 q 849 949 803 969 q 915 886 896 930 q 939 763 935 842 l 941 763 l 972 979 m 800 1208 l 611 1080 l 660 1080 l 526 1208 l 525 1208 l 602 1036 l 656 1036 l 802 1208 l 800 1208 z "},"Ṯ":{"ha":815,"x_min":204,"x_max":972,"o":"m 972 979 l 258 979 l 204 763 l 205 763 q 271 879 236 834 q 362 946 305 923 q 513 976 418 969 l 550 979 l 361 87 q 344 40 355 58 q 312 14 333 22 q 253 1 291 5 l 253 0 l 566 0 l 566 1 q 510 15 528 6 q 488 41 492 24 q 491 87 485 58 l 680 979 l 715 976 q 849 949 803 969 q 915 886 896 930 q 939 763 935 842 l 941 763 l 972 979 z "},"Ṫ":{"ha":815,"x_min":204,"x_max":972,"o":"m 972 979 l 258 979 l 204 763 l 205 763 q 271 879 236 834 q 362 946 305 923 q 513 976 418 969 l 550 979 l 361 87 q 344 40 355 58 q 312 14 333 22 q 253 1 291 5 l 253 0 l 566 0 l 566 1 q 510 15 528 6 q 488 41 492 24 q 491 87 485 58 l 680 979 l 715 976 q 849 949 803 969 q 915 886 896 930 q 939 763 935 842 l 941 763 l 972 979 m 642 1057 q 683 1074 667 1057 q 699 1113 699 1090 q 683 1152 699 1136 q 644 1168 667 1168 q 604 1152 621 1168 q 587 1113 587 1136 q 604 1074 587 1090 q 642 1057 620 1057 z "},"Ṭ":{"ha":815,"x_min":204,"x_max":972,"o":"m 972 979 l 258 979 l 204 763 l 205 763 q 271 879 236 834 q 362 946 305 923 q 513 976 418 969 l 550 979 l 361 87 q 344 40 355 58 q 312 14 333 22 q 253 1 291 5 l 253 0 l 566 0 l 566 1 q 510 15 528 6 q 488 41 492 24 q 491 87 485 58 l 680 979 l 715 976 q 849 949 803 969 q 915 886 896 930 q 939 763 935 842 l 941 763 l 972 979 m 368 -130 q 328 -146 344 -130 q 311 -186 311 -163 q 327 -225 311 -209 q 366 -241 343 -241 q 407 -225 390 -241 q 423 -186 423 -209 q 407 -146 423 -163 q 368 -130 391 -130 z "},"Ț":{"ha":815,"x_min":204,"x_max":972,"o":"m 972 979 l 258 979 l 204 763 l 205 763 q 271 879 236 834 q 362 946 305 923 q 513 976 418 969 l 550 979 l 361 87 q 344 40 355 58 q 312 14 333 22 q 253 1 291 5 l 253 0 l 566 0 l 566 1 q 510 15 528 6 q 488 41 492 24 q 491 87 485 58 l 680 979 l 715 976 q 849 949 803 969 q 915 886 896 930 q 939 763 935 842 l 941 763 l 972 979 m 359 -277 q 448 -250 412 -277 q 483 -183 483 -223 q 454 -112 483 -136 q 393 -88 425 -88 q 336 -101 361 -88 q 295 -136 311 -114 l 295 -137 q 312 -133 302 -134 q 332 -131 322 -131 q 373 -143 355 -131 q 391 -184 391 -156 q 373 -224 391 -211 q 326 -238 355 -238 q 279 -226 298 -238 q 252 -200 260 -214 l 252 -201 q 290 -255 263 -232 q 359 -277 316 -277 z "},"Ţ":{"ha":815,"x_min":204,"x_max":972,"o":"m 366 -277 q 451 -249 418 -277 q 484 -177 484 -220 q 456 -108 484 -135 q 387 -81 428 -81 q 355 -85 370 -81 q 333 -95 340 -89 l 332 -98 l 408 1 l 408 2 l 407 2 l 307 -124 l 307 -125 q 318 -122 311 -123 q 333 -121 324 -121 q 373 -136 357 -121 q 390 -177 390 -151 q 373 -217 390 -202 q 329 -233 357 -233 q 283 -222 306 -233 q 248 -195 260 -212 l 248 -195 q 290 -253 261 -229 q 366 -277 318 -277 m 972 979 l 258 979 l 204 763 l 205 763 q 271 879 236 834 q 362 946 305 923 q 513 976 418 969 l 550 979 l 361 87 q 344 40 355 58 q 312 14 333 22 q 253 1 291 5 l 253 0 l 566 0 l 566 1 q 510 15 528 6 q 488 41 492 24 q 491 87 485 58 l 680 979 l 715 976 q 849 949 803 969 q 915 886 896 930 q 939 763 935 842 l 941 763 l 972 979 z "},"Ŧ":{"ha":815,"x_min":204,"x_max":972,"o":"m 972 979 l 258 979 l 204 763 l 205 763 q 271 879 236 834 q 362 946 305 923 q 513 976 418 969 l 550 979 l 361 87 q 344 40 355 58 q 312 14 333 22 q 253 1 291 5 l 253 0 l 566 0 l 566 1 q 510 15 528 6 q 488 41 492 24 q 491 87 485 58 l 680 979 l 715 976 q 849 949 803 969 q 915 886 896 930 q 939 763 935 842 l 941 763 l 972 979 m 249 500 l 785 500 l 785 504 l 250 504 l 249 500 z "},"U":{"ha":949,"x_min":178,"x_max":1132,"o":"m 501 -9 q 699 40 618 -9 q 830 177 780 90 q 906 376 880 264 l 1000 779 q 1025 872 1014 836 q 1050 931 1036 909 q 1083 964 1063 953 q 1132 979 1102 975 l 1132 979 l 927 979 l 927 979 q 983 955 966 972 q 997 896 999 937 q 980 779 995 854 l 901 378 q 830 181 878 265 q 711 51 781 97 q 553 4 640 4 q 407 44 468 4 q 324 170 347 83 q 330 395 301 256 l 435 888 q 452 940 442 922 q 479 966 462 958 q 526 979 496 975 l 526 979 l 252 979 l 252 979 q 305 956 294 972 q 304 888 315 939 l 203 408 q 194 210 178 290 q 256 81 210 130 q 366 12 301 33 q 501 -9 430 -9 z "},"Ú":{"ha":949,"x_min":178,"x_max":1132,"o":"m 501 -9 q 699 40 618 -9 q 830 177 780 90 q 906 376 880 264 l 1000 779 q 1025 872 1014 836 q 1050 931 1036 909 q 1083 964 1063 953 q 1132 979 1102 975 l 1132 979 l 927 979 l 927 979 q 983 955 966 972 q 997 896 999 937 q 980 779 995 854 l 901 378 q 830 181 878 265 q 711 51 781 97 q 553 4 640 4 q 407 44 468 4 q 324 170 347 83 q 330 395 301 256 l 435 888 q 452 940 442 922 q 479 966 462 958 q 526 979 496 975 l 526 979 l 252 979 l 252 979 q 305 956 294 972 q 304 888 315 939 l 203 408 q 194 210 178 290 q 256 81 210 130 q 366 12 301 33 q 501 -9 430 -9 m 804 1200 l 680 1025 l 681 1025 l 932 1199 l 932 1200 l 804 1200 z "},"Ù":{"ha":949,"x_min":178,"x_max":1132,"o":"m 501 -9 q 699 40 618 -9 q 830 177 780 90 q 906 376 880 264 l 1000 779 q 1025 872 1014 836 q 1050 931 1036 909 q 1083 964 1063 953 q 1132 979 1102 975 l 1132 979 l 927 979 l 927 979 q 983 955 966 972 q 997 896 999 937 q 980 779 995 854 l 901 378 q 830 181 878 265 q 711 51 781 97 q 553 4 640 4 q 407 44 468 4 q 324 170 347 83 q 330 395 301 256 l 435 888 q 452 940 442 922 q 479 966 462 958 q 526 979 496 975 l 526 979 l 252 979 l 252 979 q 305 956 294 972 q 304 888 315 939 l 203 408 q 194 210 178 290 q 256 81 210 130 q 366 12 301 33 q 501 -9 430 -9 m 705 1199 l 590 1199 l 590 1198 l 766 1024 l 767 1024 l 705 1199 z "},"Ű":{"ha":949,"x_min":178,"x_max":1132,"o":"m 501 -9 q 699 40 618 -9 q 830 177 780 90 q 906 376 880 264 l 1000 779 q 1025 872 1014 836 q 1050 931 1036 909 q 1083 964 1063 953 q 1132 979 1102 975 l 1132 979 l 927 979 l 927 979 q 983 955 966 972 q 997 896 999 937 q 980 779 995 854 l 901 378 q 830 181 878 265 q 711 51 781 97 q 553 4 640 4 q 407 44 468 4 q 324 170 347 83 q 330 395 301 256 l 435 888 q 452 940 442 922 q 479 966 462 958 q 526 979 496 975 l 526 979 l 252 979 l 252 979 q 305 956 294 972 q 304 888 315 939 l 203 408 q 194 210 178 290 q 256 81 210 130 q 366 12 301 33 q 501 -9 430 -9 m 707 1200 l 615 1025 l 616 1025 l 826 1199 l 826 1200 l 707 1200 m 906 1200 l 788 1025 l 789 1025 l 1029 1199 l 1029 1200 l 906 1200 z "},"Ȕ":{"ha":949,"x_min":178,"x_max":1132,"o":"m 501 -9 q 699 40 618 -9 q 830 177 780 90 q 906 376 880 264 l 1000 779 q 1025 872 1014 836 q 1050 931 1036 909 q 1083 964 1063 953 q 1132 979 1102 975 l 1132 979 l 927 979 l 927 979 q 983 955 966 972 q 997 896 999 937 q 980 779 995 854 l 901 378 q 830 181 878 265 q 711 51 781 97 q 553 4 640 4 q 407 44 468 4 q 324 170 347 83 q 330 395 301 256 l 435 888 q 452 940 442 922 q 479 966 462 958 q 526 979 496 975 l 526 979 l 252 979 l 252 979 q 305 956 294 972 q 304 888 315 939 l 203 408 q 194 210 178 290 q 256 81 210 130 q 366 12 301 33 q 501 -9 430 -9 m 587 1199 l 479 1199 l 479 1198 l 660 1024 l 661 1024 l 587 1199 m 772 1199 l 668 1199 l 668 1198 l 819 1024 l 821 1024 l 772 1199 z "},"Û":{"ha":949,"x_min":178,"x_max":1132,"o":"m 501 -9 q 699 40 618 -9 q 830 177 780 90 q 906 376 880 264 l 1000 779 q 1025 872 1014 836 q 1050 931 1036 909 q 1083 964 1063 953 q 1132 979 1102 975 l 1132 979 l 927 979 l 927 979 q 983 955 966 972 q 997 896 999 937 q 980 779 995 854 l 901 378 q 830 181 878 265 q 711 51 781 97 q 553 4 640 4 q 407 44 468 4 q 324 170 347 83 q 330 395 301 256 l 435 888 q 452 940 442 922 q 479 966 462 958 q 526 979 496 975 l 526 979 l 252 979 l 252 979 q 305 956 294 972 q 304 888 315 939 l 203 408 q 194 210 178 290 q 256 81 210 130 q 366 12 301 33 q 501 -9 430 -9 m 581 1025 l 777 1152 l 726 1152 l 865 1025 l 867 1025 l 788 1200 l 729 1200 l 581 1025 l 581 1025 z "},"Ṷ":{"ha":949,"x_min":178,"x_max":1132,"o":"m 501 -9 q 699 40 618 -9 q 830 177 780 90 q 906 376 880 264 l 1000 779 q 1025 872 1014 836 q 1050 931 1036 909 q 1083 964 1063 953 q 1132 979 1102 975 l 1132 979 l 927 979 l 927 979 q 983 955 966 972 q 997 896 999 937 q 980 779 995 854 l 901 378 q 830 181 878 265 q 711 51 781 97 q 553 4 640 4 q 407 44 468 4 q 324 170 347 83 q 330 395 301 256 l 435 888 q 452 940 442 922 q 479 966 462 958 q 526 979 496 975 l 526 979 l 252 979 l 252 979 q 305 956 294 972 q 304 888 315 939 l 203 408 q 194 210 178 290 q 256 81 210 130 q 366 12 301 33 q 501 -9 430 -9 z "},"Ǔ":{"ha":949,"x_min":178,"x_max":1132,"o":"m 501 -9 q 699 40 618 -9 q 830 177 780 90 q 906 376 880 264 l 1000 779 q 1025 872 1014 836 q 1050 931 1036 909 q 1083 964 1063 953 q 1132 979 1102 975 l 1132 979 l 927 979 l 927 979 q 983 955 966 972 q 997 896 999 937 q 980 779 995 854 l 901 378 q 830 181 878 265 q 711 51 781 97 q 553 4 640 4 q 407 44 468 4 q 324 170 347 83 q 330 395 301 256 l 435 888 q 452 940 442 922 q 479 966 462 958 q 526 979 496 975 l 526 979 l 252 979 l 252 979 q 305 956 294 972 q 304 888 315 939 l 203 408 q 194 210 178 290 q 256 81 210 130 q 366 12 301 33 q 501 -9 430 -9 m 895 1208 l 705 1080 l 754 1080 l 621 1208 l 619 1208 l 696 1036 l 750 1036 l 896 1208 l 895 1208 z "},"Ŭ":{"ha":949,"x_min":178,"x_max":1132,"o":"m 501 -9 q 699 40 618 -9 q 830 177 780 90 q 906 376 880 264 l 1000 779 q 1025 872 1014 836 q 1050 931 1036 909 q 1083 964 1063 953 q 1132 979 1102 975 l 1132 979 l 927 979 l 927 979 q 983 955 966 972 q 997 896 999 937 q 980 779 995 854 l 901 378 q 830 181 878 265 q 711 51 781 97 q 553 4 640 4 q 407 44 468 4 q 324 170 347 83 q 330 395 301 256 l 435 888 q 452 940 442 922 q 479 966 462 958 q 526 979 496 975 l 526 979 l 252 979 l 252 979 q 305 956 294 972 q 304 888 315 939 l 203 408 q 194 210 178 290 q 256 81 210 130 q 366 12 301 33 q 501 -9 430 -9 m 742 1072 q 821 1093 787 1072 q 875 1153 855 1114 q 898 1249 895 1193 l 897 1249 q 850 1171 886 1199 q 743 1143 814 1143 q 663 1167 694 1143 q 631 1230 631 1191 q 632 1240 631 1235 q 634 1249 633 1244 l 633 1249 q 624 1218 627 1234 q 621 1187 621 1202 q 636 1128 621 1154 q 679 1086 652 1101 q 742 1072 706 1072 z "},"Ȗ":{"ha":949,"x_min":178,"x_max":1132,"o":"m 501 -9 q 699 40 618 -9 q 830 177 780 90 q 906 376 880 264 l 1000 779 q 1025 872 1014 836 q 1050 931 1036 909 q 1083 964 1063 953 q 1132 979 1102 975 l 1132 979 l 927 979 l 927 979 q 983 955 966 972 q 997 896 999 937 q 980 779 995 854 l 901 378 q 830 181 878 265 q 711 51 781 97 q 553 4 640 4 q 407 44 468 4 q 324 170 347 83 q 330 395 301 256 l 435 888 q 452 940 442 922 q 479 966 462 958 q 526 979 496 975 l 526 979 l 252 979 l 252 979 q 305 956 294 972 q 304 888 315 939 l 203 408 q 194 210 178 290 q 256 81 210 130 q 366 12 301 33 q 501 -9 430 -9 m 753 1249 q 674 1227 708 1249 q 620 1167 640 1206 q 597 1072 600 1128 l 597 1072 q 645 1149 608 1121 q 751 1177 681 1177 q 832 1154 802 1177 q 863 1090 863 1130 q 863 1080 863 1085 q 861 1072 862 1076 l 861 1072 q 871 1102 868 1087 q 873 1133 873 1118 q 858 1193 873 1166 q 816 1234 843 1219 q 753 1249 789 1249 z "},"Ü":{"ha":949,"x_min":178,"x_max":1132,"o":"m 501 -9 q 699 40 618 -9 q 830 177 780 90 q 906 376 880 264 l 1000 779 q 1025 872 1014 836 q 1050 931 1036 909 q 1083 964 1063 953 q 1132 979 1102 975 l 1132 979 l 927 979 l 927 979 q 983 955 966 972 q 997 896 999 937 q 980 779 995 854 l 901 378 q 830 181 878 265 q 711 51 781 97 q 553 4 640 4 q 407 44 468 4 q 324 170 347 83 q 330 395 301 256 l 435 888 q 452 940 442 922 q 479 966 462 958 q 526 979 496 975 l 526 979 l 252 979 l 252 979 q 305 956 294 972 q 304 888 315 939 l 203 408 q 194 210 178 290 q 256 81 210 130 q 366 12 301 33 q 501 -9 430 -9 z "},"Ǘ":{"ha":949,"x_min":178,"x_max":1132,"o":"m 501 -9 q 699 40 618 -9 q 830 177 780 90 q 906 376 880 264 l 1000 779 q 1025 872 1014 836 q 1050 931 1036 909 q 1083 964 1063 953 q 1132 979 1102 975 l 1132 979 l 927 979 l 927 979 q 983 955 966 972 q 997 896 999 937 q 980 779 995 854 l 901 378 q 830 181 878 265 q 711 51 781 97 q 553 4 640 4 q 407 44 468 4 q 324 170 347 83 q 330 395 301 256 l 435 888 q 452 940 442 922 q 479 966 462 958 q 526 979 496 975 l 526 979 l 252 979 l 252 979 q 305 956 294 972 q 304 888 315 939 l 203 408 q 194 210 178 290 q 256 81 210 130 q 366 12 301 33 q 501 -9 430 -9 m 642 1072 q 680 1085 663 1072 q 701 1116 696 1097 q 693 1148 705 1135 q 661 1160 682 1160 l 660 1160 q 622 1148 639 1160 q 601 1116 605 1135 q 608 1085 597 1097 q 641 1072 620 1072 l 642 1072 m 816 1072 q 853 1085 837 1072 q 874 1116 870 1097 q 867 1148 878 1135 q 835 1160 856 1160 l 833 1160 q 795 1148 812 1160 q 774 1116 779 1135 q 782 1085 770 1097 q 814 1072 793 1072 l 816 1072 m 917 1240 l 932 1311 l 601 1192 l 601 1192 l 917 1240 z "},"Ǜ":{"ha":949,"x_min":178,"x_max":1132,"o":"m 501 -9 q 699 40 618 -9 q 830 177 780 90 q 906 376 880 264 l 1000 779 q 1025 872 1014 836 q 1050 931 1036 909 q 1083 964 1063 953 q 1132 979 1102 975 l 1132 979 l 927 979 l 927 979 q 983 955 966 972 q 997 896 999 937 q 980 779 995 854 l 901 378 q 830 181 878 265 q 711 51 781 97 q 553 4 640 4 q 407 44 468 4 q 324 170 347 83 q 330 395 301 256 l 435 888 q 452 940 442 922 q 479 966 462 958 q 526 979 496 975 l 526 979 l 252 979 l 252 979 q 305 956 294 972 q 304 888 315 939 l 203 408 q 194 210 178 290 q 256 81 210 130 q 366 12 301 33 q 501 -9 430 -9 m 642 1072 q 680 1085 663 1072 q 701 1116 696 1097 q 693 1148 705 1135 q 661 1160 682 1160 l 660 1160 q 622 1148 639 1160 q 601 1116 605 1135 q 608 1085 597 1097 q 641 1072 620 1072 l 642 1072 m 816 1072 q 853 1085 837 1072 q 874 1116 870 1097 q 867 1148 878 1135 q 835 1160 856 1160 l 833 1160 q 795 1148 812 1160 q 774 1116 779 1135 q 782 1085 770 1097 q 814 1072 793 1072 l 816 1072 m 611 1240 l 907 1192 l 907 1192 l 626 1311 l 611 1240 z "},"Ǚ":{"ha":949,"x_min":178,"x_max":1132,"o":"m 501 -9 q 699 40 618 -9 q 830 177 780 90 q 906 376 880 264 l 1000 779 q 1025 872 1014 836 q 1050 931 1036 909 q 1083 964 1063 953 q 1132 979 1102 975 l 1132 979 l 927 979 l 927 979 q 983 955 966 972 q 997 896 999 937 q 980 779 995 854 l 901 378 q 830 181 878 265 q 711 51 781 97 q 553 4 640 4 q 407 44 468 4 q 324 170 347 83 q 330 395 301 256 l 435 888 q 452 940 442 922 q 479 966 462 958 q 526 979 496 975 l 526 979 l 252 979 l 252 979 q 305 956 294 972 q 304 888 315 939 l 203 408 q 194 210 178 290 q 256 81 210 130 q 366 12 301 33 q 501 -9 430 -9 m 642 1072 q 680 1085 663 1072 q 701 1116 696 1097 q 693 1148 705 1135 q 661 1160 682 1160 l 660 1160 q 622 1148 639 1160 q 601 1116 605 1135 q 608 1085 597 1097 q 641 1072 620 1072 l 642 1072 m 816 1072 q 853 1085 837 1072 q 874 1116 870 1097 q 867 1148 878 1135 q 835 1160 856 1160 l 833 1160 q 795 1148 812 1160 q 774 1116 779 1135 q 782 1085 770 1097 q 814 1072 793 1072 l 816 1072 m 932 1312 l 759 1253 l 774 1253 l 627 1312 l 627 1312 l 749 1190 l 760 1190 l 932 1312 l 932 1312 z "},"Ǖ":{"ha":949,"x_min":178,"x_max":1132,"o":"m 501 -9 q 699 40 618 -9 q 830 177 780 90 q 906 376 880 264 l 1000 779 q 1025 872 1014 836 q 1050 931 1036 909 q 1083 964 1063 953 q 1132 979 1102 975 l 1132 979 l 927 979 l 927 979 q 983 955 966 972 q 997 896 999 937 q 980 779 995 854 l 901 378 q 830 181 878 265 q 711 51 781 97 q 553 4 640 4 q 407 44 468 4 q 324 170 347 83 q 330 395 301 256 l 435 888 q 452 940 442 922 q 479 966 462 958 q 526 979 496 975 l 526 979 l 252 979 l 252 979 q 305 956 294 972 q 304 888 315 939 l 203 408 q 194 210 178 290 q 256 81 210 130 q 366 12 301 33 q 501 -9 430 -9 m 642 1072 q 680 1085 663 1072 q 701 1116 696 1097 q 693 1148 705 1135 q 661 1160 682 1160 l 660 1160 q 622 1148 639 1160 q 601 1116 605 1135 q 608 1085 597 1097 q 641 1072 620 1072 l 642 1072 m 816 1072 q 853 1085 837 1072 q 874 1116 870 1097 q 867 1148 878 1135 q 835 1160 856 1160 l 833 1160 q 795 1148 812 1160 q 774 1116 779 1135 q 782 1085 770 1097 q 814 1072 793 1072 l 816 1072 m 608 1226 l 914 1226 l 924 1276 l 618 1276 l 608 1226 z "},"Ṳ":{"ha":949,"x_min":178,"x_max":1132,"o":"m 501 -9 q 699 40 618 -9 q 830 177 780 90 q 906 376 880 264 l 1000 779 q 1025 872 1014 836 q 1050 931 1036 909 q 1083 964 1063 953 q 1132 979 1102 975 l 1132 979 l 927 979 l 927 979 q 983 955 966 972 q 997 896 999 937 q 980 779 995 854 l 901 378 q 830 181 878 265 q 711 51 781 97 q 553 4 640 4 q 407 44 468 4 q 324 170 347 83 q 330 395 301 256 l 435 888 q 452 940 442 922 q 479 966 462 958 q 526 979 496 975 l 526 979 l 252 979 l 252 979 q 305 956 294 972 q 304 888 315 939 l 203 408 q 194 210 178 290 q 256 81 210 130 q 366 12 301 33 q 501 -9 430 -9 z "},"Ũ":{"ha":949,"x_min":178,"x_max":1132,"o":"m 501 -9 q 699 40 618 -9 q 830 177 780 90 q 906 376 880 264 l 1000 779 q 1025 872 1014 836 q 1050 931 1036 909 q 1083 964 1063 953 q 1132 979 1102 975 l 1132 979 l 927 979 l 927 979 q 983 955 966 972 q 997 896 999 937 q 980 779 995 854 l 901 378 q 830 181 878 265 q 711 51 781 97 q 553 4 640 4 q 407 44 468 4 q 324 170 347 83 q 330 395 301 256 l 435 888 q 452 940 442 922 q 479 966 462 958 q 526 979 496 975 l 526 979 l 252 979 l 252 979 q 305 956 294 972 q 304 888 315 939 l 203 408 q 194 210 178 290 q 256 81 210 130 q 366 12 301 33 q 501 -9 430 -9 m 789 1069 q 830 1080 812 1069 q 860 1120 848 1092 q 879 1196 873 1147 l 878 1196 q 858 1143 870 1161 q 824 1125 845 1125 q 800 1131 811 1125 q 772 1149 789 1137 l 755 1161 q 725 1180 740 1173 q 691 1187 710 1187 q 651 1175 669 1187 q 621 1136 633 1163 q 602 1060 608 1108 l 602 1060 q 623 1112 610 1094 q 656 1131 635 1131 q 681 1124 669 1131 q 708 1107 692 1118 l 725 1095 q 755 1076 741 1083 q 789 1069 770 1069 z "},"Ṹ":{"ha":949,"x_min":178,"x_max":1132,"o":"m 501 -9 q 699 40 618 -9 q 830 177 780 90 q 906 376 880 264 l 1000 779 q 1025 872 1014 836 q 1050 931 1036 909 q 1083 964 1063 953 q 1132 979 1102 975 l 1132 979 l 927 979 l 927 979 q 983 955 966 972 q 997 896 999 937 q 980 779 995 854 l 901 378 q 830 181 878 265 q 711 51 781 97 q 553 4 640 4 q 407 44 468 4 q 324 170 347 83 q 330 395 301 256 l 435 888 q 452 940 442 922 q 479 966 462 958 q 526 979 496 975 l 526 979 l 252 979 l 252 979 q 305 956 294 972 q 304 888 315 939 l 203 408 q 194 210 178 290 q 256 81 210 130 q 366 12 301 33 q 501 -9 430 -9 m 800 1078 q 866 1102 840 1078 q 903 1171 892 1126 l 902 1171 q 878 1134 895 1145 q 837 1124 861 1124 q 808 1127 823 1124 q 774 1137 793 1131 l 755 1143 q 719 1152 739 1148 q 676 1156 699 1156 q 610 1132 636 1156 q 574 1063 583 1108 l 574 1063 q 598 1100 581 1089 q 639 1110 614 1110 q 668 1107 653 1110 q 703 1097 684 1103 l 720 1091 q 758 1082 738 1086 q 800 1078 777 1078 m 917 1240 l 932 1311 l 601 1192 l 601 1192 l 917 1240 z "},"Ṵ":{"ha":949,"x_min":178,"x_max":1132,"o":"m 501 -9 q 699 40 618 -9 q 830 177 780 90 q 906 376 880 264 l 1000 779 q 1025 872 1014 836 q 1050 931 1036 909 q 1083 964 1063 953 q 1132 979 1102 975 l 1132 979 l 927 979 l 927 979 q 983 955 966 972 q 997 896 999 937 q 980 779 995 854 l 901 378 q 830 181 878 265 q 711 51 781 97 q 553 4 640 4 q 407 44 468 4 q 324 170 347 83 q 330 395 301 256 l 435 888 q 452 940 442 922 q 479 966 462 958 q 526 979 496 975 l 526 979 l 252 979 l 252 979 q 305 956 294 972 q 304 888 315 939 l 203 408 q 194 210 178 290 q 256 81 210 130 q 366 12 301 33 q 501 -9 430 -9 z "},"Ū":{"ha":949,"x_min":178,"x_max":1132,"o":"m 501 -9 q 699 40 618 -9 q 830 177 780 90 q 906 376 880 264 l 1000 779 q 1025 872 1014 836 q 1050 931 1036 909 q 1083 964 1063 953 q 1132 979 1102 975 l 1132 979 l 927 979 l 927 979 q 983 955 966 972 q 997 896 999 937 q 980 779 995 854 l 901 378 q 830 181 878 265 q 711 51 781 97 q 553 4 640 4 q 407 44 468 4 q 324 170 347 83 q 330 395 301 256 l 435 888 q 452 940 442 922 q 479 966 462 958 q 526 979 496 975 l 526 979 l 252 979 l 252 979 q 305 956 294 972 q 304 888 315 939 l 203 408 q 194 210 178 290 q 256 81 210 130 q 366 12 301 33 q 501 -9 430 -9 m 596 1089 l 868 1089 l 880 1147 l 608 1147 l 596 1089 z "},"Ṻ":{"ha":949,"x_min":178,"x_max":1132,"o":"m 501 -9 q 699 40 618 -9 q 830 177 780 90 q 906 376 880 264 l 1000 779 q 1025 872 1014 836 q 1050 931 1036 909 q 1083 964 1063 953 q 1132 979 1102 975 l 1132 979 l 927 979 l 927 979 q 983 955 966 972 q 997 896 999 937 q 980 779 995 854 l 901 378 q 830 181 878 265 q 711 51 781 97 q 553 4 640 4 q 407 44 468 4 q 324 170 347 83 q 330 395 301 256 l 435 888 q 452 940 442 922 q 479 966 462 958 q 526 979 496 975 l 526 979 l 252 979 l 252 979 q 305 956 294 972 q 304 888 315 939 l 203 408 q 194 210 178 290 q 256 81 210 130 q 366 12 301 33 q 501 -9 430 -9 m 591 1092 l 874 1092 l 884 1141 l 601 1141 l 591 1092 m 671 1207 q 708 1220 692 1207 q 729 1251 725 1232 q 722 1283 733 1270 q 690 1295 711 1295 l 688 1295 q 650 1283 667 1295 q 629 1251 633 1270 q 637 1220 625 1232 q 669 1207 648 1207 l 671 1207 m 844 1207 q 882 1220 865 1207 q 903 1251 899 1232 q 896 1283 907 1270 q 863 1295 884 1295 l 862 1295 q 824 1283 841 1295 q 803 1251 807 1270 q 810 1220 799 1232 q 843 1207 822 1207 l 844 1207 z "},"Ủ":{"ha":949,"x_min":178,"x_max":1132,"o":"m 501 -9 q 699 40 618 -9 q 830 177 780 90 q 906 376 880 264 l 1000 779 q 1025 872 1014 836 q 1050 931 1036 909 q 1083 964 1063 953 q 1132 979 1102 975 l 1132 979 l 927 979 l 927 979 q 983 955 966 972 q 997 896 999 937 q 980 779 995 854 l 901 378 q 830 181 878 265 q 711 51 781 97 q 553 4 640 4 q 407 44 468 4 q 324 170 347 83 q 330 395 301 256 l 435 888 q 452 940 442 922 q 479 966 462 958 q 526 979 496 975 l 526 979 l 252 979 l 252 979 q 305 956 294 972 q 304 888 315 939 l 203 408 q 194 210 178 290 q 256 81 210 130 q 366 12 301 33 q 501 -9 430 -9 m 757 1226 q 693 1208 722 1226 q 649 1158 665 1190 l 649 1157 q 679 1178 663 1171 q 714 1185 695 1185 q 756 1171 739 1185 q 772 1133 772 1157 q 750 1083 772 1108 q 682 1035 728 1059 l 683 1035 q 799 1088 762 1056 q 836 1158 836 1120 q 813 1208 836 1190 q 757 1226 790 1226 z "},"Ů":{"ha":949,"x_min":178,"x_max":1132,"o":"m 501 -9 q 699 40 618 -9 q 830 177 780 90 q 906 376 880 264 l 1000 779 q 1025 872 1014 836 q 1050 931 1036 909 q 1083 964 1063 953 q 1132 979 1102 975 l 1132 979 l 927 979 l 927 979 q 983 955 966 972 q 997 896 999 937 q 980 779 995 854 l 901 378 q 830 181 878 265 q 711 51 781 97 q 553 4 640 4 q 407 44 468 4 q 324 170 347 83 q 330 395 301 256 l 435 888 q 452 940 442 922 q 479 966 462 958 q 526 979 496 975 l 526 979 l 252 979 l 252 979 q 305 956 294 972 q 304 888 315 939 l 203 408 q 194 210 178 290 q 256 81 210 130 q 366 12 301 33 q 501 -9 430 -9 m 622 1140 q 659 1078 622 1098 q 730 1057 695 1057 q 828 1085 789 1057 q 867 1155 867 1112 q 830 1217 867 1197 q 758 1238 794 1238 q 661 1210 699 1238 q 622 1140 622 1183 m 694 1113 q 702 1171 694 1143 q 726 1218 711 1200 q 758 1236 741 1236 q 786 1223 777 1236 q 795 1183 795 1209 q 786 1125 795 1154 q 763 1078 778 1097 q 730 1060 749 1060 q 703 1073 711 1060 q 694 1113 694 1086 z "},"Ụ":{"ha":949,"x_min":178,"x_max":1132,"o":"m 501 -9 q 699 40 618 -9 q 830 177 780 90 q 906 376 880 264 l 1000 779 q 1025 872 1014 836 q 1050 931 1036 909 q 1083 964 1063 953 q 1132 979 1102 975 l 1132 979 l 927 979 l 927 979 q 983 955 966 972 q 997 896 999 937 q 980 779 995 854 l 901 378 q 830 181 878 265 q 711 51 781 97 q 553 4 640 4 q 407 44 468 4 q 324 170 347 83 q 330 395 301 256 l 435 888 q 452 940 442 922 q 479 966 462 958 q 526 979 496 975 l 526 979 l 252 979 l 252 979 q 305 956 294 972 q 304 888 315 939 l 203 408 q 194 210 178 290 q 256 81 210 130 q 366 12 301 33 q 501 -9 430 -9 m 463 -130 q 422 -146 438 -130 q 406 -186 406 -163 q 421 -225 406 -209 q 460 -241 437 -241 q 501 -225 484 -241 q 517 -186 517 -209 q 501 -146 517 -163 q 463 -130 485 -130 z "},"Ų":{"ha":949,"x_min":178,"x_max":1132,"o":"m 501 -9 q 699 40 618 -9 q 830 177 780 90 q 906 376 880 264 l 1000 779 q 1025 872 1014 836 q 1050 931 1036 909 q 1083 964 1063 953 q 1132 979 1103 975 l 1132 979 l 927 979 l 927 979 q 983 955 966 972 q 997 896 999 937 q 980 779 995 854 l 901 378 q 830 181 878 265 q 711 51 781 97 q 553 4 640 4 q 407 44 468 4 q 324 170 347 83 q 330 395 301 256 l 435 888 q 452 940 442 922 q 479 966 462 958 q 526 979 496 975 l 526 979 l 252 979 l 252 979 q 305 956 294 972 q 304 888 315 939 l 203 408 q 194 210 178 290 q 256 81 210 130 q 366 12 301 33 q 501 -9 430 -9 m 471 -317 q 535 -296 509 -317 q 573 -242 562 -275 l 573 -241 q 528 -262 554 -262 q 491 -249 507 -262 q 468 -210 476 -235 q 460 -151 460 -185 q 470 -75 460 -112 q 501 -7 481 -38 l 500 -7 q 406 -113 441 -60 q 371 -219 371 -166 q 399 -290 371 -262 q 471 -317 428 -317 z "},"Ư":{"ha":1001,"x_min":178,"x_max":1226,"o":"m 203 408 q 194 210 178 290 q 256 81 210 130 q 366 12 301 33 q 501 -9 430 -9 q 700 40 618 -9 q 831 177 781 90 q 906 376 882 264 l 1041 988 l 1038 988 q 1059 986 1048 987 q 1087 985 1071 985 q 1185 1013 1145 985 q 1226 1090 1226 1041 q 1201 1158 1226 1129 q 1134 1197 1176 1187 l 1133 1197 q 1143 1170 1139 1187 q 1147 1134 1147 1153 q 1123 1052 1147 1087 q 1053 998 1098 1017 q 945 979 1007 979 l 932 979 l 932 979 q 986 955 970 972 q 1001 896 1002 937 q 983 779 999 854 l 902 376 q 830 180 879 264 q 711 50 781 96 q 553 4 640 4 q 407 44 468 4 q 324 170 347 83 q 330 395 301 256 l 435 888 q 453 941 442 922 q 483 967 463 959 q 539 979 503 975 l 539 979 l 239 979 l 239 979 q 304 957 292 974 q 304 888 316 939 l 203 408 z "},"Ứ":{"ha":1001,"x_min":178,"x_max":1226,"o":"m 203 408 q 194 210 178 290 q 256 81 210 130 q 366 12 301 33 q 501 -9 430 -9 q 700 40 618 -9 q 831 177 781 90 q 906 376 882 264 l 1041 988 l 1038 988 q 1059 986 1048 987 q 1087 985 1071 985 q 1185 1013 1145 985 q 1226 1090 1226 1041 q 1201 1158 1226 1129 q 1134 1197 1176 1187 l 1133 1197 q 1143 1170 1139 1187 q 1147 1134 1147 1153 q 1123 1052 1147 1087 q 1053 998 1098 1017 q 945 979 1007 979 l 932 979 l 932 979 q 986 955 970 972 q 1001 896 1002 937 q 983 779 999 854 l 902 376 q 830 180 879 264 q 711 50 781 96 q 553 4 640 4 q 407 44 468 4 q 324 170 347 83 q 330 395 301 256 l 435 888 q 453 941 442 922 q 483 967 463 959 q 539 979 503 975 l 539 979 l 239 979 l 239 979 q 304 957 292 974 q 304 888 316 939 l 203 408 m 819 1200 l 695 1025 l 696 1025 l 947 1199 l 947 1200 l 819 1200 z "},"Ừ":{"ha":1001,"x_min":178,"x_max":1226,"o":"m 203 408 q 194 210 178 290 q 256 81 210 130 q 366 12 301 33 q 501 -9 430 -9 q 700 40 618 -9 q 831 177 781 90 q 906 376 882 264 l 1041 988 l 1038 988 q 1059 986 1048 987 q 1087 985 1071 985 q 1185 1013 1145 985 q 1226 1090 1226 1041 q 1201 1158 1226 1129 q 1134 1197 1176 1187 l 1133 1197 q 1143 1170 1139 1187 q 1147 1134 1147 1153 q 1123 1052 1147 1087 q 1053 998 1098 1017 q 945 979 1007 979 l 932 979 l 932 979 q 986 955 970 972 q 1001 896 1002 937 q 983 779 999 854 l 902 376 q 830 180 879 264 q 711 50 781 96 q 553 4 640 4 q 407 44 468 4 q 324 170 347 83 q 330 395 301 256 l 435 888 q 453 941 442 922 q 483 967 463 959 q 539 979 503 975 l 539 979 l 239 979 l 239 979 q 304 957 292 974 q 304 888 316 939 l 203 408 m 720 1199 l 606 1199 l 606 1198 l 781 1024 l 783 1024 l 720 1199 z "},"Ữ":{"ha":1001,"x_min":178,"x_max":1226,"o":"m 203 408 q 194 210 178 290 q 256 81 210 130 q 366 12 301 33 q 501 -9 430 -9 q 700 40 618 -9 q 831 177 781 90 q 906 376 882 264 l 1041 988 l 1038 988 q 1059 986 1048 987 q 1087 985 1071 985 q 1185 1013 1145 985 q 1226 1090 1226 1041 q 1201 1158 1226 1129 q 1134 1197 1176 1187 l 1133 1197 q 1143 1170 1139 1187 q 1147 1134 1147 1153 q 1123 1052 1147 1087 q 1053 998 1098 1017 q 945 979 1007 979 l 932 979 l 932 979 q 986 955 970 972 q 1001 896 1002 937 q 983 779 999 854 l 902 376 q 830 180 879 264 q 711 50 781 96 q 553 4 640 4 q 407 44 468 4 q 324 170 347 83 q 330 395 301 256 l 435 888 q 453 941 442 922 q 483 967 463 959 q 539 979 503 975 l 539 979 l 239 979 l 239 979 q 304 957 292 974 q 304 888 316 939 l 203 408 m 805 1069 q 845 1080 827 1069 q 876 1120 863 1092 q 895 1196 888 1147 l 894 1196 q 873 1143 886 1161 q 840 1125 861 1125 q 815 1131 827 1125 q 788 1149 804 1137 l 771 1161 q 741 1180 755 1173 q 707 1187 726 1187 q 666 1175 684 1187 q 636 1136 648 1163 q 617 1060 624 1108 l 618 1060 q 638 1112 626 1094 q 672 1131 651 1131 q 696 1124 685 1131 q 724 1107 707 1118 l 741 1095 q 771 1076 756 1083 q 805 1069 786 1069 z "},"Ử":{"ha":1001,"x_min":178,"x_max":1226,"o":"m 203 408 q 194 210 178 290 q 256 81 210 130 q 366 12 301 33 q 501 -9 430 -9 q 700 40 618 -9 q 831 177 781 90 q 906 376 882 264 l 1041 988 l 1038 988 q 1059 986 1048 987 q 1087 985 1071 985 q 1185 1013 1145 985 q 1226 1090 1226 1041 q 1201 1158 1226 1129 q 1134 1197 1176 1187 l 1133 1197 q 1143 1170 1139 1187 q 1147 1134 1147 1153 q 1123 1052 1147 1087 q 1053 998 1098 1017 q 945 979 1007 979 l 932 979 l 932 979 q 986 955 970 972 q 1001 896 1002 937 q 983 779 999 854 l 902 376 q 830 180 879 264 q 711 50 781 96 q 553 4 640 4 q 407 44 468 4 q 324 170 347 83 q 330 395 301 256 l 435 888 q 453 941 442 922 q 483 967 463 959 q 539 979 503 975 l 539 979 l 239 979 l 239 979 q 304 957 292 974 q 304 888 316 939 l 203 408 m 772 1226 q 709 1208 738 1226 q 665 1158 680 1190 l 665 1157 q 695 1178 679 1171 q 730 1185 711 1185 q 771 1171 755 1185 q 788 1133 788 1157 q 766 1083 788 1108 q 697 1035 744 1059 l 699 1035 q 814 1088 777 1056 q 852 1158 852 1120 q 829 1208 852 1190 q 772 1226 806 1226 z "},"Ự":{"ha":1001,"x_min":178,"x_max":1226,"o":"m 203 408 q 194 210 178 290 q 256 81 210 130 q 366 12 301 33 q 501 -9 430 -9 q 700 40 618 -9 q 831 177 781 90 q 906 376 882 264 l 1041 988 l 1038 988 q 1059 986 1048 987 q 1087 985 1071 985 q 1185 1013 1145 985 q 1226 1090 1226 1041 q 1201 1158 1226 1129 q 1134 1197 1176 1187 l 1133 1197 q 1143 1170 1139 1187 q 1147 1134 1147 1153 q 1123 1052 1147 1087 q 1053 998 1098 1017 q 945 979 1007 979 l 932 979 l 932 979 q 986 955 970 972 q 1001 896 1002 937 q 983 779 999 854 l 902 376 q 830 180 879 264 q 711 50 781 96 q 553 4 640 4 q 407 44 468 4 q 324 170 347 83 q 330 395 301 256 l 435 888 q 453 941 442 922 q 483 967 463 959 q 539 979 503 975 l 539 979 l 239 979 l 239 979 q 304 957 292 974 q 304 888 316 939 l 203 408 m 439 -130 q 399 -146 415 -130 q 382 -186 382 -163 q 398 -225 382 -209 q 437 -241 414 -241 q 478 -225 461 -241 q 494 -186 494 -209 q 478 -146 494 -163 q 439 -130 462 -130 z "},"V":{"ha":825,"x_min":203,"x_max":1039,"o":"m 288 835 l 399 0 l 422 0 l 876 804 q 942 910 916 875 q 990 960 968 946 q 1039 979 1012 974 l 1039 979 l 824 979 l 824 979 q 885 956 866 972 q 896 905 903 941 q 853 804 888 870 l 511 161 l 513 161 l 425 835 q 426 912 419 882 q 453 959 433 943 q 507 979 473 975 l 507 979 l 203 979 l 203 979 q 241 963 224 975 q 269 921 257 951 q 288 835 280 891 z "},"Ṽ":{"ha":825,"x_min":203,"x_max":1039,"o":"m 288 835 l 399 0 l 422 0 l 876 804 q 942 910 916 875 q 990 960 968 946 q 1039 979 1012 974 l 1039 979 l 824 979 l 824 979 q 885 956 866 972 q 896 905 903 941 q 853 804 888 870 l 511 161 l 513 161 l 425 835 q 426 912 419 882 q 453 959 433 943 q 507 979 473 975 l 507 979 l 203 979 l 203 979 q 241 963 224 975 q 269 921 257 951 q 288 835 280 891 m 747 1069 q 787 1080 769 1069 q 818 1120 805 1092 q 836 1196 830 1147 l 836 1196 q 815 1143 827 1161 q 781 1125 802 1125 q 757 1131 768 1125 q 730 1149 746 1137 l 713 1161 q 682 1180 697 1173 q 648 1187 667 1187 q 608 1175 626 1187 q 578 1136 590 1163 q 559 1060 566 1108 l 559 1060 q 580 1112 568 1094 q 614 1131 593 1131 q 638 1124 627 1131 q 665 1107 649 1118 l 682 1095 q 713 1076 698 1083 q 747 1069 728 1069 z "},"Ṿ":{"ha":825,"x_min":203,"x_max":1039,"o":"m 288 835 l 399 0 l 422 0 l 876 804 q 942 910 916 875 q 990 960 968 946 q 1039 979 1012 974 l 1039 979 l 824 979 l 824 979 q 885 956 866 972 q 896 905 903 941 q 853 804 888 870 l 511 161 l 513 161 l 425 835 q 426 912 419 882 q 453 959 433 943 q 507 979 473 975 l 507 979 l 203 979 l 203 979 q 241 963 224 975 q 269 921 257 951 q 288 835 280 891 m 385 -130 q 345 -146 361 -130 q 328 -186 328 -163 q 344 -225 328 -209 q 383 -241 360 -241 q 424 -225 407 -241 q 440 -186 440 -209 q 424 -146 440 -163 q 385 -130 408 -130 z "},"W":{"ha":1312,"x_min":203,"x_max":1525,"o":"m 286 835 l 368 0 l 391 0 l 861 902 l 840 902 l 919 0 l 942 0 l 1363 804 q 1427 911 1401 876 q 1475 960 1453 947 q 1525 979 1498 974 l 1525 979 l 1318 979 l 1318 979 q 1374 957 1358 972 q 1382 905 1390 941 q 1341 804 1374 869 l 1033 178 l 1033 178 l 987 831 q 986 920 983 890 q 1006 962 990 949 q 1054 979 1022 974 l 1054 979 l 772 979 l 772 979 q 825 957 810 970 q 832 909 840 943 q 792 810 825 876 l 481 178 l 481 178 l 423 835 q 426 913 419 883 q 452 959 432 943 q 507 979 471 975 l 507 979 l 203 979 l 203 979 q 240 963 224 975 q 269 921 257 951 q 286 835 280 892 z "},"Ẃ":{"ha":1312,"x_min":203,"x_max":1525,"o":"m 286 835 l 368 0 l 391 0 l 861 902 l 840 902 l 919 0 l 942 0 l 1363 804 q 1427 911 1401 876 q 1475 960 1453 947 q 1525 979 1498 974 l 1525 979 l 1318 979 l 1318 979 q 1374 957 1358 972 q 1382 905 1390 941 q 1341 804 1374 869 l 1033 178 l 1033 178 l 987 831 q 986 920 983 890 q 1006 962 990 949 q 1054 979 1022 974 l 1054 979 l 772 979 l 772 979 q 825 957 810 970 q 832 909 840 943 q 792 810 825 876 l 481 178 l 481 178 l 423 835 q 426 913 419 883 q 452 959 432 943 q 507 979 471 975 l 507 979 l 203 979 l 203 979 q 240 963 224 975 q 269 921 257 951 q 286 835 280 892 m 1014 1200 l 890 1025 l 891 1025 l 1142 1199 l 1142 1200 l 1014 1200 z "},"Ẁ":{"ha":1312,"x_min":203,"x_max":1525,"o":"m 286 835 l 368 0 l 391 0 l 861 902 l 840 902 l 919 0 l 942 0 l 1363 804 q 1427 911 1401 876 q 1475 960 1453 947 q 1525 979 1498 974 l 1525 979 l 1318 979 l 1318 979 q 1374 957 1358 972 q 1382 905 1390 941 q 1341 804 1374 869 l 1033 178 l 1033 178 l 987 831 q 986 920 983 890 q 1006 962 990 949 q 1054 979 1022 974 l 1054 979 l 772 979 l 772 979 q 825 957 810 970 q 832 909 840 943 q 792 810 825 876 l 481 178 l 481 178 l 423 835 q 426 913 419 883 q 452 959 432 943 q 507 979 471 975 l 507 979 l 203 979 l 203 979 q 240 963 224 975 q 269 921 257 951 q 286 835 280 892 m 915 1199 l 800 1199 l 800 1198 l 976 1024 l 977 1024 l 915 1199 z "},"Ŵ":{"ha":1312,"x_min":203,"x_max":1525,"o":"m 286 835 l 368 0 l 391 0 l 861 902 l 840 902 l 919 0 l 942 0 l 1363 804 q 1427 911 1401 876 q 1475 960 1453 947 q 1525 979 1498 974 l 1525 979 l 1318 979 l 1318 979 q 1374 957 1358 972 q 1382 905 1390 941 q 1341 804 1374 869 l 1033 178 l 1033 178 l 987 831 q 986 920 983 890 q 1006 962 990 949 q 1054 979 1022 974 l 1054 979 l 772 979 l 772 979 q 825 957 810 970 q 832 909 840 943 q 792 810 825 876 l 481 178 l 481 178 l 423 835 q 426 913 419 883 q 452 959 432 943 q 507 979 471 975 l 507 979 l 203 979 l 203 979 q 240 963 224 975 q 269 921 257 951 q 286 835 280 892 m 791 1025 l 987 1152 l 937 1152 l 1076 1025 l 1077 1025 l 998 1200 l 939 1200 l 791 1025 l 791 1025 z "},"Ẅ":{"ha":1312,"x_min":203,"x_max":1525,"o":"m 286 835 l 368 0 l 391 0 l 861 902 l 840 902 l 919 0 l 942 0 l 1363 804 q 1427 911 1401 876 q 1475 960 1453 947 q 1525 979 1498 974 l 1525 979 l 1318 979 l 1318 979 q 1374 957 1358 972 q 1382 905 1390 941 q 1341 804 1374 869 l 1033 178 l 1033 178 l 987 831 q 986 920 983 890 q 1006 962 990 949 q 1054 979 1022 974 l 1054 979 l 772 979 l 772 979 q 825 957 810 970 q 832 909 840 943 q 792 810 825 876 l 481 178 l 481 178 l 423 835 q 426 913 419 883 q 452 959 432 943 q 507 979 471 975 l 507 979 l 203 979 l 203 979 q 240 963 224 975 q 269 921 257 951 q 286 835 280 892 z "},"Ẇ":{"ha":1312,"x_min":203,"x_max":1525,"o":"m 286 835 l 368 0 l 391 0 l 861 902 l 840 902 l 919 0 l 942 0 l 1363 804 q 1427 911 1401 876 q 1475 960 1453 947 q 1525 979 1498 974 l 1525 979 l 1318 979 l 1318 979 q 1374 957 1358 972 q 1382 905 1390 941 q 1341 804 1374 869 l 1033 178 l 1033 178 l 987 831 q 986 920 983 890 q 1006 962 990 949 q 1054 979 1022 974 l 1054 979 l 772 979 l 772 979 q 825 957 810 970 q 832 909 840 943 q 792 810 825 876 l 481 178 l 481 178 l 423 835 q 426 913 419 883 q 452 959 432 943 q 507 979 471 975 l 507 979 l 203 979 l 203 979 q 240 963 224 975 q 269 921 257 951 q 286 835 280 892 m 947 1057 q 987 1074 971 1057 q 1004 1113 1004 1090 q 988 1152 1004 1136 q 949 1168 972 1168 q 908 1152 925 1168 q 892 1113 892 1136 q 908 1074 892 1090 q 947 1057 924 1057 z "},"Ẉ":{"ha":1312,"x_min":203,"x_max":1525,"o":"m 286 835 l 368 0 l 391 0 l 861 902 l 840 902 l 919 0 l 942 0 l 1363 804 q 1427 911 1401 876 q 1475 960 1453 947 q 1525 979 1498 974 l 1525 979 l 1318 979 l 1318 979 q 1374 957 1358 972 q 1382 905 1390 941 q 1341 804 1374 869 l 1033 178 l 1033 178 l 987 831 q 986 920 983 890 q 1006 962 990 949 q 1054 979 1022 974 l 1054 979 l 772 979 l 772 979 q 825 957 810 970 q 832 909 840 943 q 792 810 825 876 l 481 178 l 481 178 l 423 835 q 426 913 419 883 q 452 959 432 943 q 507 979 471 975 l 507 979 l 203 979 l 203 979 q 240 963 224 975 q 269 921 257 951 q 286 835 280 892 m 618 -130 q 578 -146 594 -130 q 562 -186 562 -163 q 577 -225 562 -209 q 616 -241 593 -241 q 657 -225 640 -241 q 673 -186 673 -209 q 657 -146 673 -163 q 618 -130 641 -130 z "},"X":{"ha":800,"x_min":-5,"x_max":1002,"o":"m 310 846 l 573 109 q 584 59 583 80 q 570 23 585 37 q 519 1 555 9 l 519 0 l 805 0 l 805 1 q 767 20 783 9 q 737 58 751 32 q 705 134 723 84 l 441 870 q 429 926 429 905 q 445 960 429 948 q 495 979 461 972 l 495 979 l 203 979 l 203 979 q 246 960 229 972 q 278 922 263 948 q 310 846 292 896 m 197 173 q 106 67 140 102 q 46 19 71 33 q -5 1 22 6 l -5 0 l 207 0 l 207 1 q 152 22 166 7 q 154 71 138 37 q 219 173 170 106 l 450 489 l 450 490 l 197 173 m 800 806 q 891 912 857 877 q 950 960 925 947 q 1002 979 975 974 l 1002 979 l 789 979 l 789 979 q 844 958 830 972 q 843 909 859 943 q 777 806 827 874 l 547 493 l 547 492 l 800 806 z "},"Ẍ":{"ha":800,"x_min":-5,"x_max":1002,"o":"m 310 846 l 573 109 q 584 59 583 80 q 570 23 585 37 q 519 1 555 9 l 519 0 l 805 0 l 805 1 q 767 20 783 9 q 737 58 751 32 q 705 134 723 84 l 441 870 q 429 926 429 905 q 445 960 429 948 q 495 979 461 972 l 495 979 l 203 979 l 203 979 q 246 960 229 972 q 278 922 263 948 q 310 846 292 896 m 197 173 q 106 67 140 102 q 46 19 71 33 q -5 1 22 6 l -5 0 l 207 0 l 207 1 q 152 22 166 7 q 154 71 138 37 q 219 173 170 106 l 450 489 l 450 490 l 197 173 m 800 806 q 891 912 857 877 q 950 960 925 947 q 1002 979 975 974 l 1002 979 l 789 979 l 789 979 q 844 958 830 972 q 843 909 859 943 q 777 806 827 874 l 547 493 l 547 492 l 800 806 z "},"Ẋ":{"ha":800,"x_min":-5,"x_max":1002,"o":"m 310 846 l 573 109 q 584 59 583 80 q 570 23 585 37 q 519 1 555 9 l 519 0 l 805 0 l 805 1 q 767 20 783 9 q 737 58 751 32 q 705 134 723 84 l 441 870 q 429 926 429 905 q 445 960 429 948 q 495 979 461 972 l 495 979 l 203 979 l 203 979 q 246 960 229 972 q 278 922 263 948 q 310 846 292 896 m 197 173 q 106 67 140 102 q 46 19 71 33 q -5 1 22 6 l -5 0 l 207 0 l 207 1 q 152 22 166 7 q 154 71 138 37 q 219 173 170 106 l 450 489 l 450 490 l 197 173 m 800 806 q 891 912 857 877 q 950 960 925 947 q 1002 979 975 974 l 1002 979 l 789 979 l 789 979 q 844 958 830 972 q 843 909 859 943 q 777 806 827 874 l 547 493 l 547 492 l 800 806 m 692 1057 q 732 1074 716 1057 q 749 1113 749 1090 q 733 1152 749 1136 q 694 1168 717 1168 q 653 1152 670 1168 q 637 1113 637 1136 q 653 1074 637 1090 q 692 1057 669 1057 z "},"Y":{"ha":800,"x_min":203,"x_max":1014,"o":"m 311 827 l 435 477 l 353 87 q 335 40 346 58 q 304 14 325 22 q 245 1 283 5 l 245 0 l 558 0 l 558 1 q 502 15 520 6 q 480 41 484 24 q 483 87 477 58 l 567 482 l 813 794 q 903 905 871 867 q 960 958 936 943 q 1014 979 983 973 l 1014 979 l 810 979 l 810 979 q 862 958 848 974 q 860 903 876 941 q 792 795 844 865 l 567 486 l 568 486 l 449 830 q 431 911 431 881 q 449 958 431 942 q 504 979 467 973 l 504 979 l 203 979 l 203 979 q 239 964 224 975 q 271 923 255 954 q 311 827 288 892 z "},"Ý":{"ha":800,"x_min":203,"x_max":1014,"o":"m 311 827 l 435 477 l 353 87 q 335 40 346 58 q 304 14 325 22 q 245 1 283 5 l 245 0 l 558 0 l 558 1 q 502 15 520 6 q 480 41 484 24 q 483 87 477 58 l 567 482 l 813 794 q 903 905 871 867 q 960 958 936 943 q 1014 979 983 973 l 1014 979 l 810 979 l 810 979 q 862 958 848 974 q 860 903 876 941 q 792 795 844 865 l 567 486 l 568 486 l 449 830 q 431 911 431 881 q 449 958 431 942 q 504 979 467 973 l 504 979 l 203 979 l 203 979 q 239 964 224 975 q 271 923 255 954 q 311 827 288 892 m 747 1200 l 623 1025 l 625 1025 l 876 1199 l 876 1200 l 747 1200 z "},"Ỳ":{"ha":800,"x_min":203,"x_max":1014,"o":"m 311 827 l 435 477 l 353 87 q 335 40 346 58 q 304 14 325 22 q 245 1 283 5 l 245 0 l 558 0 l 558 1 q 502 15 520 6 q 480 41 484 24 q 483 87 477 58 l 567 482 l 813 794 q 903 905 871 867 q 960 958 936 943 q 1014 979 983 973 l 1014 979 l 810 979 l 810 979 q 862 958 848 974 q 860 903 876 941 q 792 795 844 865 l 567 486 l 568 486 l 449 830 q 431 911 431 881 q 449 958 431 942 q 504 979 467 973 l 504 979 l 203 979 l 203 979 q 239 964 224 975 q 271 923 255 954 q 311 827 288 892 m 648 1199 l 534 1199 l 534 1198 l 709 1024 l 711 1024 l 648 1199 z "},"Ŷ":{"ha":800,"x_min":203,"x_max":1014,"o":"m 311 827 l 435 477 l 353 87 q 335 40 346 58 q 304 14 325 22 q 245 1 283 5 l 245 0 l 558 0 l 558 1 q 502 15 520 6 q 480 41 484 24 q 483 87 477 58 l 567 482 l 813 794 q 903 905 871 867 q 960 958 936 943 q 1014 979 983 973 l 1014 979 l 810 979 l 810 979 q 862 958 848 974 q 860 903 876 941 q 792 795 844 865 l 567 486 l 568 486 l 449 830 q 431 911 431 881 q 449 958 431 942 q 504 979 467 973 l 504 979 l 203 979 l 203 979 q 239 964 224 975 q 271 923 255 954 q 311 827 288 892 m 525 1025 l 720 1152 l 670 1152 l 809 1025 l 810 1025 l 732 1200 l 673 1200 l 524 1025 l 525 1025 z "},"Ÿ":{"ha":800,"x_min":203,"x_max":1014,"o":"m 311 827 l 435 477 l 353 87 q 335 40 346 58 q 304 14 325 22 q 245 1 283 5 l 245 0 l 558 0 l 558 1 q 502 15 520 6 q 480 41 484 24 q 483 87 477 58 l 567 482 l 813 794 q 903 905 871 867 q 960 958 936 943 q 1014 979 983 973 l 1014 979 l 810 979 l 810 979 q 862 958 848 974 q 860 903 876 941 q 792 795 844 865 l 567 486 l 568 486 l 449 830 q 431 911 431 881 q 449 958 431 942 q 504 979 467 973 l 504 979 l 203 979 l 203 979 q 239 964 224 975 q 271 923 255 954 q 311 827 288 892 z "},"Ỹ":{"ha":800,"x_min":203,"x_max":1014,"o":"m 311 827 l 435 477 l 353 87 q 335 40 346 58 q 304 14 325 22 q 245 1 283 5 l 245 0 l 558 0 l 558 1 q 502 15 520 6 q 480 41 484 24 q 483 87 477 58 l 567 482 l 813 794 q 903 905 871 867 q 960 958 936 943 q 1014 979 983 973 l 1014 979 l 810 979 l 810 979 q 862 958 848 974 q 860 903 876 941 q 792 795 844 865 l 567 486 l 568 486 l 449 830 q 431 911 431 881 q 449 958 431 942 q 504 979 467 973 l 504 979 l 203 979 l 203 979 q 239 964 224 975 q 271 923 255 954 q 311 827 288 892 m 733 1069 q 773 1080 755 1069 q 804 1120 791 1092 q 823 1196 817 1147 l 822 1196 q 801 1143 814 1161 q 768 1125 789 1125 q 744 1131 755 1125 q 716 1149 732 1137 l 699 1161 q 669 1180 684 1173 q 635 1187 654 1187 q 594 1175 612 1187 q 564 1136 576 1163 q 545 1060 552 1108 l 546 1060 q 567 1112 554 1094 q 600 1131 579 1131 q 624 1124 613 1131 q 652 1107 635 1118 l 669 1095 q 699 1076 684 1083 q 733 1069 714 1069 z "},"Ȳ":{"ha":800,"x_min":203,"x_max":1014,"o":"m 311 827 l 435 477 l 353 87 q 335 40 346 58 q 304 14 325 22 q 245 1 283 5 l 245 0 l 558 0 l 558 1 q 502 15 520 6 q 480 41 484 24 q 483 87 477 58 l 567 482 l 813 794 q 903 905 871 867 q 960 958 936 943 q 1014 979 983 973 l 1014 979 l 810 979 l 810 979 q 862 958 848 974 q 860 903 876 941 q 792 795 844 865 l 567 486 l 568 486 l 449 830 q 431 911 431 881 q 449 958 431 942 q 504 979 467 973 l 504 979 l 203 979 l 203 979 q 239 964 224 975 q 271 923 255 954 q 311 827 288 892 m 540 1089 l 812 1089 l 824 1147 l 552 1147 l 540 1089 z "},"Ỷ":{"ha":800,"x_min":203,"x_max":1014,"o":"m 311 827 l 435 477 l 353 87 q 335 40 346 58 q 304 14 325 22 q 245 1 283 5 l 245 0 l 558 0 l 558 1 q 502 15 520 6 q 480 41 484 24 q 483 87 477 58 l 567 482 l 813 794 q 903 905 871 867 q 960 958 936 943 q 1014 979 983 973 l 1014 979 l 810 979 l 810 979 q 862 958 848 974 q 860 903 876 941 q 792 795 844 865 l 567 486 l 568 486 l 449 830 q 431 911 431 881 q 449 958 431 942 q 504 979 467 973 l 504 979 l 203 979 l 203 979 q 239 964 224 975 q 271 923 255 954 q 311 827 288 892 m 701 1226 q 637 1208 666 1226 q 593 1158 608 1190 l 593 1157 q 623 1178 607 1171 q 658 1185 639 1185 q 700 1171 683 1185 q 716 1133 716 1157 q 694 1083 716 1108 q 625 1035 672 1059 l 627 1035 q 743 1088 705 1056 q 780 1158 780 1120 q 757 1208 780 1190 q 701 1226 734 1226 z "},"Ẏ":{"ha":800,"x_min":203,"x_max":1014,"o":"m 311 827 l 435 477 l 353 87 q 335 40 346 58 q 304 14 325 22 q 245 1 283 5 l 245 0 l 558 0 l 558 1 q 502 15 520 6 q 480 41 484 24 q 483 87 477 58 l 567 482 l 813 794 q 903 905 871 867 q 960 958 936 943 q 1014 979 983 973 l 1014 979 l 810 979 l 810 979 q 862 958 848 974 q 860 903 876 941 q 792 795 844 865 l 567 486 l 568 486 l 449 830 q 431 911 431 881 q 449 958 431 942 q 504 979 467 973 l 504 979 l 203 979 l 203 979 q 239 964 224 975 q 271 923 255 954 q 311 827 288 892 m 680 1057 q 721 1074 705 1057 q 737 1113 737 1090 q 721 1152 737 1136 q 682 1168 705 1168 q 642 1152 659 1168 q 625 1113 625 1136 q 642 1074 625 1090 q 680 1057 658 1057 z "},"Ỵ":{"ha":800,"x_min":203,"x_max":1014,"o":"m 311 827 l 435 477 l 353 87 q 335 40 346 58 q 304 14 325 22 q 245 1 283 5 l 245 0 l 558 0 l 558 1 q 502 15 520 6 q 480 41 484 24 q 483 87 477 58 l 567 482 l 813 794 q 903 905 871 867 q 960 958 936 943 q 1014 979 983 973 l 1014 979 l 810 979 l 810 979 q 862 958 848 974 q 860 903 876 941 q 792 795 844 865 l 567 486 l 568 486 l 449 830 q 431 911 431 881 q 449 958 431 942 q 504 979 467 973 l 504 979 l 203 979 l 203 979 q 239 964 224 975 q 271 923 255 954 q 311 827 288 892 m 365 -130 q 324 -146 340 -130 q 308 -186 308 -163 q 324 -225 308 -209 q 363 -241 340 -241 q 403 -225 387 -241 q 420 -186 420 -209 q 404 -146 420 -163 q 365 -130 387 -130 z "},"Z":{"ha":781,"x_min":58,"x_max":913,"o":"m 722 0 l 787 240 l 786 240 q 721 131 755 174 q 643 61 688 87 q 534 22 598 35 q 378 7 470 10 l 205 1 l 913 979 l 913 979 l 288 979 l 229 763 l 230 763 q 308 880 266 837 q 411 944 349 924 q 568 969 473 964 l 764 979 l 58 1 l 58 0 l 722 0 z "},"Ź":{"ha":781,"x_min":58,"x_max":913,"o":"m 722 0 l 787 240 l 786 240 q 721 131 755 174 q 643 61 688 87 q 534 22 598 35 q 378 7 470 10 l 205 1 l 913 979 l 913 979 l 288 979 l 229 763 l 230 763 q 308 880 266 837 q 411 944 349 924 q 568 969 473 964 l 764 979 l 58 1 l 58 0 l 722 0 m 724 1200 l 600 1025 l 601 1025 l 852 1199 l 852 1200 l 724 1200 z "},"Ẑ":{"ha":781,"x_min":58,"x_max":913,"o":"m 722 0 l 787 240 l 786 240 q 721 131 755 174 q 643 61 688 87 q 534 22 598 35 q 378 7 470 10 l 205 1 l 913 979 l 913 979 l 288 979 l 229 763 l 230 763 q 308 880 266 837 q 411 944 349 924 q 568 969 473 964 l 764 979 l 58 1 l 58 0 l 722 0 m 501 1025 l 696 1152 l 646 1152 l 785 1025 l 787 1025 l 708 1200 l 649 1200 l 500 1025 l 501 1025 z "}}}
